<svg width="408" height="400" viewBox="0 0 408 400" fill="none" xmlns="http://www.w3.org/2000/svg">
<path d="M191.054 359.963C248.01 359.963 294.181 352.48 294.181 343.248C294.181 334.016 248.01 326.532 191.054 326.532C134.099 326.532 87.9276 334.016 87.9276 343.248C87.9276 352.48 134.099 359.963 191.054 359.963Z" fill="black" fill-opacity="0.1"/>
<path d="M296.603 306.839L268.195 234.283L238.202 296.115C238.202 296.115 252.203 291.072 267.054 293.461C281.905 295.85 288.441 305.903 296.603 306.839Z" fill="#A51919"/>
<path d="M238.361 296.56C238.5 296.507 252.429 291.59 266.981 293.906C275.243 295.233 280.823 298.922 285.747 302.167C289.569 304.689 292.874 306.865 296.55 307.284H296.603C296.675 307.283 296.746 307.265 296.81 307.233C296.875 307.201 296.931 307.155 296.975 307.098C297.024 307.032 297.056 306.955 297.068 306.874C297.08 306.793 297.07 306.71 297.041 306.633L268.633 234.124C268.6 234.039 268.543 233.966 268.469 233.913C268.394 233.86 268.306 233.829 268.215 233.825C268.124 233.823 268.033 233.847 267.955 233.894C267.876 233.941 267.812 234.009 267.771 234.091L237.777 295.923C237.736 296.007 237.721 296.101 237.734 296.193C237.747 296.285 237.787 296.372 237.85 296.441C237.914 296.508 237.997 296.556 238.088 296.577C238.178 296.598 238.273 296.592 238.361 296.56ZM268.149 235.451L295.86 306.235C292.708 305.638 289.702 303.66 286.271 301.391C281.268 298.073 275.594 294.35 267.127 292.99C264.36 292.547 261.562 292.325 258.759 292.326C252.102 292.373 245.486 293.37 239.111 295.286L268.149 235.451Z" fill="#051C4B"/>
<path d="M208.069 307.077C208.069 307.077 270.14 301.489 270.279 240.686C270.418 179.882 214.923 166.843 214.923 166.843C214.923 166.843 197.518 161.249 170.464 166.843C143.409 172.437 172.322 309.844 208.069 307.077Z" fill="#386313"/>
<path d="M206.974 307.589C207.35 307.589 207.728 307.575 208.108 307.549C219.104 306.123 229.718 302.571 239.356 297.091C253.636 288.823 270.671 272.319 270.743 240.687C270.816 209.054 255.667 190.56 242.94 180.586C234.664 174.081 225.196 169.257 215.069 166.386C214.897 166.333 197.239 160.825 170.404 166.386C158.459 168.848 157.796 194.993 161.167 218.636C166.303 254.947 184.319 307.589 206.974 307.589ZM162.096 218.496C157.902 188.868 161.153 169.252 170.59 167.301C178.27 165.69 186.094 164.868 193.941 164.846C206.921 164.846 214.671 167.255 214.81 167.301C224.833 170.144 234.202 174.921 242.389 181.363C254.937 191.203 269.881 209.492 269.808 240.687C269.735 271.881 252.966 288.113 238.918 296.261C229.388 301.685 218.891 305.199 208.015 306.606C198.46 307.336 188.274 297.363 179.316 278.497C171.519 262.067 165.089 239.631 162.096 218.496Z" fill="#051C4B"/>
<path d="M127.835 247.767C125.931 250.521 132.022 272.81 134.697 272.777C137.663 279.672 150.968 297.522 174.598 304.357C181.413 306.311 188.485 307.224 195.573 307.064C196.781 307.064 198.009 306.985 199.25 306.905C225.401 305.166 241.055 293.189 249.993 281.112C252.276 282.439 260.989 267.336 258.335 263.474C262.197 261.529 263.371 240.733 261.314 240.103C261.108 230.149 259.556 220.726 257.074 214.09C250.02 195.231 234.247 177.719 211.997 171.163C193.815 165.815 149.076 155.682 131.498 201.144C131.498 201.144 126.11 217.143 127.656 219.664C125.314 221.118 125.347 247.336 127.835 247.767Z" fill="#5C9B26"/>
<path d="M126.243 245.305C126.515 246.698 126.827 247.541 127.231 247.959C126.077 251.529 129.886 266.002 132.573 271.105C133.237 272.352 133.807 273.029 134.371 273.208C137.172 279.439 150.065 297.76 174.465 304.828C180.864 306.661 187.49 307.581 194.147 307.562H195.587C196.794 307.562 198.035 307.482 199.283 307.402C226.702 305.584 242.07 292.478 250.173 281.689C250.836 281.768 251.626 281.284 252.608 280.229C255.926 276.652 260.571 267.282 258.958 263.639C262.097 261.065 263.119 248.191 262.688 243.068C262.508 240.965 262.144 240.168 261.779 239.85C261.56 230.036 260.007 220.606 257.518 213.97C249.662 192.955 232.694 176.81 212.136 170.758C171.386 158.721 143.356 169.185 131.04 200.944C130.503 202.537 125.984 216.147 127.059 219.525C125.022 222.391 125.128 239.525 126.243 245.305ZM127.915 220.089C127.969 220.056 128.017 220.013 128.054 219.961C128.092 219.91 128.119 219.851 128.133 219.789C128.147 219.727 128.149 219.663 128.137 219.6C128.126 219.538 128.102 219.478 128.067 219.425C127.026 217.726 129.892 207.414 131.949 201.309C144.033 170.061 171.671 159.796 211.871 171.621C232.143 177.593 248.879 193.519 256.629 214.262C259.111 220.898 260.644 230.308 260.843 240.142C260.839 240.239 260.867 240.335 260.924 240.414C260.98 240.494 261.062 240.552 261.155 240.58C261.633 240.912 262.09 244.322 261.692 249.87C261.195 256.857 259.702 262.299 258.122 263.102C258.063 263.133 258.01 263.177 257.968 263.229C257.926 263.282 257.895 263.342 257.877 263.407C257.861 263.473 257.859 263.541 257.871 263.607C257.884 263.674 257.911 263.737 257.95 263.792C259.768 266.446 255.395 275.856 251.918 279.612C250.869 280.74 250.345 280.826 250.232 280.753C250.131 280.695 250.012 280.676 249.898 280.701C249.784 280.725 249.683 280.791 249.615 280.886C241.685 291.563 226.503 304.675 199.223 306.487C197.989 306.566 196.761 306.619 195.567 306.646C188.525 306.81 181.499 305.915 174.724 303.991C150.364 296.858 137.676 278.477 135.135 272.611C135.098 272.525 135.037 272.453 134.959 272.402C134.881 272.351 134.79 272.325 134.697 272.325C134.697 272.325 134.265 272.286 133.409 270.667C130.363 264.94 126.926 249.936 128.227 248.052C128.271 247.986 128.299 247.911 128.308 247.833C128.317 247.754 128.307 247.675 128.28 247.601C128.251 247.528 128.204 247.465 128.144 247.416C128.083 247.367 128.011 247.335 127.935 247.322C127.629 247.169 126.773 245.178 126.488 237.952C126.123 228.748 126.966 220.653 127.915 220.069V220.089Z" fill="#051C4B"/>
<path d="M129.534 247.149C127.702 249.803 133.575 271.27 136.17 271.243C139.023 277.879 151.85 295.073 174.657 301.662C181.23 303.541 188.049 304.418 194.883 304.263C196.051 304.263 197.232 304.19 198.433 304.11C223.649 302.438 238.713 290.899 247.359 279.266C249.562 280.547 257.976 265.995 255.402 262.278C259.124 260.407 260.259 240.38 258.275 239.77C258.076 230.168 256.576 221.103 254.187 214.72C247.352 196.551 232.143 179.709 210.67 173.372C193.131 168.223 149.992 158.462 133.031 202.244C133.031 202.244 127.829 217.659 129.328 220.088C127.105 221.515 127.138 246.731 129.534 247.149Z" fill="#49801D"/>
<path d="M257.313 249.14C259.224 234.601 254.738 221.555 251.254 211.854C244.804 193.877 235.415 178.973 215.069 172.736C198.44 167.639 152.481 156.146 136.402 199.511C136.402 199.511 125.121 233.387 139.322 267.807C142.175 274.721 153.297 296.526 177.079 302.167C180.397 299.333 192.547 299.287 194.233 303.593C195.759 303.593 196.774 300.448 198.367 300.335C225.899 298.431 242.76 289.141 250.027 275.71C247.744 269.545 250.557 268.045 252.137 261.31C253.57 255.218 253.192 254.25 257.313 249.14Z" fill="#386313"/>
<path d="M154.498 175.138C135.811 167.115 128.864 145.316 128.213 134.5C126.123 99.6621 113.117 101.567 107.384 110.611C83.9129 147.772 107.205 199.066 133.137 204.176C141.989 205.987 173.987 183.505 154.498 175.138Z" fill="#6EB221"/>
<path d="M133.031 204.701C133.388 204.767 133.75 204.799 134.113 204.794C141.153 204.794 157.822 194.548 160.716 185.212C161.704 182.027 161.452 177.62 154.67 174.707C136.906 167.076 129.388 146.465 128.671 134.468C127.251 110.798 120.907 105.688 117.251 104.746C113.595 103.804 109.746 105.994 106.972 110.393C95.2668 128.914 93.9529 153.167 103.449 175.265C110.29 191.157 121.631 202.438 133.031 204.701ZM107.815 110.898C109.56 108.137 112.42 105.476 115.619 105.476C116.105 105.476 116.589 105.539 117.059 105.662C120.469 106.538 126.389 111.455 127.775 134.528C128.505 146.757 136.19 167.779 154.319 175.57C159.242 177.687 161.1 180.839 159.833 184.933C156.96 194.223 139.056 204.927 133.237 203.772C122.122 201.569 111.047 190.5 104.331 174.893C94.9549 153.081 96.2422 129.153 107.815 110.898Z" fill="#051C4B"/>
<path d="M205.733 180.095C205.357 180.011 204.992 179.938 204.638 179.876C181.837 176.3 152.839 175.231 152.839 175.231C152.839 175.231 128.32 192.577 129.833 231.563C130.841 257.661 138.273 273.574 148.791 283.587C154.409 288.814 161.106 292.745 168.408 295.103C175.71 297.461 183.44 298.19 191.054 297.237C216.031 294.012 244.638 287.575 250.02 258.657C257.319 219.452 208.878 209.552 211.486 188.072C211.677 186.267 211.195 184.456 210.134 182.984C209.072 181.512 207.505 180.484 205.733 180.095Z" fill="#8DC64B"/>
<path d="M206.098 179.63C192.534 177.301 178.765 176.313 165.055 175.37C161.512 175.184 156.197 174.819 152.706 174.76C152.43 174.912 152.166 175.085 151.916 175.277C147.159 178.821 143.336 183.473 140.111 188.423C129.886 204.063 127.55 223.493 129.899 241.708C131.691 257.886 137.285 274.595 149.926 285.504C163.051 296.633 179.409 300.335 196.177 297.163C208.228 295.325 220.57 292.731 231.201 286.433C238.314 282.273 244.326 276.029 247.658 268.437C250.989 260.846 252.243 252.372 250.803 244.21C249.363 236.048 244.877 228.702 239.343 222.664C233.809 216.625 227.399 211.542 221.506 205.955C216.635 201.25 211.24 195.497 212.023 188.264C212.246 186.351 211.769 184.423 210.679 182.836C209.59 181.249 207.962 180.11 206.098 179.63ZM220.696 206.837C226.589 212.451 233.006 217.454 238.441 223.513C243.842 229.419 248.222 236.499 249.589 244.462C250.956 252.425 249.675 260.647 246.51 267.953C243.344 275.259 237.458 281.317 230.544 285.358C220.059 291.55 207.936 294.078 195.991 295.889C179.555 298.988 163.668 295.392 150.828 284.502C138.466 273.799 133.058 257.408 131.312 241.562C128.087 216.751 133.967 192.511 152.985 175.689C170.132 176.578 187.411 177.799 204.386 180.407C208.274 180.719 211.526 184.222 210.922 188.177C210.006 195.729 215.66 201.98 220.69 206.817L220.696 206.837Z" fill="#051C4B"/>
<path d="M197.67 225.112C166.641 232.896 143.37 225.384 135.334 222.457C135.029 222.348 134.703 222.309 134.381 222.345C134.059 222.38 133.75 222.489 133.476 222.662C133.203 222.836 132.973 223.07 132.804 223.346C132.634 223.622 132.531 223.933 132.5 224.256C132.143 227.328 132.039 230.424 132.188 233.513C132.232 234.269 132.484 234.998 132.916 235.62C133.348 236.241 133.944 236.732 134.637 237.036C161.844 249.173 197.066 240.6 197.066 240.6C197.066 240.6 234.784 234.462 197.066 242.869C166.874 249.631 144.186 242.75 135.553 239.432C135.251 239.316 134.924 239.283 134.605 239.338C134.287 239.392 133.989 239.532 133.743 239.743C133.498 239.953 133.314 240.225 133.21 240.532C133.107 240.838 133.089 241.166 133.157 241.482C134.517 247.859 137.344 252.942 142.175 254.588C154.969 258.954 185.52 259.445 201.346 256.035C217.173 252.624 222.256 222.424 212.627 211.615C202.999 200.805 190.676 206.406 190.676 206.406C190.676 206.406 167.265 197.314 141.093 203.147C137.948 203.844 135.214 209.398 133.642 217.016C133.502 217.712 133.61 218.434 133.945 219.058C134.281 219.683 134.823 220.172 135.48 220.44C163.005 231.801 197.703 223.015 197.703 223.015C197.703 223.015 235.156 215.709 197.67 225.112Z" fill="#AEE576"/>
<path d="M148.791 283.567C154.409 288.793 161.106 292.724 168.408 295.082C175.71 297.441 183.44 298.169 191.054 297.216C216.031 293.991 244.638 287.555 250.02 258.636C250.553 255.778 250.368 252.832 249.482 250.062C196.111 267.681 164.02 264.283 132.162 251.39C135.3 266.181 141.253 276.387 148.791 283.567Z" fill="#1F7A3D"/>
<path d="M249.031 250.209C249.078 250.355 249.111 250.508 249.157 250.66L249.628 250.514L249.031 250.209Z" fill="#051C4B"/>
<path d="M181.625 298.059C185.144 298.258 188.674 298.107 192.163 297.608C212.256 294.867 236.251 290.057 246.53 270.441C248.144 267.291 249.347 263.945 250.106 260.487C251.062 257.022 251.002 253.355 249.934 249.923C249.918 249.862 249.89 249.805 249.851 249.755C249.812 249.706 249.764 249.664 249.708 249.634C249.653 249.603 249.592 249.584 249.529 249.578C249.467 249.572 249.403 249.579 249.343 249.598C228.002 256.526 205.839 261.881 183.284 261.669C179.674 261.582 175.699 261.45 172.083 261.052C171.041 260.945 169.382 260.833 168.36 260.66L162.806 259.85C158.625 259.074 154.126 258.092 150.039 256.977C143.914 255.318 137.888 252.943 131.856 251.005C132.135 254.548 133.442 258.218 134.557 261.589C141.419 282.332 159.714 296.792 181.625 298.059ZM134.544 258.822C133.788 256.546 133.403 253.958 132.46 251.722C137.942 254.376 143.934 256.187 149.786 257.9C153.914 259.028 158.413 260.01 162.647 260.793L168.247 261.609C169.276 261.775 170.941 261.908 171.99 262.007C175.62 262.405 179.647 262.538 183.271 262.631C195.836 262.637 208.363 261.252 220.623 258.503C230.272 256.4 239.761 253.686 249.157 250.66C249.111 250.507 249.078 250.355 249.031 250.209L249.628 250.514L249.157 250.66C250.037 253.811 250.037 257.144 249.157 260.295C248.407 263.663 247.229 266.921 245.654 269.99C239.25 282.598 225.693 289.313 212.475 292.731C205.731 294.441 198.884 295.716 191.977 296.546C185.115 297.515 178.042 297.469 171.406 295.485C153.078 290.003 140.019 277.19 134.544 258.822Z" fill="#051C4B"/>
<path d="M249.821 349.892C267.386 345.114 263.033 329.832 260.558 316.195C256.616 294.483 246.768 268.869 246.768 268.869C246.768 268.869 242.621 262.08 228.268 268.132C217.186 272.811 211.015 281.238 204.717 288.166C198.168 295.352 191.041 297.217 191.041 297.217C191.041 297.217 204.943 315.764 214.611 334.377C225.468 355.234 239.157 352.798 249.821 349.892Z" fill="#6EB221"/>
<path d="M191.174 297.675L191.924 297.416C191.764 297.257 191.605 297.091 191.433 296.932L191.174 297.675Z" fill="#051C4B"/>
<path d="M213.988 334.842C219.396 345.273 227.923 353.601 240.531 352.354C252.887 350.841 263.756 347.416 263.484 332.871C263.278 325.425 261.38 318.272 260.027 310.973C256.761 296.585 252.516 282.438 247.319 268.63C243.537 263.666 235.972 264.801 230.809 266.579C219.528 270.269 212.023 278.955 204.545 287.595C200.879 291.799 196.178 294.971 190.908 296.799C190.837 296.822 190.772 296.862 190.72 296.915C190.667 296.968 190.627 297.033 190.605 297.104C190.582 297.175 190.577 297.251 190.589 297.325C190.601 297.399 190.631 297.469 190.676 297.529C191.479 299.191 192.434 300.774 193.529 302.26C201.038 312.672 207.871 323.555 213.988 334.842ZM191.207 297.681L191.466 296.938C191.638 297.097 191.798 297.263 191.957 297.422C197.109 295.53 201.714 292.394 205.361 288.292C210.982 282.014 216.317 275.412 223.649 271.138C229.622 267.668 240.856 263.102 246.251 269.147C251.387 282.87 255.992 296.872 259.138 311.192C260.465 318.338 262.276 325.605 262.455 332.891C262.628 346.826 252.13 349.699 240.411 351.079C228.401 352.174 220.504 344.099 215.434 334.105C210.279 324.301 204.537 314.817 198.241 305.704C196.25 302.877 194.465 299.878 191.963 297.429L191.207 297.681Z" fill="#051C4B"/>
<path d="M148.293 172.962C146.928 177.015 146.426 181.309 146.818 185.568C147.21 189.827 148.488 193.957 150.569 197.693C157.676 210.361 158.453 193.679 158.453 193.679C158.453 193.679 156.794 186.618 158.453 172.822C160.112 159.027 149.62 167.056 148.293 172.962Z" fill="#A51919"/>
<path d="M156.382 164.78C153.27 164.236 148.718 169.027 147.829 172.822C146.464 176.94 145.965 181.296 146.364 185.616C146.762 189.936 148.049 194.127 150.145 197.926C152.023 201.277 153.648 202.916 155.095 202.916C155.243 202.915 155.39 202.897 155.533 202.863C158.433 202.199 158.851 194.568 158.911 193.705C158.914 193.661 158.914 193.617 158.911 193.572C158.911 193.506 157.291 186.412 158.911 172.882C159.647 166.684 157.942 165.059 156.382 164.78ZM157.975 172.769C156.389 185.941 157.796 192.929 157.975 193.725C157.829 196.724 156.986 201.555 155.321 201.947C154.71 202.086 153.33 201.695 150.968 197.461C148.935 193.781 147.686 189.719 147.299 185.533C146.912 181.346 147.395 177.125 148.718 173.134V173.068C149.508 169.657 153.416 165.682 155.851 165.682C155.966 165.672 156.082 165.672 156.197 165.682C157.862 166.001 158.479 168.502 157.968 172.769H157.975Z" fill="#051C4B"/>
<path d="M156.701 190.48C156.608 187.62 156.701 185.424 156.236 182.922C155.327 178.138 150.483 177.846 149.189 181.88C149.189 181.88 147.47 186.897 151.273 192.79C154.378 197.627 156.92 197.806 156.701 190.48Z" fill="#E02A1F"/>
<path d="M164.591 310.588C164.591 310.588 179.541 302.711 182.421 297.648C182.421 297.648 148.4 296.746 135.772 263.746C133.018 271.709 128.811 276.56 123.635 284.981C119.149 292.28 114.517 311.696 114.146 325.539C113.82 337.556 114.292 344.119 124.205 344.716C161.107 346.932 158.439 340.622 164.591 310.588Z" fill="#6EB221"/>
<path d="M164.816 311.006L165.035 310.88V310.681L164.816 311.006Z" fill="#051C4B"/>
<path d="M124.849 345.465C129.72 345.79 134.577 346.043 139.448 345.897C145.911 345.684 153.655 344.828 157.729 339.062C159.72 336.308 160.782 333.09 161.651 329.845C163.203 323.607 164.325 317.271 165.009 310.88L164.79 311.006L165.029 310.68V310.88C168.227 309.154 171.353 307.31 174.385 305.299C177.444 303.156 180.742 301.078 182.826 297.88C182.866 297.809 182.887 297.729 182.887 297.648C182.887 297.566 182.866 297.486 182.826 297.416C182.786 297.345 182.728 297.285 182.658 297.244C182.589 297.202 182.509 297.179 182.428 297.177C167.351 296.513 152.242 289.214 143.177 276.991C140.921 273.929 139.032 270.613 137.55 267.11C136.979 265.842 136.614 264.456 135.752 263.274C134.763 264.602 134.285 266.526 133.509 268.032C130.144 275.398 124.411 281.476 121.18 288.908C117.536 297.96 115.532 307.582 114.278 317.23C113.615 323.726 113.077 330.216 113.973 336.746C114.915 342.857 119.016 345.279 124.849 345.465ZM124.146 284.98C127.895 278.742 132.56 272.983 135.34 266.188L135.573 265.617L135.679 265.345C135.774 264.977 135.807 264.596 135.778 264.217C135.763 264.72 135.879 265.219 136.117 265.663C136.906 267.409 137.809 269.107 138.771 270.773C146.303 284.23 159.893 293.527 174.836 296.878C177.055 297.405 179.304 297.788 181.572 298.026C181.724 297.827 181.884 297.628 182.03 297.409L182.421 298.119L181.572 298.026C179.581 300.68 176.588 302.631 173.881 304.516C170.815 306.546 167.623 308.424 164.385 310.17C164.321 310.198 164.266 310.242 164.224 310.297C164.182 310.353 164.155 310.419 164.146 310.488C163.184 313.6 162.454 316.759 161.777 319.918C160.377 325.983 159.714 332.731 156.183 337.907C152.408 343.156 145.453 343.84 139.415 344.191C134.617 344.41 129.76 344.258 124.949 344.025C119.64 343.959 116.077 342.035 115.154 336.534C113.064 322.764 117.291 297.09 124.146 284.98Z" fill="#051C4B"/>
<path d="M182.016 297.408C181.87 297.627 181.711 297.826 181.559 298.025L182.408 298.118L182.016 297.408Z" fill="#051C4B"/>
<path d="M131.286 254.695C133.648 263.042 149.508 267.21 162.925 268.079C183.052 269.406 211.884 266.088 230.006 257.793C247.923 249.625 227.279 244.25 227.279 244.25C227.279 244.25 195.533 256.699 161.2 253.54C129.189 250.594 130.244 238.244 130.244 238.244C130.244 238.244 126.508 237.78 131.286 254.695Z" fill="#FBC22E"/>
<path d="M130.191 238.682L129.773 238.171C129.78 238.466 129.804 238.761 129.846 239.053C129.94 238.911 130.056 238.786 130.191 238.682Z" fill="#051C4B"/>
<path d="M134.006 259.259C148.526 271.602 182.083 269.034 200.106 266.38C207.59 265.266 214.971 263.543 222.176 261.23C226.489 259.611 236.257 256.705 237.631 251.987C238.713 247.534 230.67 244.614 227.253 243.745C202.912 252.252 176.084 256.24 150.549 251.495C143.814 250.009 133.237 246.943 130.934 239.69C130.794 239.225 130.72 238.743 130.715 238.257C130.724 238.195 130.719 238.131 130.701 238.071C130.683 238.01 130.653 237.954 130.613 237.906C130.572 237.858 130.522 237.819 130.465 237.791C130.409 237.764 130.347 237.748 130.284 237.746C126.608 238.184 129.527 248.708 130.105 251.15C130.821 254.117 131.565 257.202 134.006 259.259ZM129.846 239.053C129.804 238.761 129.78 238.466 129.773 238.171L130.191 238.682C130.056 238.786 129.94 238.911 129.846 239.053C130.211 241.037 131.174 242.862 132.606 244.282C137.251 249.073 144.06 250.971 150.357 252.418C175.255 257.182 203.589 253.194 227.332 244.687C241.931 249.332 238.374 254.216 226.184 258.947C217.725 262.111 208.961 264.388 200.033 265.742C188.133 267.708 176.061 268.422 164.014 267.873C157.995 267.606 152.028 266.647 146.23 265.013C140.748 263.274 134.285 260.978 131.783 255.371C130.901 252.564 127.955 241.767 129.846 239.053Z" fill="#051C4B"/>
<path d="M150.682 269.957C154.345 271.238 162.374 272.12 166.608 271.948C170.032 271.815 172.613 269.798 173.018 266.52C173.387 262.779 173.387 259.012 173.018 255.272C172.856 253.975 172.299 252.76 171.423 251.79C170.547 250.821 169.394 250.143 168.121 249.85C162.889 248.654 157.558 247.943 152.195 247.727C150.635 247.646 149.101 248.16 147.905 249.165C146.708 250.17 145.936 251.591 145.745 253.142C145.287 255.989 145.447 261.675 145.745 264.522C146.024 267.303 148.001 269.048 150.682 269.957Z" fill="#CE921B"/>
<path d="M150.596 270.248C154.159 271.436 157.895 271.887 161.585 272.299C163.457 272.512 165.342 272.585 167.225 272.518C170.225 272.398 173.244 270.129 173.655 266.997C174.002 264.191 174.104 261.36 173.961 258.536C173.961 250.142 169.933 249.246 162.68 248.291C158.989 247.723 155.26 247.437 151.525 247.435C147.026 247.8 145.181 251.555 145.281 255.663C145.191 258.452 145.257 261.243 145.48 264.024C145.48 267.017 147.889 269.386 150.596 270.248ZM146.044 252.962C146.281 251.642 146.962 250.442 147.975 249.562C148.987 248.682 150.271 248.175 151.611 248.125C155.285 248.256 158.944 248.653 162.56 249.313C166.827 250.102 172.083 250.46 172.474 255.862C172.692 258.595 172.727 261.339 172.58 264.077C172.633 267.946 171.346 270.839 167.152 271.377C161.651 271.686 156.136 271.128 150.808 269.724C146.303 268.165 145.798 265.557 145.752 261.224C145.567 258.467 145.664 255.699 146.044 252.962Z" fill="#051C4B"/>
<path d="M150.072 282C157.869 289.14 179.329 298.589 190.265 294.813C202.05 290.726 208.991 280.401 210.537 273.134C211.26 269.724 209.011 266.333 205.447 267.049C195.184 269.17 184.739 270.282 174.259 270.367C173.678 271.537 172.789 272.525 171.687 273.227C170.586 273.928 169.314 274.316 168.008 274.349C163.741 274.515 154.431 273.652 150.755 272.358C148.267 271.489 144.969 268.994 144.484 266.585C142.003 265.89 139.634 264.842 137.45 263.473C140.207 270.521 144.522 276.854 150.072 282Z" fill="#299946"/>
<path d="M150.284 269.147C153.323 270.315 159.972 271.138 163.503 270.979C164.855 270.981 166.157 270.468 167.144 269.543C168.13 268.618 168.727 267.352 168.811 266.002C169.116 262.571 169.116 259.12 168.811 255.69C168.715 254.548 168.276 253.463 167.551 252.575C166.826 251.688 165.85 251.041 164.75 250.72C160.421 249.625 155.992 248.973 151.532 248.775C148.678 248.722 146.628 250.733 146.19 253.739C145.805 256.347 145.944 261.563 146.19 264.17C146.435 266.778 148.048 268.291 150.284 269.147Z" fill="#FBC22E"/>
<path d="M189.86 266.42C197.484 265.637 210.723 264.011 218.049 261.569C228.766 257.999 214.333 250.998 214.333 250.998L200.338 253.486L182.348 255.291C181.86 255.339 181.391 255.508 180.984 255.782C180.577 256.055 180.244 256.426 180.015 256.86C179.786 257.294 179.669 257.778 179.673 258.268C179.677 258.759 179.803 259.241 180.039 259.671L181.247 261.881C182.075 263.402 183.335 264.645 184.867 265.452C186.4 266.26 188.137 266.596 189.86 266.42Z" fill="#DDA21F"/>
<path d="M220.623 209.425C220.623 209.425 199.621 205.788 197.08 209.498C194.538 213.207 193.138 250.52 193.138 250.52L221.951 248.012L237.359 224.614L220.623 209.425Z" fill="#BA1E1A"/>
<path d="M193.165 250.992L221.964 248.484C222.034 248.476 222.103 248.453 222.163 248.417C222.224 248.38 222.276 248.33 222.316 248.271L237.724 224.873C237.785 224.779 237.81 224.665 237.795 224.554C237.781 224.442 237.727 224.339 237.644 224.263L220.929 209.074C220.862 209.013 220.779 208.973 220.69 208.961C218.513 208.583 199.316 205.384 196.675 209.226C194.034 213.068 192.693 248.975 192.654 250.501C192.65 250.568 192.661 250.634 192.686 250.696C192.711 250.758 192.75 250.814 192.8 250.859C192.887 250.944 193.003 250.991 193.125 250.992H193.165ZM197.458 209.764C198.188 208.695 200.915 208.297 204.452 208.297C209.793 208.411 215.117 208.935 220.378 209.863L236.689 224.688L221.632 247.561L193.596 250.003C194.034 239.28 195.467 212.664 197.458 209.764Z" fill="#051C4B"/>
<path d="M222.614 213.473L201.957 208.788C201.957 208.788 199.017 209.717 198.254 214.76C197.491 219.803 195.474 250.295 195.474 250.295L199.674 252.425L220.245 250.156L222.614 213.473Z" fill="#F1EEE6"/>
<path d="M220.212 249.711L219.82 249.751L219.794 250.149L220.212 249.711Z" fill="#051C4B"/>
<path d="M201.99 209.259H202.037H202.071C202.152 209.225 202.044 209.265 201.99 209.259Z" fill="#051C4B"/>
<path d="M222.163 213.446L222.136 213.844L222.528 213.937L222.163 213.446Z" fill="#051C4B"/>
<path d="M199.475 252.87C199.557 252.912 199.649 252.928 199.741 252.917L220.312 250.647C220.422 250.635 220.524 250.584 220.6 250.504C220.677 250.424 220.722 250.32 220.73 250.209L223.099 213.507C223.106 213.395 223.074 213.284 223.007 213.194C222.94 213.104 222.843 213.041 222.734 213.016L201.95 208.317C201.837 208.337 201.728 208.372 201.625 208.424C198.175 210.295 197.916 214.661 197.644 218.132C197.352 221.711 197.077 225.285 196.821 228.855L195.965 239.565C195.666 243.142 195.361 246.712 194.996 250.275C194.988 250.369 195.008 250.463 195.054 250.545C195.101 250.626 195.17 250.692 195.255 250.733L199.475 252.87ZM196.463 239.598C196.887 232.445 197.385 225.292 198.121 218.172C198.453 215.564 198.553 212.797 200.232 210.693C200.696 210.066 201.319 209.574 202.037 209.266H201.99C202.037 209.266 202.149 209.266 202.07 209.266H202.037L222.13 213.838V213.44L222.495 213.931L222.103 213.838L219.787 249.745L220.185 249.698L219.761 250.143V249.745L199.721 251.954L199.847 252.021L199.581 251.974H199.721L195.971 250.05C195.971 250.156 195.971 250.262 195.971 250.368L195.713 249.911L195.985 250.05C196.071 246.553 196.263 243.076 196.463 239.605V239.598Z" fill="#051C4B"/>
<path d="M199.9 252.04L199.774 251.974H199.634L199.9 252.04Z" fill="#051C4B"/>
<path d="M195.958 250.348C195.958 250.242 195.958 250.136 195.958 250.03L195.686 249.891L195.958 250.348Z" fill="#051C4B"/>
<path d="M219.011 252.04L237.326 224.601L220.623 209.425C197.949 205.351 197.08 209.498 197.08 209.498C200.132 208.516 204.611 210.513 204.644 212.657C204.93 230.985 199.336 254.044 199.336 254.044C205.202 253.633 219.011 252.04 219.011 252.04Z" fill="#E02A1F"/>
<path d="M198.958 254.35C199.003 254.402 199.059 254.444 199.122 254.473C199.185 254.501 199.253 254.516 199.323 254.516C205.149 254.105 218.898 252.525 219.037 252.525C219.105 252.515 219.169 252.492 219.227 252.457C219.286 252.421 219.336 252.375 219.376 252.32L237.691 224.874C237.754 224.78 237.781 224.667 237.767 224.555C237.754 224.443 237.701 224.34 237.618 224.263L220.902 209.074C220.837 209.015 220.757 208.975 220.67 208.961C198.194 204.927 196.675 208.928 196.575 209.399C196.558 209.48 196.563 209.565 196.589 209.644C196.615 209.722 196.661 209.793 196.723 209.848C196.785 209.904 196.86 209.941 196.942 209.958C197.023 209.975 197.107 209.97 197.186 209.943C198.17 209.704 199.193 209.675 200.189 209.858C201.185 210.041 202.131 210.432 202.966 211.005C203.272 211.177 203.536 211.415 203.738 211.702C203.94 211.989 204.075 212.318 204.133 212.664C204.412 230.72 198.891 253.706 198.825 253.932C198.814 254.007 198.82 254.084 198.843 254.156C198.866 254.229 198.905 254.295 198.958 254.35ZM205.102 212.651C205.048 212.156 204.879 211.68 204.608 211.262C204.337 210.844 203.972 210.494 203.543 210.242C202.173 209.306 200.557 208.793 198.898 208.769C201.081 208.019 206.609 207.402 220.378 209.864L236.689 224.688L218.719 251.61C217 251.802 205.58 253.089 199.906 253.527C200.809 249.692 205.361 229.141 205.102 212.651Z" fill="#051C4B"/>
<path d="M231.241 217.169C231.241 217.169 213.158 214.044 210.968 217.229C208.779 220.414 207.571 252.558 207.571 252.558L232.369 250.395L245.64 230.249L231.241 217.169Z" fill="#1664C1"/>
<path d="M207.604 253.022L232.395 250.865C232.466 250.859 232.535 250.837 232.596 250.8C232.657 250.763 232.709 250.713 232.747 250.653L246.019 230.506C246.082 230.413 246.109 230.3 246.095 230.188C246.082 230.076 246.029 229.972 245.946 229.896L231.553 216.817C231.485 216.757 231.402 216.718 231.314 216.704C229.436 216.379 212.866 213.618 210.57 216.963C208.274 220.307 207.146 251.217 207.093 252.537C207.091 252.604 207.104 252.67 207.129 252.732C207.154 252.793 207.191 252.849 207.239 252.896C207.326 252.98 207.443 253.028 207.564 253.028L207.604 253.022ZM211.333 217.533C211.944 216.644 214.273 216.313 217.306 216.313C221.905 216.403 226.49 216.847 231.022 217.64L245.017 230.354L232.097 249.969L208.055 252.04C208.414 242.749 209.641 219.975 211.333 217.533Z" fill="#051C4B"/>
<path d="M232.966 220.659L215.175 216.618C215.175 216.618 212.66 217.421 211.997 221.781C211.333 226.141 209.608 252.378 209.608 252.378L213.225 254.217L230.935 252.259L232.966 220.659Z" fill="#F1EEE6"/>
<path d="M232.495 220.626V221.031L232.886 221.117L232.495 220.626Z" fill="#051C4B"/>
<path d="M230.876 251.789L230.478 251.836V252.234L230.876 251.789Z" fill="#051C4B"/>
<path d="M213.431 253.791L213.304 253.731L213.158 253.745L213.431 253.791Z" fill="#051C4B"/>
<path d="M210.066 252.412C210.066 252.306 210.066 252.2 210.066 252.093L209.794 251.954L210.066 252.412Z" fill="#051C4B"/>
<path d="M212.999 254.635C213.08 254.678 213.173 254.694 213.264 254.682L230.975 252.704C231.085 252.692 231.187 252.641 231.264 252.561C231.34 252.481 231.386 252.377 231.393 252.266L233.437 220.66C233.443 220.547 233.409 220.436 233.341 220.347C233.273 220.257 233.175 220.194 233.066 220.169L215.149 216.121C215.043 216.138 214.94 216.172 214.844 216.221C211.844 217.826 211.612 221.669 211.393 224.635L210.696 233.865C210.265 239.273 209.661 247.004 209.117 252.313C209.108 252.406 209.128 252.501 209.174 252.582C209.22 252.664 209.291 252.73 209.376 252.771L212.999 254.635ZM210.491 243.162C210.856 237.004 211.287 230.846 211.924 224.714C212.249 222.027 212.395 218.828 214.903 217.262C215.012 217.2 215.125 217.147 215.242 217.103H215.195H215.308H215.242L232.495 221.032V220.627L232.86 221.118L232.468 221.032C232.415 221.801 230.531 251.072 230.478 251.835L230.876 251.788L230.451 252.233V251.835L213.324 253.733L213.45 253.792L213.185 253.746H213.324L210.106 252.107C210.106 252.213 210.106 252.319 210.106 252.425L209.847 251.968L210.119 252.107C210.172 249.114 210.325 246.135 210.491 243.162Z" fill="#051C4B"/>
<path d="M229.847 253.877L245.62 230.247L231.241 217.168C211.718 213.664 210.968 217.228 210.968 217.228C213.623 216.385 217.452 218.11 217.478 219.955C217.724 235.728 212.906 255.589 212.906 255.589C217.969 255.231 229.847 253.877 229.847 253.877Z" fill="#2F78FC"/>
<path d="M212.534 255.896C212.578 255.948 212.633 255.99 212.695 256.019C212.757 256.048 212.824 256.062 212.893 256.061C217.909 255.71 229.748 254.356 229.867 254.343C229.935 254.336 230.001 254.315 230.06 254.279C230.119 254.243 230.168 254.195 230.205 254.137L245.979 230.507C246.042 230.413 246.069 230.3 246.056 230.188C246.042 230.076 245.989 229.973 245.906 229.897L231.513 216.817C231.446 216.756 231.363 216.717 231.274 216.705C212.262 213.294 210.597 216.466 210.457 217.136C210.441 217.216 210.446 217.3 210.471 217.378C210.497 217.456 210.542 217.526 210.603 217.581C210.665 217.636 210.739 217.674 210.819 217.691C210.899 217.709 210.983 217.705 211.061 217.68C211.899 217.477 212.771 217.452 213.619 217.607C214.468 217.763 215.274 218.095 215.985 218.583C216.239 218.727 216.458 218.925 216.626 219.164C216.795 219.403 216.909 219.675 216.96 219.963C217.199 235.497 212.448 255.278 212.402 255.477C212.389 255.553 212.394 255.63 212.417 255.703C212.44 255.775 212.48 255.842 212.534 255.896ZM217.969 219.95C217.923 219.512 217.776 219.092 217.539 218.722C217.301 218.352 216.981 218.043 216.602 217.819C215.527 217.087 214.277 216.652 212.979 216.559C215.083 215.995 219.953 215.63 231.042 217.607L245.036 230.321L229.575 253.434C228.009 253.613 218.381 254.694 213.497 255.073C214.306 251.556 218.155 234.037 217.969 219.95Z" fill="#051C4B"/>
<path d="M238.839 222.08C238.839 222.08 222.249 220.049 221.28 221.575C220.312 223.101 218.374 239.638 214.346 255.497L229.847 253.878L245.62 230.248L238.839 222.08Z" fill="#1664C1"/>
<path d="M229.582 241.921C226.735 251.529 221.068 254.761 221.068 254.761L213.211 255.425C213.211 255.425 209.489 258.742 218.885 262.432C228.281 266.121 238.394 264.297 248.746 256.838C261.905 247.375 264.579 235.942 264.154 226.313C263.729 216.685 257.817 201.409 240.617 187.998C230.378 180.035 217.81 177.202 213.278 182.756C209.243 187.7 210.106 202.219 222.037 213.228C228.009 218.729 231.367 222.81 233.245 225.537C233.974 226.605 234.384 227.86 234.425 229.153C234.466 230.446 234.137 231.724 233.477 232.836C231.815 235.696 230.508 238.746 229.582 241.921Z" fill="#6EB221"/>
<path d="M213.251 255.897H213.457L213.53 255.797L213.251 255.897Z" fill="#051C4B"/>
<path d="M221.029 254.297H220.896L220.836 254.35L221.029 254.297Z" fill="#051C4B"/>
<path d="M228.931 241.662C228.028 244.973 226.508 248.084 224.452 250.833C223.444 252.158 222.245 253.328 220.895 254.303H221.028L220.836 254.363L220.895 254.31L213.171 254.973C213.07 254.978 212.974 255.018 212.899 255.086C212.55 255.423 212.294 255.844 212.155 256.31C212.017 256.775 212.001 257.268 212.11 257.741C213.238 261.337 219.217 263.082 222.495 263.972C230.517 265.889 238.945 263.474 245.766 259.134C257.313 252.16 264.957 241.038 264.347 227.223C263.736 212.498 254.393 199.591 243.583 190.235C239.965 186.996 235.877 184.322 231.46 182.305C226.038 180.002 217.697 177.6 213.132 182.657C209.15 188.012 210.895 197.494 213.589 203.168C215.527 207.219 218.232 210.856 221.552 213.878C224.781 216.793 227.797 219.935 230.577 223.281C232.714 225.822 234.718 228.55 233.145 231.907C231.362 234.982 229.948 238.256 228.931 241.662ZM231.798 222.272C228.513 218.138 224.565 214.581 220.816 210.879C216.171 205.882 212.495 199.677 211.612 192.809C211.187 189.492 211.353 185.669 213.43 182.889C217.85 178.005 226.038 180.387 231.347 182.624C235.734 184.626 239.795 187.28 243.391 190.494C254.108 199.784 263.491 212.591 264.021 227.229C264.519 239.359 258.348 249.917 248.507 256.705C241.765 261.53 233.411 264.927 225.016 263.646C222.269 263.434 210.517 259.884 213.463 255.883H213.258L213.536 255.77L213.463 255.869L221.128 255.206C225.879 252.366 228.62 247.143 230.272 242.034C231.312 238.718 232.738 235.535 234.519 232.551C236.39 228.51 234.413 225.351 231.798 222.272Z" fill="#051C4B"/>
<path d="M250.77 340.429C263.225 333.574 256.915 308.942 253.597 296.719C251.911 290.501 247.624 276.148 241.042 272.472C231.387 267.117 216.755 270.972 212.123 294.954C207.611 318.325 235.886 348.631 250.77 340.429Z" fill="#82D12F"/>
<path d="M151.187 317.011C164.093 293.699 145.453 283.128 145.453 283.128C128.864 274.21 121.213 292.837 119.176 300.76C116.621 310.713 112.062 337.137 124.823 340.767C136.833 344.178 141.903 333.799 151.187 317.011Z" fill="#82D12F"/>
<path d="M229.953 261.596C236.131 263.188 259.151 254.562 261.958 231.927C264.95 207.813 239.144 190.122 239.144 190.122C239.144 190.122 226.217 179.677 219.018 183.844C211.818 188.012 222.448 208.556 239.197 224.25C242.515 227.362 236.961 233.115 235.428 242.83C233.603 254.369 223.775 260.003 229.953 261.596Z" fill="#82D12F"/>
<path d="M127.517 197.102C133.429 199.756 139.182 186.81 137.331 183.432C135.48 180.055 131.91 179.557 123.615 172.151C111.153 161.016 102.208 154.56 102.871 160.273C105.088 179.318 121.604 194.461 127.517 197.102Z" fill="#82D12F"/>
<path d="M164.385 251.695C160.268 250.651 156.054 250.03 151.81 249.844C149.096 249.797 147.165 251.708 146.727 254.568C146.59 255.669 146.517 256.777 146.508 257.886C152.009 252.843 159.986 252.153 166.084 252.578C165.574 252.185 164.999 251.886 164.385 251.695Z" fill="#FDDA80"/>
<path d="M133.33 169.703C133.33 169.703 137.676 176.14 154.498 175.138C157.451 174.965 159.528 175.802 162.149 179.464C166.13 185.052 177.298 189.491 190.683 185.052C203.131 180.924 201.964 167.135 223.198 163.817C249.562 159.75 272.157 132.914 257.439 97.6917C252.475 85.8203 243.583 62.6813 209.854 47.691C204.903 41.6193 193.038 36.5097 181.32 44.7447C178.898 44.904 176.403 45.1429 173.808 45.488C160.025 47.3327 149.11 52.1237 140.47 58.5472C137.212 56.5564 130.39 53.577 123.217 57.8371C114.444 63.0661 114.59 78.1825 116.853 89.0585C113.975 95.4563 111.806 102.15 110.383 109.019C100.516 120.705 90.7412 159.464 133.33 169.703Z" fill="#82D12F"/>
<path d="M103.09 146.1C106.966 157.998 117.324 166.299 133.058 170.121C133.86 171.143 138.877 176.545 154.524 175.609C157.179 175.45 159.123 176.06 161.764 179.743C164.836 184.017 171.605 187.308 179.953 187.308C183.658 187.291 187.337 186.68 190.849 185.497C196.071 183.758 198.964 180.374 202.043 176.77C206.443 171.581 210.988 166.213 223.318 164.308C237.565 162.112 250.159 153.505 257.007 141.289C264.101 128.634 264.42 113.1 257.917 97.5392L257.518 96.577C252.488 84.4932 243.132 62.0112 210.192 47.3328C205.408 41.5929 193.417 35.7799 181.167 44.3401C178.632 44.5126 176.203 44.7515 173.748 45.0766C161.047 46.7754 149.859 51.1351 140.45 58.043C136.886 55.9262 130.125 53.2519 123.011 57.4922C114.384 62.6283 113.933 77.1408 116.375 89.0653C113.532 95.4128 111.385 102.05 109.972 108.86C104.258 115.628 98.3723 131.607 103.09 146.1ZM110.881 109.139C112.29 102.302 114.449 95.6413 117.317 89.2776C117.347 89.1849 117.347 89.085 117.317 88.9923C114.895 77.3531 115.24 63.1724 123.469 58.2686C130.344 54.1743 136.9 56.9414 140.198 58.9786C140.276 59.032 140.368 59.0605 140.463 59.0605C140.558 59.0605 140.65 59.032 140.729 58.9786C150.019 52.0641 161.193 47.6978 173.848 46.0057C176.323 45.6805 178.771 45.435 181.333 45.2691C181.418 45.2606 181.501 45.231 181.572 45.1828C193.41 36.8682 204.97 42.5285 209.475 48.0428C209.524 48.0977 209.582 48.1428 209.648 48.1756C242.322 62.7013 251.606 84.9909 256.589 96.9685L256.987 97.9241C265.176 117.526 261.042 132.085 256.125 140.851C249.416 152.795 237.074 161.249 223.112 163.413C210.437 165.364 205.56 171.117 201.26 176.193C198.307 179.684 195.514 182.982 190.53 184.634C177.869 188.828 166.641 184.979 162.507 179.226C160.165 175.968 158.108 174.68 155.122 174.68H154.458C138.18 175.642 133.754 169.511 133.715 169.451C133.65 169.354 133.55 169.285 133.436 169.259C117.948 165.536 107.762 157.427 103.98 145.821C99.3345 131.607 105.167 115.96 110.775 109.364C110.829 109.3 110.866 109.222 110.881 109.139Z" fill="#051C4B"/>
<path d="M134.59 167.175C135.334 167.911 136.165 168.553 137.066 169.086L212.335 152.789C212.335 152.789 200.258 172.968 160.895 174.879C162.397 175.177 163.724 176.051 164.591 177.315C168.519 182.676 174.856 189.405 187.816 185.112C199.867 181.13 198.433 167.978 218.772 163.658C245.806 157.912 267.658 124.301 250.119 96.1722C250.119 96.1722 242.628 63.6568 210.968 50.0136C206.171 44.1476 189.993 40.3851 178.771 49.5757C176.429 49.7349 174.014 49.9605 171.472 50.299C158.141 52.0774 147.583 56.7224 139.216 62.907C136.064 60.976 129.468 58.1027 122.546 62.2434C114.059 67.2932 117.616 85.2696 118.525 92.5225C115.333 99.7289 113.555 105.595 110.131 111.687C100.516 122.948 93.3756 157.288 134.59 167.175Z" fill="#6EB221"/>
<path d="M193.609 93.6499C203.665 93.6499 211.818 84.9777 211.818 74.28C211.818 63.5823 203.665 54.9102 193.609 54.9102C183.553 54.9102 175.401 63.5823 175.401 74.28C175.401 84.9777 183.553 93.6499 193.609 93.6499Z" fill="#F1EEE6"/>
<path d="M212.282 74.2814C212.282 63.339 203.908 54.4404 193.602 54.4404C183.297 54.4404 174.923 63.339 174.923 74.2814C174.923 85.2238 183.304 94.1092 193.602 94.1092C203.901 94.1092 212.282 85.2172 212.282 74.2814ZM175.865 74.2814C175.865 63.8566 183.828 55.3827 193.602 55.3827C203.377 55.3827 211.333 63.8566 211.333 74.2814C211.333 84.7063 203.37 93.1802 193.596 93.1802C183.821 93.1802 175.865 84.6996 175.865 74.2814Z" fill="#051C4B"/>
<path d="M195.985 94.5993C204.729 94.5993 211.818 86.9432 211.818 77.4989C211.818 68.0546 204.729 60.3984 195.985 60.3984C187.24 60.3984 180.152 68.0546 180.152 77.4989C180.152 86.9432 187.24 94.5993 195.985 94.5993Z" fill="#222222"/>
<path d="M205.401 88.0635C207.1 82.5492 203.503 76.5438 197.372 74.6526C191.24 72.7614 184.883 75.701 183.184 81.2154C181.486 86.7297 185.075 92.7285 191.214 94.6197C197.352 96.5109 203.702 93.5778 205.401 88.0635Z" fill="#2B3322"/>
<path d="M207.896 70.8837C207.897 70.1222 207.673 69.3774 207.251 68.7437C206.828 68.1099 206.228 67.6155 205.525 67.3232C204.822 67.0309 204.047 66.9537 203.3 67.1015C202.553 67.2492 201.867 67.6153 201.328 68.1532C200.789 68.6912 200.422 69.377 200.273 70.1238C200.124 70.8705 200.2 71.6447 200.491 72.3484C200.782 73.052 201.275 73.6535 201.908 74.0767C202.541 74.4999 203.286 74.7258 204.047 74.7258C205.067 74.7258 206.045 74.3213 206.766 73.6009C207.488 72.8806 207.894 71.9033 207.896 70.8837Z" fill="white"/>
<path d="M132.945 97.7178C140.395 97.7178 146.435 90.543 146.435 81.6924C146.435 72.8418 140.395 65.667 132.945 65.667C125.494 65.667 119.454 72.8418 119.454 81.6924C119.454 90.543 125.494 97.7178 132.945 97.7178Z" fill="#F1EEE6"/>
<path d="M146.906 81.6929C146.906 72.5952 140.642 65.1963 132.971 65.1963C125.3 65.1963 119.003 72.5952 119.003 81.6929C119.003 90.7905 125.267 98.1894 132.971 98.1894C140.675 98.1894 146.906 90.7905 146.906 81.6929ZM119.925 81.6929C119.925 73.1194 125.765 66.1386 132.945 66.1386C140.125 66.1386 145.964 73.1194 145.964 81.6929C145.964 90.2663 140.118 97.2471 132.945 97.2471C125.771 97.2471 119.925 90.2663 119.925 81.6929Z" fill="#051C4B"/>
<path d="M134.896 98.5018C141.269 98.5018 146.435 92.5718 146.435 85.2567C146.435 77.9417 141.269 72.0117 134.896 72.0117C128.523 72.0117 123.356 77.9417 123.356 85.2567C123.356 92.5718 128.523 98.5018 134.896 98.5018Z" fill="#222222"/>
<path d="M138.539 98.7067C143.94 97.1075 147.351 92.5686 146.163 88.5606C144.975 84.5526 139.647 82.5884 134.219 84.2009C128.791 85.8134 125.407 90.339 126.594 94.347C127.782 98.355 133.144 100.306 138.539 98.7067Z" fill="#2B3322"/>
<path d="M139.189 82.2778C140.732 82.2778 141.983 81.027 141.983 79.4841C141.983 77.9412 140.732 76.6904 139.189 76.6904C137.646 76.6904 136.395 77.9412 136.395 79.4841C136.395 81.027 137.646 82.2778 139.189 82.2778Z" fill="white"/>
<path opacity="0.4" d="M179.515 48.4609C179.515 48.4609 174.657 52.5486 174.943 52.5486C175.228 52.5486 221.599 77.466 221.599 77.466V62.6084L179.515 48.4609Z" fill="#D7F4FF"/>
<path opacity="0.4" d="M194.452 42.7607C194.452 42.7607 182.614 46.9944 182.892 46.9944C183.171 46.9944 219.203 57.2666 219.203 57.2666L212.939 48.4675L194.452 42.7607Z" fill="#D7F4FF"/>
<path opacity="0.4" d="M144.511 59.0185L126.024 53.3184C126.024 53.3184 114.902 58.3881 115.187 58.3881C115.473 58.3881 149.03 67.1672 149.03 67.1672L144.511 59.0185Z" fill="#D7F4FF"/>
<path opacity="0.4" d="M149.017 71.0094L114.013 59.2441C114.013 59.2441 109.972 62.6417 110.211 62.6417C110.449 62.6417 149.017 83.3719 149.017 83.3719V71.0094Z" fill="#D7F4FF"/>
<path d="M168.559 85.6343C168.559 85.6343 165.115 81.1551 164.325 77.5785C160.745 77.2856 157.142 77.5906 153.662 78.4809C153.662 78.4809 154.179 83.5772 151.671 87.8905C151.658 87.8905 160.105 86.5633 168.559 85.6343Z" fill="#905F16"/>
<path d="M151.266 88.1356C151.31 88.1989 151.369 88.2507 151.437 88.2865C151.505 88.3223 151.581 88.3411 151.658 88.3413H151.731C151.81 88.3413 160.264 87.0142 168.605 86.0918C168.689 86.083 168.769 86.0519 168.837 86.0017C168.905 85.9515 168.958 85.8841 168.99 85.8065C169.024 85.7298 169.036 85.6456 169.025 85.5627C169.015 85.4798 168.982 85.4012 168.931 85.3353C168.931 85.2889 165.546 80.896 164.79 77.4586C164.768 77.3624 164.717 77.2754 164.643 77.2099C164.569 77.1444 164.477 77.1038 164.378 77.0937C160.74 76.7906 157.077 77.1024 153.542 78.0161C153.434 78.0439 153.339 78.1092 153.275 78.2004C153.211 78.2915 153.181 78.4026 153.191 78.5137C153.191 78.5668 153.662 83.5171 151.246 87.6379C151.202 87.7142 151.18 87.8015 151.184 87.8897C151.187 87.9778 151.216 88.0631 151.266 88.1356ZM154.159 78.8455C157.362 78.0793 160.662 77.8019 163.947 78.0227C164.664 80.7964 166.741 83.9219 167.69 85.2623C161.226 85.9923 154.856 86.9279 152.52 87.2531C153.74 84.6249 154.303 81.7395 154.159 78.8455Z" fill="#051C4B"/>
<path d="M261.327 109.961C264.021 108.488 260.166 97.9042 258.063 94.5996C250.677 82.9936 226.841 80.0605 226.841 80.0605C225.675 84.0638 223.883 87.8576 221.533 91.3016C246.994 88.8928 261.327 109.961 261.327 109.961Z" fill="#905F16"/>
<path d="M261.102 109.551L261.719 109.697C261.613 109.551 261.5 109.411 261.394 109.259C261.319 109.377 261.219 109.476 261.102 109.551Z" fill="#051C4B"/>
<path d="M226.874 80.5387H226.974H227.087C227.087 80.4988 227.087 80.4589 227.087 80.4189C227.021 80.5586 226.761 80.532 226.874 80.5387Z" fill="#051C4B"/>
<path d="M221.951 91.5735C222.183 91.235 222.408 90.9099 222.614 90.5449C222.243 90.6246 221.878 90.7175 221.513 90.8303L221.951 91.5735Z" fill="#051C4B"/>
<path d="M227.259 92.0645C229.131 92.1307 230.996 92.3303 232.84 92.6617C243.961 94.6989 254.001 101.421 260.962 110.227C260.992 110.278 261.031 110.324 261.079 110.36C261.126 110.395 261.18 110.421 261.238 110.436C261.296 110.45 261.356 110.452 261.415 110.443C261.473 110.433 261.529 110.411 261.579 110.379C263.537 109.012 262.568 105.655 262.197 103.744C261.195 100.047 259.94 96.338 257.671 93.2192C253.198 87.5854 246.257 84.6391 239.608 82.4825C235.593 81.2297 231.486 80.2912 227.326 79.6755H227.12H227.02C226.875 79.6545 226.727 79.6776 226.596 79.7419C226.342 80.3084 226.12 80.8888 225.932 81.4804C224.789 84.8901 223.182 88.1257 221.154 91.0957C221.11 91.1591 221.082 91.2327 221.073 91.3098C221.064 91.3868 221.074 91.4649 221.103 91.5368C221.133 91.6087 221.179 91.6722 221.239 91.7215C221.299 91.7708 221.37 91.8043 221.446 91.819C223.417 92.1176 225.322 91.9716 227.259 92.0645ZM226.854 81.6994C226.988 81.3361 227.072 80.9568 227.107 80.5713H226.994H226.894C226.781 80.5713 227.04 80.5713 227.12 80.4851C227.12 80.5249 227.12 80.5647 227.12 80.6045H227.206L227.604 80.6642C235.733 81.9914 243.975 84.221 251.022 88.5741C254.619 90.8303 257.691 93.8827 259.23 97.9173C260.558 101.275 262.084 104.911 261.719 108.535C261.679 108.795 261.579 109.043 261.427 109.258C261.533 109.41 261.646 109.55 261.752 109.696L261.135 109.55C261.253 109.475 261.352 109.376 261.427 109.258C254.685 99.9677 244.499 93.0533 233.172 90.9165C229.714 90.3857 226.098 89.7951 222.634 90.5449C222.415 90.89 222.189 91.2085 221.97 91.5735L221.546 90.8303C221.911 90.7175 222.276 90.6246 222.647 90.5449C224.402 87.7803 225.809 84.8093 226.834 81.6994H226.854Z" fill="#051C4B"/>
<path d="M227.757 72.475C227.757 55.0096 213.457 40.8555 195.825 40.8555C178.194 40.8555 163.887 55.0096 163.887 72.475C163.887 89.9404 178.188 104.061 195.825 104.061C213.463 104.061 227.757 89.9337 227.757 72.475ZM168.957 72.037C168.957 57.6573 180.377 45.9982 194.452 45.9982C208.526 45.9982 219.96 57.6573 219.96 72.037C219.96 86.4168 208.533 98.0891 194.452 98.0891C180.371 98.0891 168.957 86.4168 168.957 72.037Z" fill="#905F16"/>
<path d="M208.274 102.397C220.219 97.6525 228.52 85.3298 228.288 72.4763C228.102 49.6492 204.571 34.44 183.569 43.0134C171.791 47.6585 163.463 59.7356 163.536 72.4564C163.35 95.5158 187.02 111.249 208.274 102.397ZM164.219 72.4763C164.02 59.9878 172.103 48.0234 183.715 43.458C204.24 34.9907 227.385 50.0938 227.193 72.4763C227.233 84.8255 219.13 96.5045 207.677 101.01C187.517 109.252 164.352 94.5403 164.219 72.4763Z" fill="#051C4B"/>
<path d="M220.484 72.0382C220.677 61.6134 214.273 51.381 204.598 47.3266C187.06 39.7551 168.38 53.3386 168.605 72.0382C168.572 82.3237 175.009 92.284 184.531 96.2721C201.778 103.585 220.338 90.5189 220.484 72.0382ZM169.316 72.0382C169.355 54.3539 187.597 41.7459 204.007 48.7068C224.379 57.5324 224.532 86.7962 204.187 95.8209C187.365 103.08 169.136 90.1274 169.316 72.0382Z" fill="#051C4B"/>
<path d="M117.251 102.37C117.251 102.37 115.506 96.3974 110.363 97.3463C107.669 97.844 106.946 107.838 111.485 108.262C111.485 108.262 111.883 105.754 117.251 102.37Z" fill="#905F16"/>
<path d="M111.438 108.706H111.485C111.595 108.705 111.702 108.665 111.787 108.594C111.872 108.522 111.929 108.424 111.949 108.315C111.949 108.315 112.447 105.926 117.503 102.747C117.59 102.691 117.656 102.609 117.692 102.512C117.728 102.415 117.732 102.309 117.702 102.21C117.702 102.15 115.765 95.8394 110.277 96.8547C108.532 97.1798 107.623 100.292 107.749 103.119C107.895 106.39 109.308 108.534 111.438 108.706ZM110.449 97.7837C114.491 97.0538 116.249 100.949 116.687 102.143C112.706 104.711 111.511 106.788 111.159 107.698C109.481 107.273 108.784 105.083 108.691 103.053C108.578 100.524 109.414 98.0027 110.469 97.8102L110.449 97.7837Z" fill="#051C4B"/>
<path d="M154.086 78.7801C154.086 64.2875 142.613 52.5488 128.459 52.5488C114.305 52.5488 102.838 64.2875 102.838 78.7801C102.838 93.2726 114.305 105.011 128.459 105.011C142.613 105.011 154.086 93.266 154.086 78.7801ZM107.948 78.7801C107.948 67.1542 116.687 57.7314 127.464 57.7314C138.24 57.7314 146.966 67.1741 146.966 78.8C146.966 90.4259 138.227 99.8421 127.444 99.8421C116.661 99.8421 107.948 90.4193 107.948 78.8V78.7801Z" fill="#905F16"/>
<path d="M138.638 103.597C148.34 99.5155 154.75 89.2367 154.564 78.7787C154.451 60.1985 135.811 46.9601 118.426 54.3391C108.844 58.367 102.4 68.4136 102.44 78.7787C102.268 97.5712 121.007 111.214 138.638 103.597ZM103.21 78.7787C103.07 60.6099 121.286 47.5507 138.247 54.8567C158.718 63.9211 158.599 93.4239 138.094 102.342C121.458 109.37 103.276 96.6289 103.21 78.7787Z" fill="#051C4B"/>
<path d="M135.307 98.4022C151.366 90.9369 151.512 66.4641 135.473 58.8463C121.372 52.3233 107.311 64.1549 107.57 78.8001C107.523 93.1334 121.558 104.633 135.307 98.4022ZM108.326 78.8001C108.326 65.1569 121.836 54.168 134.869 60.0872C150.131 67.2405 150.304 90.552 135.028 97.8514C121.71 104.063 108.061 92.7286 108.326 78.8001Z" fill="#051C4B"/>
<path d="M223.902 83.2726C225.325 79.3064 225.911 75.0877 225.62 70.8836C225.581 70.6895 225.477 70.5149 225.324 70.3894C225.17 70.2639 224.979 70.1953 224.781 70.1953C224.583 70.1953 224.391 70.2639 224.238 70.3894C224.085 70.5149 223.98 70.6895 223.941 70.8836C223.245 85.343 214.459 97.2211 199.979 100.128L198.54 100.486C197.557 100.619 195.096 100.984 194.094 101.149C193.993 101.155 193.895 101.18 193.805 101.223C193.714 101.266 193.633 101.327 193.566 101.401C193.498 101.476 193.447 101.563 193.413 101.657C193.38 101.752 193.365 101.852 193.37 101.952C193.375 102.053 193.4 102.151 193.444 102.241C193.487 102.332 193.547 102.413 193.622 102.48C193.696 102.547 193.784 102.599 193.878 102.633C193.973 102.666 194.073 102.681 194.173 102.676C207.352 102.735 219.416 96.166 223.902 83.2726Z" fill="#774A0E"/>
<path d="M151.611 85.9003C152.633 82.5009 153.009 78.9402 152.719 75.4024C152.713 75.1754 152.617 74.9601 152.452 74.8039C152.287 74.6478 152.067 74.5635 151.84 74.5697C151.613 74.5758 151.398 74.6719 151.242 74.8368C151.085 75.0017 151.001 75.2219 151.007 75.4489C150.569 81.9254 148.579 88.5015 144.445 93.5314C140.277 98.7272 133.907 101.189 127.384 101.999C127.189 102.023 127.011 102.122 126.887 102.275C126.763 102.428 126.703 102.623 126.719 102.819C126.736 103.015 126.827 103.197 126.974 103.327C127.122 103.458 127.313 103.526 127.51 103.518C138.944 103.611 148.366 96.9754 151.611 85.9003Z" fill="#774A0E"/>
<path d="M168.241 63.9412C171.446 54.8502 179.229 47.1128 188.566 44.4585C188.764 44.4145 188.936 44.2937 189.045 44.1226C189.154 43.9515 189.191 43.7441 189.147 43.5461C189.103 43.3481 188.982 43.1757 188.811 43.0668C188.639 42.9579 188.432 42.9215 188.234 42.9655C178.108 45.0027 169.11 53.5031 166.575 63.5364C166.521 63.7573 166.558 63.9904 166.676 64.1846C166.794 64.3787 166.984 64.5179 167.205 64.5716C167.426 64.6253 167.659 64.589 167.853 64.4708C168.048 64.3526 168.187 64.1621 168.241 63.9412Z" fill="#BF761F"/>
<path d="M106.767 72.1115C109.003 64.5135 115.393 57.9109 123.243 56.2918C123.426 56.2429 123.584 56.1286 123.688 55.9705C123.792 55.8124 123.834 55.6216 123.806 55.4345C123.778 55.2475 123.682 55.0772 123.537 54.9563C123.391 54.8353 123.207 54.7722 123.018 54.7788C114.258 55.7609 106.647 63.1532 105.101 71.7863C105.089 71.9934 105.152 72.1979 105.279 72.362C105.406 72.526 105.588 72.6383 105.791 72.678C105.995 72.7178 106.206 72.6823 106.386 72.578C106.565 72.4738 106.7 72.308 106.767 72.1115Z" fill="#BF761F"/>
<path d="M226.171 135.025L218.016 103.173C210.464 94.2811 194.405 81.5471 164.889 84.2147C130.629 87.3069 107.988 99.9746 102.885 125.595C97.6888 151.694 113.92 161.236 120.231 164.899C137.304 174.826 202.222 180.686 226.171 135.025Z" fill="#6EB221"/>
<path d="M156.8 85.6278C179.044 81.9449 202.395 85.495 217.657 103.491C217.74 103.58 217.854 103.634 217.975 103.641C218.096 103.648 218.216 103.608 218.308 103.53C218.401 103.451 218.459 103.339 218.471 103.218C218.484 103.097 218.449 102.977 218.374 102.881C214.181 97.9846 209.136 93.8884 203.483 90.7904C189.276 82.9204 172.401 82.29 156.668 84.7452C147.179 86.1188 137.749 88.4281 129.05 92.5622C117.384 97.9371 107.503 107.778 103.761 120.253C100.947 129.431 100.177 139.69 103.92 148.714C107.364 157.042 114.703 163.12 122.719 166.85C129.355 169.743 136.581 171.09 143.748 171.946C169.747 174.66 198.825 169.086 217.233 149.291C219.975 146.32 222.443 143.107 224.605 139.69L225.813 137.586C226.211 136.883 226.695 136.219 226.569 135.244C226.556 135.153 226.521 135.066 226.467 134.991C226.414 134.916 226.344 134.855 226.262 134.812C226.181 134.769 226.09 134.746 225.998 134.745C225.906 134.744 225.815 134.765 225.733 134.806C224.995 135.197 224.421 135.84 224.114 136.617L222.946 138.661C222.063 139.988 221.207 141.269 220.292 142.556C207.133 160.698 184.631 169.365 162.819 170.825C149.474 171.614 134.458 170.652 122.115 165.217C114.816 161.554 108.08 155.994 104.862 148.303C99.1222 133.863 103.581 115.555 114.079 104.354C125.128 92.7015 141.352 87.9304 156.8 85.6278Z" fill="#051C4B"/>
<path d="M207.186 127.235C210.331 110.546 195.301 82.41 162.501 85.489C129.859 88.5548 108.273 100.512 103.442 124.926C98.4918 149.796 114.457 159.996 119.978 162.385C143.754 172.683 201.38 157.925 207.186 127.235Z" fill="#82D12F"/>
<path d="M124.166 145.557C126.992 144.581 130.337 143.115 134.551 141.217C145.898 136.107 175.905 144.973 179.535 121.097C181.041 111.143 176.761 101.077 168.161 95.881C163.051 92.802 156.528 91.0834 148.605 91.8266C124.405 94.1093 108.479 102.975 104.842 121.051C103.376 128.423 104.391 134.057 106.395 138.304C107.951 141.483 110.621 143.979 113.898 145.316C117.175 146.654 120.83 146.739 124.166 145.557Z" fill="#A1E256"/>
<path d="M221.599 130.805C228.075 135.516 229.973 141.216 229.973 141.216C230.152 131.86 221.599 130.805 221.599 130.805Z" fill="#82D12F"/>
<path d="M230.013 141.508C230.103 141.491 230.183 141.441 230.236 141.367C230.29 141.292 230.312 141.2 230.298 141.11C230.091 139.947 229.694 138.826 229.124 137.792C227.498 134.664 224.886 132.162 221.692 130.672C221.546 130.599 221.393 130.804 221.499 130.93C224.516 134.15 227.243 137.63 229.648 141.329C229.682 141.393 229.736 141.445 229.801 141.478C229.867 141.51 229.941 141.52 230.013 141.508Z" fill="#051C4B"/>
<path d="M333.432 269.684C301.487 265.318 288.819 232.524 280.093 213.28C271.367 194.036 255.322 165.708 225.202 164.388C195.082 163.067 178.221 196.538 178.221 196.538C178.221 196.538 172.076 203.061 186.436 201.727C202.959 200.194 210.623 164.348 227.578 172.457C242.176 179.431 272.562 202.159 267.777 250.825C263.132 298.012 297.121 307.694 297.121 307.694C309.205 299.194 301.58 289.811 306.225 279.246C310.87 268.682 333.432 269.684 333.432 269.684Z" fill="#E02A1F"/>
<path d="M333.392 270.156C333.513 270.16 333.632 270.118 333.723 270.038C333.814 269.957 333.871 269.846 333.883 269.725C333.896 269.603 333.861 269.482 333.785 269.386C333.71 269.291 333.599 269.229 333.478 269.214C303.743 265.153 290.75 236.035 282.157 216.738L280.505 213.048C275.163 201.257 258.919 165.357 225.202 163.884C195.733 162.623 178.645 194.628 177.809 196.233C177.497 196.585 175.819 198.576 176.648 200.275C177.478 201.973 180.742 202.697 186.462 202.166C194.113 201.456 199.84 193.692 205.381 186.18C212.07 177.116 218.387 168.556 227.352 172.849C234.943 176.479 272.542 197.295 267.286 250.753C264.871 275.305 273.053 289.586 280.345 297.25C288.262 305.565 296.888 308.093 296.975 308.119H297.101C297.199 308.121 297.294 308.091 297.373 308.033C305.037 302.678 305.011 296.945 304.978 290.88C304.978 287.197 304.944 283.388 306.683 279.433C311.142 269.293 333.173 270.143 333.392 270.156ZM304.035 290.9C304.068 296.905 304.095 302.107 297.021 307.144C290.933 304.937 285.453 301.321 281.029 296.593C273.876 289.075 265.846 275.033 268.222 250.839C273.531 196.758 235.454 175.676 227.744 171.993C226.172 171.207 224.444 170.788 222.687 170.765C215.567 170.765 210.006 178.29 204.605 185.616C199.203 192.942 193.583 200.553 186.356 201.224C179.521 201.887 177.862 200.64 177.478 199.863C176.973 198.828 178.061 197.322 178.526 196.831C178.558 196.797 178.585 196.759 178.606 196.718C178.771 196.386 195.686 163.539 225.142 164.826C258.281 166.279 274.347 201.774 279.622 213.44C280.16 214.621 280.704 215.849 281.274 217.123C289.483 235.537 301.666 262.857 328.554 269.26C321.567 269.605 309.205 271.331 305.8 279.061C303.995 283.229 304.015 287.11 304.035 290.9Z" fill="#051C4B"/>
<path d="M333.432 269.684C301.487 265.318 288.819 232.524 280.093 213.28C271.367 194.036 255.322 165.708 225.202 164.388C195.082 163.067 178.221 196.538 178.221 196.538C178.221 196.538 172.076 203.061 186.436 201.727C202.959 200.194 210.623 164.348 227.578 172.457C242.176 179.431 272.562 202.159 267.777 250.825C263.132 298.012 297.121 307.694 297.121 307.694C309.205 299.194 301.58 289.811 306.225 279.246C310.87 268.682 333.432 269.684 333.432 269.684Z" fill="#E02A1F"/>
<path d="M333.292 270.155C332.496 270.155 331.693 270.155 330.89 270.155C331.69 270.222 332.493 270.222 333.292 270.155Z" fill="#051C4B"/>
<path d="M297.234 307.21L297.028 307.13L296.835 307.276L297.234 307.21Z" fill="#051C4B"/>
<path d="M266.915 262.293C267.293 276.779 272.801 291.657 284.32 300.934C288.069 304.075 292.356 306.51 296.975 308.12C297.042 308.141 297.113 308.145 297.183 308.132C297.252 308.12 297.317 308.09 297.373 308.047C305.688 302.135 304.924 296.222 305.031 287.211C305.203 282.287 306.696 276.978 311.328 274.477C317.187 271.119 324.168 270.289 330.89 270.17C329.466 270.055 328.057 269.799 326.683 269.407L325.701 269.487C318.508 270.303 308.747 272.041 305.648 279.527C303.538 284.364 304.208 289.772 303.962 294.835C303.81 300.084 301.228 304.125 297.028 307.131L297.234 307.211L296.835 307.277L297.028 307.131C288.129 304.013 280.538 297.456 275.548 289.5C269.828 280.336 267.698 269.38 267.804 258.67L267.903 255.087L268.454 247.894C268.806 243.069 268.806 238.226 268.454 233.401C266.716 207.13 250.916 182.697 226.835 171.615C220.982 169.2 215.899 172.319 211.937 176.519C206.954 181.781 203.224 188.105 198.48 193.5C195.407 196.971 191.698 200.441 186.973 201.131C184.173 201.423 181.001 201.795 178.347 200.647C176.568 199.804 177.617 197.847 178.586 196.778C186.21 183.255 198.115 170.567 213.497 166.413C220.038 164.755 226.885 164.719 233.444 166.307C246.768 169.313 257.651 178.656 265.508 189.532C276.53 204.21 281.746 222.047 290.83 237.887C298.401 251.338 309.556 264.039 324.739 268.85C325.402 269.055 326.026 269.254 326.683 269.427C328.93 269.241 331.185 269.174 333.438 269.228L333.352 270.17H333.392C333.502 270.213 333.625 270.211 333.733 270.164C333.841 270.116 333.926 270.028 333.969 269.918C334.012 269.808 334.01 269.685 333.963 269.577C333.915 269.469 333.827 269.384 333.717 269.341C331.541 268.345 329.278 267.894 327.022 267.224C324.876 266.622 322.777 265.861 320.744 264.948C290.034 250.78 285.807 213.189 267.061 188.384C257.107 174.655 242.654 164.124 225.195 163.566C204.306 162.703 187.186 178.928 177.816 196.247C176.403 197.74 175.58 200.322 177.902 201.496C180.809 202.757 184.034 202.392 187.093 202.08C192.09 201.344 195.971 197.76 199.177 194.117C203.968 188.669 207.644 182.418 212.607 177.17C217.007 172.524 222.01 169.87 228.082 173.188C250.849 184.562 265.906 208.159 267.499 233.454C267.85 238.232 267.85 243.029 267.499 247.807C267.167 251.955 266.682 258.219 266.915 262.293Z" fill="#051C4B"/>
<path d="M333.432 269.206C331.178 269.153 328.923 269.219 326.677 269.405C328.05 269.798 329.46 270.053 330.884 270.169C331.687 270.169 332.49 270.169 333.286 270.169H333.346L333.432 269.206Z" fill="#051C4B"/>
<path d="M225.043 165.21C195.235 163.883 178.32 197.228 178.32 197.228C178.32 197.228 174.664 201.701 181.207 202.49C186.907 188.847 199.157 169.092 225.043 165.21Z" fill="#FF4C48"/>
<path d="M304.088 286.387C304.212 283.929 304.769 281.512 305.734 279.247C310.001 269.333 326.438 269.333 326.438 269.333C298.727 261.762 288.269 232.777 279.635 213.792C271.002 194.807 255.129 166.505 225.302 165.211C252.94 169.491 266.954 189.949 276.848 211.834C286.902 234.07 292.774 258.284 314.148 268.902C304.898 271.616 303.425 279.446 304.088 286.387Z" fill="#FF4C48"/>
<path d="M168.353 131.932C171.16 131.561 172.998 127.951 172.468 123.85C171.937 119.749 169.223 116.736 166.416 117.101C163.609 117.466 161.771 121.083 162.301 125.184C162.832 129.285 165.546 132.291 168.353 131.932Z" fill="#69AA1D"/>
<path d="M167.471 119.325C169.183 119.099 170.855 120.141 172.023 121.912C171.021 118.853 168.758 116.803 166.416 117.108C163.609 117.473 161.771 121.09 162.301 125.191C162.481 126.673 162.993 128.095 163.801 129.351C163.589 128.719 163.44 128.068 163.357 127.407C162.819 123.306 164.664 119.676 167.471 119.325Z" fill="#051C4B"/>
<path d="M172.72 117.559C172.747 117.587 172.782 117.604 172.821 117.608C172.859 117.613 172.897 117.603 172.93 117.582C172.962 117.561 172.986 117.529 172.997 117.492C173.008 117.455 173.006 117.416 172.992 117.38C172.41 116.264 171.593 115.288 170.596 114.52C167.166 111.8 162.481 113.253 160.477 116.969C158.021 121.415 158.838 127.467 162.467 130.964C162.54 131.043 162.66 130.964 162.593 130.851C159.999 127.029 159.514 121.7 161.757 117.692C164.438 112.974 169.621 113.618 172.72 117.559Z" fill="#051C4B"/>
<path d="M124.809 124.779C124.818 124.792 124.829 124.804 124.842 124.812C124.855 124.821 124.87 124.827 124.885 124.83C124.901 124.833 124.917 124.833 124.932 124.83C124.947 124.827 124.962 124.821 124.975 124.812C124.988 124.804 124.999 124.793 125.008 124.779C125.017 124.766 125.023 124.752 125.026 124.736C125.029 124.721 125.029 124.705 125.026 124.69C125.023 124.674 125.017 124.66 125.008 124.647C124.46 123.615 123.701 122.71 122.779 121.992C119.633 119.484 115.26 120.844 113.429 124.255C112.315 126.339 111.884 128.719 112.196 131.061C112.508 133.403 113.547 135.588 115.167 137.308C115.287 137.434 115.493 137.248 115.386 137.115C112.911 133.605 112.434 128.615 114.511 124.872C116.966 120.519 121.923 120.997 124.809 124.779Z" fill="#051C4B"/>
<path d="M120.868 137.991C123.462 137.653 125.168 134.309 124.677 130.526C124.186 126.744 121.671 123.943 119.076 124.289C116.481 124.634 114.776 127.971 115.274 131.754C115.771 135.536 118.273 138.33 120.868 137.991Z" fill="#69AA1D"/>
<path d="M120.025 126.08C121.544 125.881 123.038 126.743 124.106 128.29C123.117 125.708 121.126 124.016 119.076 124.308C116.481 124.646 114.776 127.991 115.274 131.773C115.448 133.218 115.967 134.599 116.787 135.801C116.509 135.083 116.317 134.335 116.216 133.572C115.725 129.763 117.43 126.425 120.025 126.08Z" fill="#051C4B"/>
<path d="M223.848 170.871C223.694 170.761 223.517 170.686 223.331 170.652C216.695 169.411 210.232 175.131 200.205 185.689C190.178 196.246 181.977 199.75 181.977 199.75L182.959 201.873C183.954 201.873 185.056 201.402 186.376 201.256C201.473 199.571 209.575 168.694 223.848 170.871Z" fill="#A51919"/>
<path d="M155.745 237.249C157.28 238.381 159.101 239.061 161.001 239.212C162.902 239.364 164.808 238.98 166.502 238.105C175.062 233.692 195.852 218.111 193.204 209.803C191.519 205.404 180.258 194.839 178.134 194.879C178.134 194.879 160.304 194.408 153.277 193.207C147.656 194.899 139.62 202.988 138.014 208.164C137.158 211.217 140.994 226.293 155.745 237.249Z" fill="#CE921B"/>
<path d="M153.197 193.646H153.317L153.41 193.612L153.197 193.646Z" fill="#051C4B"/>
<path d="M153.476 235.902L154.803 236.977C156.133 238.141 157.728 238.961 159.448 239.366C164.213 240.613 168.513 237.594 172.308 235.159C174.226 233.911 176.091 232.591 177.915 231.217C183.224 227.096 195.971 217.063 193.841 209.558C192.961 207.735 191.811 206.055 190.431 204.574C187.861 201.622 185.034 198.904 181.983 196.452C180.795 195.609 179.422 194.296 177.869 194.262L176.422 194.229C168.732 193.95 160.941 193.785 153.33 192.729C151.001 193.36 148.99 194.866 147.152 196.286C145.372 197.724 143.722 199.316 142.222 201.044C140.39 203.201 138.512 205.57 137.749 208.343C137.62 210.079 137.827 211.823 138.36 213.48C140.875 222.299 146.475 230.069 153.476 235.902ZM138.406 207.64C139.432 205.321 140.843 203.191 142.58 201.343C144.821 198.807 147.451 196.644 150.37 194.933C151.302 194.406 152.291 193.985 153.317 193.678H153.197H153.41L153.317 193.712C155.208 194.03 157.106 194.216 158.997 194.375C164.79 194.893 170.603 195.171 176.409 195.404L177.862 195.457C178.254 195.464 178.635 195.586 178.957 195.809C181.332 197.384 183.53 199.211 185.513 201.256C188.095 203.911 190.955 206.685 192.547 210.029C194.1 216.791 182.169 226.486 177.285 230.388C175.5 231.768 173.669 233.108 171.791 234.369C168.154 236.731 164.213 239.751 159.634 238.616C158.294 238.32 157.031 237.748 155.924 236.937C155.513 236.625 154.352 235.683 153.934 235.364C146.575 229.332 140.583 221.091 138.413 211.734C138.167 210.381 137.842 208.908 138.406 207.64Z" fill="#051C4B"/>
<path d="M154.995 235.928C157.822 238.111 161.359 238.582 164.345 236.857C171.731 232.637 188.898 218.602 186.496 210.46C184.989 206.153 175.115 195.735 173.27 195.755C173.27 195.755 158.672 195.277 152.527 194.036C147.663 195.635 139.78 203.326 138.426 208.343C137.729 211.329 141.339 225.364 154.995 235.928Z" fill="#FBC22E"/>
<path d="M185.938 210.58C184.465 206.373 174.823 196.293 173.025 196.22C169.043 196.054 163.735 201.568 161.081 201.529C158.818 201.475 156.741 195.085 152.799 194.574C148.028 196.107 140.33 203.599 139.003 208.509C138.691 209.837 139.262 213.44 141.246 217.926C142.573 213.413 148.784 207.189 152.607 205.829C154.597 206.293 157.623 212.259 159.853 212.531C162.368 212.836 166.19 207.282 169.229 207.222C170.722 207.222 178.798 216.698 180.059 220.593C180.282 221.495 180.311 222.433 180.145 223.347C184.193 218.861 186.98 214.137 185.938 210.58Z" fill="#E02A1F"/>
<path d="M185.938 210.58C184.465 206.373 174.823 196.293 173.025 196.22H172.846C168.864 196.22 163.735 201.529 161.107 201.529H161.061C158.798 201.475 156.721 195.085 152.779 194.574C148.028 196.107 140.33 203.599 139.003 208.509C138.691 209.837 139.262 213.44 141.246 217.926C142.573 213.413 148.784 207.189 152.607 205.829C154.597 206.293 157.623 212.259 159.853 212.531H160.059C162.574 212.531 166.276 207.262 169.229 207.222C170.742 207.222 178.798 216.705 180.052 220.593C180.275 221.495 180.304 222.433 180.138 223.347C184.193 218.861 186.98 214.137 185.938 210.58ZM175.5 211.841C173.397 209.306 170.616 206.273 169.236 206.273C167.384 206.313 165.533 207.833 163.741 209.312C162.414 210.381 160.961 211.602 160.085 211.602H159.992C159.189 211.502 157.729 209.697 156.674 208.383C155.294 206.678 154.1 205.205 152.865 204.913L152.593 204.853L152.328 204.946C148.884 206.174 143.635 211.038 141.299 215.45C140.085 212.133 139.76 209.611 139.972 208.762C141.226 204.077 148.539 197.102 152.905 195.523C154.624 195.868 156.031 197.72 157.285 199.359C158.539 200.998 159.627 202.418 161.081 202.458H161.147C162.6 202.458 164.352 201.349 166.382 200.069C168.539 198.708 170.981 197.169 172.886 197.169H172.998C174.538 197.587 183.616 206.811 185.082 210.872C185.746 213.3 184.419 216.705 181.101 220.825C181.101 220.666 181.034 220.514 180.994 220.368V220.328C180.072 217.534 176.542 213.128 175.5 211.841Z" fill="#821010"/>
<path opacity="0.2" d="M177.743 200.698C175.407 198.296 173.244 196.471 172.487 196.478C172.487 196.478 158.552 196.027 152.739 194.846C148.094 196.365 140.602 203.671 139.308 208.469C139.096 209.385 139.308 211.402 140.131 214.05C148.585 201.296 164.797 199.617 177.743 200.698Z" fill="white"/>
<path d="M163.629 235.45C168.314 234.037 176.237 224.382 176.568 219.524C176.774 216.346 171.492 210.553 169.435 210.234C167.106 209.876 164.392 214.653 163.191 216.273C162.328 217.434 157.059 217.288 156.369 215.908C155.287 213.738 154.193 209.305 152.281 209.006C150.198 208.681 144.159 214.421 144.159 217.487C144.159 222.232 150.642 232.278 154.922 234.833C155.548 235.155 156.219 235.379 156.913 235.496C156.11 232.265 154.783 226.266 155.467 224.216C155.997 222.63 160.921 222.391 162.998 223.718C164.763 224.853 162.713 232.125 161.545 235.775C162.249 235.744 162.948 235.634 163.629 235.45Z" fill="#2F78FC"/>
<path d="M163.629 235.451C168.314 234.038 176.237 224.383 176.568 219.525C176.774 216.347 171.492 210.554 169.435 210.235C169.351 210.229 169.267 210.229 169.183 210.235C166.913 210.235 164.352 214.734 163.211 216.294C162.819 216.818 161.538 217.07 160.185 217.07C158.532 217.07 156.767 216.685 156.389 215.929C155.307 213.759 154.212 209.326 152.301 209.027C152.242 209.021 152.182 209.021 152.122 209.027C149.893 209.027 144.159 214.542 144.159 217.521C144.159 222.266 150.642 232.312 154.922 234.867C155.548 235.189 156.219 235.413 156.913 235.531C156.11 232.299 154.783 226.3 155.467 224.25C155.765 223.354 157.457 222.923 159.242 222.923C160.548 222.877 161.843 223.174 162.998 223.785C164.763 224.92 162.713 232.193 161.545 235.843C162.252 235.789 162.951 235.658 163.629 235.451ZM163.556 222.896C162.252 222.177 160.777 221.826 159.289 221.881C158.353 221.881 155.241 222.027 154.644 223.872C154.126 225.438 154.471 228.868 155.679 234.064C155.604 234.032 155.533 233.992 155.467 233.945C151.326 231.476 145.161 221.589 145.161 217.415C145.161 214.854 150.51 209.864 152.162 209.864C153.038 210.003 154.047 212.571 154.644 214.11C154.956 214.9 155.248 215.65 155.553 216.26C156.323 217.807 159.302 217.926 160.198 217.926C161.293 217.926 163.23 217.773 163.98 216.765C164.199 216.473 164.445 216.101 164.737 215.67C165.745 214.183 167.842 211.091 169.216 211.091H169.322C170.875 211.33 175.838 216.632 175.659 219.386C175.374 223.838 167.803 233.162 163.39 234.496C163.25 234.535 163.098 234.575 162.925 234.608C165.964 224.456 164.219 223.328 163.556 222.896Z" fill="#0B53AA"/>
<path d="M266.158 342.725C266.218 340.881 263.205 332.347 259.901 333.296C257.505 333.96 257.306 338.492 259.005 345.459C259.775 348.625 266.052 345.824 266.158 342.725Z" fill="#AEE576"/>
<path d="M266.098 343.78C266.716 342.353 265.972 340.781 265.581 339.387C264.811 337.317 263.922 335.16 262.263 333.621C259.609 331.464 257.578 334.105 257.498 336.753C257.193 339.772 257.996 342.665 258.766 345.519C259.894 348.923 265.169 346.089 266.098 343.78ZM258.613 341.126C258.427 339.049 258.049 336.839 258.832 334.888C259.947 332.413 262.183 334.105 263.212 335.724C264.019 336.92 264.677 338.21 265.169 339.566C265.581 340.86 266.311 342.313 265.747 343.654C265.083 345.605 260.126 348.299 259.257 345.426C258.96 343.997 258.745 342.552 258.613 341.099V341.126Z" fill="#051C4B"/>
<path d="M260.345 346.547C260.717 344.138 257.425 334.901 253.179 335.863C248.932 336.825 249.33 341.503 249.595 348.259C249.721 351.61 259.775 350.249 260.345 346.547Z" fill="#AEE576"/>
<path d="M260.498 346.746C260.684 344.092 259.509 341.583 258.361 339.281C257.213 336.978 254.751 334.37 251.865 335.89C247.81 337.834 248.859 344.576 248.958 348.279C249.536 352.712 259.894 350.283 260.498 346.746ZM250.743 338.305C251.054 337.604 251.584 337.023 252.255 336.65C252.926 336.278 253.7 336.134 254.459 336.242C255.223 336.471 255.911 336.902 256.45 337.489C258.154 339.395 259.344 341.704 259.907 344.198C260.378 345.99 260.352 347.476 258.58 348.458C256.403 349.665 253.852 350.009 251.433 349.42C250.836 349.221 250.206 348.883 250.206 348.239C250.332 344.941 249.542 341.424 250.743 338.305Z" fill="#051C4B"/>
<path d="M251.029 350.124C251.619 347.058 249.29 338.007 244.691 338.843C240.61 339.567 239.967 343.833 239.967 350.954C239.973 354.232 250.345 353.661 251.029 350.124Z" fill="#AEE576"/>
<path d="M251.38 350.316C251.891 346.726 250.053 339.798 246.291 338.491C245.339 338.269 244.343 338.34 243.433 338.695C242.524 339.051 241.743 339.674 241.194 340.482C239.25 343.574 239.376 347.449 239.243 350.953C239.562 355.432 250.591 354.019 251.38 350.316ZM240.697 350.933C240.77 347.668 240.385 343.919 242.064 341.052C242.478 340.398 243.078 339.883 243.788 339.573C244.497 339.263 245.284 339.173 246.045 339.314C249.456 340.482 251.155 346.892 250.617 350.124C249.794 352.267 246.257 352.566 244.22 352.512C243.112 352.413 240.849 352.24 240.697 350.913V350.933Z" fill="#051C4B"/>
<path d="M250.378 349.322C250.538 346.814 248.514 339.567 245.733 340.423C243.271 341.18 243.152 344.67 243.616 350.443C243.849 353.131 250.186 352.242 250.378 349.322Z" fill="#CDFF92"/>
<path d="M259.881 345.504C259.569 343.023 256.828 336.686 254.771 337.82C252.946 338.822 253.325 341.696 254.705 347.323C255.348 349.944 260.232 348.371 259.881 345.504Z" fill="#CDFF92"/>
<path d="M265.501 341.848C264.891 339.711 262.256 334.21 261.42 335.066C260.584 335.922 261.487 338.245 263.225 343.115C264.035 345.385 266.211 344.317 265.501 341.848Z" fill="#CDFF92"/>
<path d="M116.063 340.661C117.39 333.713 117.311 329.38 115.539 328.962C113.097 328.398 110.761 336.998 110.788 338.783C110.828 341.776 115.453 343.806 116.063 340.661Z" fill="#AEE576"/>
<path d="M116.362 340.713C116.961 338.099 117.296 335.431 117.364 332.75C117.4 331.699 117.213 330.651 116.813 329.678C116.709 329.393 116.528 329.143 116.289 328.956C116.05 328.77 115.763 328.654 115.462 328.622C115.16 328.59 114.856 328.644 114.583 328.777C114.311 328.909 114.081 329.116 113.92 329.373C112.248 331.523 111.584 334.217 110.874 336.785C110.171 339.001 110.662 341.038 112.865 342.14C114.325 342.91 116.004 342.511 116.362 340.713ZM111.279 336.898C111.863 334.409 112.606 331.722 114.318 329.777C116.216 327.946 116.634 331.436 116.581 332.777C116.543 335.403 116.275 338.021 115.778 340.6C115.586 341.981 114.212 342.22 113.124 341.655C111.133 340.7 110.715 338.888 111.279 336.898Z" fill="#051C4B"/>
<path d="M123.217 342.69C123.217 335.935 123.389 331.257 119.826 330.587C116.262 329.916 113.854 339.359 114.245 341.728C114.836 345.385 123.223 346.035 123.217 342.69Z" fill="#AEE576"/>
<path d="M123.688 342.685C123.688 339.46 124.086 336.109 123.024 332.977C122.845 332.377 122.53 331.825 122.104 331.365C121.679 330.905 121.154 330.548 120.569 330.323C120.019 330.116 119.419 330.083 118.85 330.23C115.97 331.371 114.935 335.95 114.205 338.67C113.88 340.25 113.455 342.24 114.816 343.488C116.747 345.565 123.349 346.474 123.688 342.685ZM115.32 343.03C114.152 342.055 114.511 340.316 114.736 338.783C115.247 336.275 116.455 331.948 119.063 331.006C119.475 330.94 119.898 330.998 120.277 331.172C120.709 331.379 121.091 331.679 121.394 332.051C121.697 332.423 121.913 332.857 122.029 333.322C122.812 336.282 122.626 339.599 122.746 342.692C122.735 343.005 122.627 343.306 122.436 343.555C122.246 343.803 121.983 343.986 121.684 344.079C120.621 344.459 119.48 344.563 118.366 344.38C117.252 344.196 116.204 343.732 115.32 343.03Z" fill="#051C4B"/>
<path d="M133.084 344.477C132.686 337.364 131.797 333.144 127.683 332.646C123.038 332.095 121.233 341.272 121.996 344.292C122.878 347.782 133.27 347.782 133.084 344.477Z" fill="#AEE576"/>
<path d="M133.695 344.436C133.429 340.508 133.403 334.025 128.93 332.492C123.111 330.501 120.914 340.395 121.763 344.49C122.726 348.007 133.602 348.763 133.695 344.436ZM126.395 333.156C127.153 332.973 127.949 333.022 128.679 333.296C129.409 333.571 130.04 334.058 130.49 334.695C132.301 337.469 132.162 341.231 132.533 344.483C132.44 345.93 130.178 346.215 128.99 346.394C126.886 346.553 123.336 346.454 122.354 344.271C121.598 341.065 122.965 334.523 126.349 333.182L126.395 333.156Z" fill="#051C4B"/>
<path d="M128.386 344.125C128.651 338.332 128.466 334.835 126.329 334.211C123.927 333.488 122.347 340.814 122.56 343.309C122.812 346.195 128.28 346.819 128.386 344.125Z" fill="#CDFF92"/>
<path d="M118.704 341.703C119.706 336.215 119.978 333.448 118.645 332.685C117.145 331.829 115.154 338.133 114.935 340.528C114.676 343.282 118.24 344.277 118.704 341.703Z" fill="#CDFF92"/>
<path d="M112.925 338.192C113.907 334.324 114.351 332.412 113.907 331.935C113.462 331.457 111.916 335.83 111.551 337.509C111.133 339.446 112.46 339.997 112.925 338.192Z" fill="#CDFF92"/>
</svg>
