<svg width="82" height="30" viewBox="0 0 82 30" fill="none" xmlns="http://www.w3.org/2000/svg">
<path d="M58.0769 12.1764C56.9409 12.4404 53.9409 12.587 53.9409 12.587L53.572 13.7798C53.572 13.7798 55.0574 13.6527 56.1448 13.7603C56.1448 13.7603 56.4943 13.7309 56.5332 14.1513C56.5526 14.5815 56.504 15.0313 56.504 15.0313C56.504 15.0313 56.4749 15.2953 56.1157 15.3637C55.6982 15.4321 52.8827 15.5593 52.8827 15.5593L52.4264 17.104C52.4264 17.104 52.2613 17.456 52.64 17.3582C52.9895 17.2605 55.9409 16.6934 56.3293 16.7716C56.737 16.8694 57.2031 17.4365 57.0671 17.9449C56.9118 18.5608 53.9604 20.4576 52.1739 20.3305C52.1739 20.3305 51.2322 20.3891 50.4458 19.1083C49.6885 17.8862 50.7079 15.5886 50.7079 15.5886C50.7079 15.5886 50.2516 14.5131 50.5914 14.122C50.5914 14.122 50.7856 13.9558 51.3681 13.9069L52.0963 12.4012C52.0963 12.4012 51.271 12.4501 50.7856 11.8439C50.339 11.2573 50.3002 11.0031 50.6497 10.8467C51.0186 10.6511 54.4361 10.0352 56.7856 10.1134C56.7856 10.1134 57.6108 10.0156 58.339 11.4529C58.339 11.4529 58.6691 12.0395 58.0866 12.1764M49.2225 17.9644C48.9312 18.6782 48.1254 19.431 47.1545 18.9715C46.1642 18.5022 44.6011 15.2953 44.6011 15.2953C44.6011 15.2953 44.0186 14.1025 43.9021 14.1416C43.9021 14.1416 43.7759 13.9069 43.7079 15.2171C43.6108 16.5174 43.7274 19.0497 43.1934 19.4505C42.7079 19.8416 42.1254 19.6754 41.7953 19.2159C41.5235 18.7564 41.407 17.6516 41.5623 15.7255C41.7371 13.7994 42.174 11.7462 42.7274 11.1107C43.3099 10.4654 43.7759 10.9347 43.9507 11.1107C43.9507 11.1107 44.6982 11.7951 45.9604 13.8189L46.174 14.1905C46.174 14.1905 47.3196 16.1165 47.4361 16.1068C47.4361 16.1068 47.5332 16.2045 47.6108 16.1263C47.7273 16.097 47.6885 15.4713 47.6885 15.4713C47.6885 15.4713 47.4749 13.3887 46.407 9.86897C46.407 9.86897 46.2516 9.41922 46.3584 8.98903C46.4555 8.59794 46.873 8.79348 46.873 8.79348C46.873 8.79348 48.4846 9.57565 49.271 12.2155C50.0477 14.8553 49.5235 17.2507 49.2322 17.9644M41.3196 11.1889C41.1642 11.4626 41.0963 11.8439 40.4264 11.9515C40.4264 11.9515 33.9215 12.411 33.6011 12.8705C33.6011 12.8705 33.3876 13.1443 33.7371 13.2127C34.106 13.291 35.5817 13.4865 36.2808 13.5256C37.038 13.5256 39.5817 13.5452 40.5138 14.6989C40.5138 14.6989 41.0477 15.2464 41.0283 16.4881C41.0089 17.7591 40.7856 18.2089 40.2905 18.6684C39.7759 19.0986 35.3681 21.0931 32.5235 18.0426C32.5235 18.0426 31.2225 16.5761 32.9798 15.4615C32.9798 15.4615 34.2419 14.6793 37.4749 15.5886C37.4749 15.5886 38.4458 15.9406 38.407 16.3023C38.3487 16.6934 37.6011 17.0845 36.5138 17.0649C35.4652 17.0356 34.6885 16.5272 34.8439 16.6152C34.9895 16.6641 33.7079 15.9894 33.3099 16.449C32.9215 16.8792 33.0186 17.1334 33.407 17.3973C34.3778 17.9644 38.1934 17.7591 39.3293 16.4783C39.3293 16.4783 39.7856 15.9601 39.0963 15.5397C38.4167 15.1486 36.4361 14.9042 35.6691 14.8749C34.9409 14.8357 32.2128 14.8749 31.805 14.1611C31.805 14.1611 31.4167 13.6527 31.8439 12.2644C32.2905 10.7978 35.4652 10.2307 36.8439 10.1134C36.8439 10.1134 40.6303 9.95696 41.339 10.7391C41.339 10.7391 41.4361 10.9151 41.3196 11.1791M30.5817 19.783C30.1254 20.1252 29.1545 19.9785 28.873 19.5874C28.6011 19.2452 28.5041 17.896 28.5526 15.7743C28.6206 13.6038 28.6497 10.9445 29.1351 10.5143C29.6206 10.0938 29.9118 10.4654 30.106 10.7489C30.3002 11.0422 30.5526 11.3649 30.5914 12.0395C30.6497 12.7239 30.8147 16.2436 30.8147 16.2436C30.8147 16.2436 31.0283 19.4505 30.5914 19.783M31.5526 8.34374C30.2128 8.80326 29.3002 8.6566 28.5235 8.31441C28.1837 8.93036 27.9798 9.11613 27.7274 9.15524C27.339 9.19435 26.9992 8.56861 26.9507 8.37307C26.873 8.22641 26.6885 7.96243 26.9118 7.36603C26.1545 6.68163 26.0963 5.76258 26.2322 5.14662C26.407 4.42311 27.6885 1.70507 31.572 1.38243C31.572 1.38243 33.4749 1.24555 33.805 2.26237H33.8633C33.8633 2.26237 35.7079 2.26237 35.6691 3.92448C35.6691 5.58659 33.6303 7.65934 31.5526 8.37307M33.2808 3.61161C32.0575 3.80716 30.174 5.44971 29.271 6.80873C30.6594 7.06294 33.0866 6.96516 34.174 4.75554C34.174 4.75554 34.6885 3.36718 33.2808 3.61161ZM27.9118 4.6871C27.5235 5.32261 27.5041 5.70392 27.6885 5.95812C28.1448 5.27372 28.9507 4.19824 30.1643 3.35741C29.2322 3.45518 28.4458 3.84626 27.9118 4.6871ZM60.9895 19.7145C60.0963 21.9242 59.339 24.1631 58.9021 27.5167C58.9021 27.5167 58.805 28.1717 58.271 27.9566C57.737 27.7611 56.8633 26.8812 56.6691 25.6395C56.4749 24.0165 57.1934 21.2789 58.6594 18.1306C58.2322 17.4462 57.9312 16.4294 58.1739 15.002C58.1739 15.002 58.5623 12.3621 61.1836 9.97652C61.1836 9.97652 61.4943 9.71253 61.6691 9.80053C61.8827 9.8983 61.7953 10.7391 61.6205 11.1693C61.4652 11.58 60.3002 13.6136 60.3002 13.6136C60.3002 13.6136 59.572 15.002 59.7759 16.0872C61.1545 13.9558 64.2904 9.63432 66.2322 11.0031C67.4652 11.8831 67.4652 14.7184 66.5429 16.361C65.8147 17.6613 63.7565 20.35 61.0089 19.7243M65.0477 13.0759C64.3293 13.858 63.0477 15.3442 62.038 17.3582C63.106 17.2409 64.1448 16.6445 64.4652 16.3414C64.9798 15.8819 66.1642 14.6402 65.9798 12.9976C65.9798 12.9976 65.8633 12.1373 65.0477 13.0759ZM21.5526 20.8682C18.1157 21.9242 14.873 21.4353 13.106 20.966C13.0575 21.6895 12.9798 21.9926 12.8633 22.1099C12.7274 22.2664 11.6012 22.9116 10.9798 21.9926C10.708 21.5526 10.572 20.7607 10.4944 20.0372C6.51379 18.2186 4.66913 15.5397 4.61088 15.4419C4.51379 15.3442 3.61088 14.3958 4.51379 13.2225C5.35845 12.1666 8.15456 11.1009 10.6594 10.6805C10.7565 8.5295 10.9895 6.86739 11.2905 6.13411C11.6497 5.25417 12.106 6.03634 12.5138 6.62297C12.8439 7.06294 13.0478 8.94992 13.0672 10.4556C14.6982 10.3774 15.6885 10.4947 17.5041 10.8467C19.8924 11.2573 21.4846 12.4892 21.3584 13.8776C21.2419 15.2464 19.9992 15.8135 19.5138 15.8526C19.0283 15.8917 18.2516 15.5299 18.2516 15.5299C17.708 15.2757 18.2031 15.0411 18.8342 14.7673C19.5332 14.4251 19.3779 14.0829 19.3779 14.0829C19.1254 13.3007 16.0283 12.7825 12.9507 12.7825C12.9507 14.4935 13.0186 17.3289 13.0672 18.9812C15.2225 19.3919 16.8342 19.3039 16.8342 19.3039C16.8342 19.3039 24.6982 19.079 24.9215 14.0242C25.1643 8.9597 17.0575 4.11025 11.0866 2.58502C5.12544 1.0109 1.7468 2.12549 1.45554 2.27215C1.13515 2.42858 1.42641 2.48724 1.42641 2.48724C1.42641 2.48724 1.7468 2.53613 2.32932 2.73167C2.91185 2.92721 2.44583 3.22053 2.44583 3.22053C1.42641 3.5725 0.290492 3.36718 0.0671908 2.89788C-0.15611 2.43836 0.212822 2.01794 0.649715 1.40198C1.05748 0.766471 1.5235 0.786026 1.5235 0.786026C8.90214 -1.80491 17.9118 2.83922 17.9118 2.83922C26.339 7.1216 27.7759 12.1568 27.6206 14.1122C27.4846 16.0383 26.7468 19.2941 21.5526 20.878M5.33903 13.8776C4.50408 14.2687 5.0866 14.8944 5.0866 14.8944C6.65942 16.5858 8.58175 17.6516 10.4264 18.3164C10.64 15.3833 10.6206 14.3371 10.6206 12.8608C7.76621 13.0563 6.11573 13.5256 5.33903 13.8776Z" fill="black"/>
</svg>
