<svg width="98" height="65" viewBox="0 0 98 65" fill="none" xmlns="http://www.w3.org/2000/svg">
<path d="M88.9324 0.451172H9.33424C4.67716 0.451172 0.901855 4.34335 0.901855 9.14458V55.8578C0.901855 60.659 4.67716 64.5512 9.33424 64.5512H88.9324C93.5895 64.5512 97.3648 60.659 97.3648 55.8578V9.14458C97.3648 4.34335 93.5895 0.451172 88.9324 0.451172Z" fill="#4A9CFF"/>
<path d="M88.9323 0.899956C91.0535 0.900656 93.0877 1.76989 94.5873 3.3165C96.087 4.86311 96.9295 6.96046 96.9295 9.14735V55.8606C96.9295 58.0472 96.087 60.1443 94.5872 61.6905C93.0874 63.2367 91.0533 64.1053 88.9323 64.1053H9.3418C8.29073 64.1064 7.24977 63.8938 6.27846 63.4797C5.30714 63.0657 4.42451 62.4583 3.68106 61.6923C2.9376 60.9264 2.3479 60.0168 1.94567 59.0157C1.54345 58.0146 1.33659 56.9415 1.33693 55.8579V9.14471C1.33726 8.06143 1.5446 6.98882 1.9471 5.98816C2.34959 4.9875 2.93936 4.07839 3.68271 3.31276C4.42607 2.54713 5.30845 1.93998 6.27945 1.52598C7.25044 1.11199 8.29104 0.899263 9.3418 0.899956H88.9323ZM88.9323 0.00264174H9.3418C6.98903 0.00334026 4.73275 0.966851 3.06861 2.68151C1.40447 4.39618 0.468588 6.72175 0.466553 9.14735V55.8606C0.469943 58.2853 1.40643 60.6095 3.07042 62.323C4.73441 64.0365 6.98992 64.9993 9.3418 65H88.9323C91.2833 64.9972 93.5372 64.0331 95.1996 62.3193C96.8621 60.6054 97.7972 58.2817 97.7999 55.8579V9.14471C97.7979 6.72049 96.863 4.39611 95.2006 2.68167C93.5381 0.967239 91.2838 0.0027952 88.9323 0V0.00264174Z" fill="#041C4C"/>
<path d="M9.34252 0.899906H88.933C91.054 0.899906 93.0882 1.76855 94.5879 3.31474C96.0877 4.86093 96.9302 6.95802 96.9302 9.14466V46.9507H1.33765V9.1473C1.33731 8.06369 1.54417 6.99065 1.9464 5.98953C2.34862 4.98841 2.93832 4.07885 3.68178 3.31287C4.42524 2.54689 5.30786 1.93952 6.27918 1.52548C7.2505 1.11145 8.29145 0.898865 9.34252 0.899906Z" fill="#2E79FB"/>
<path d="M0.894287 43.269V9.14722C0.897678 6.83967 1.7892 4.62783 3.37309 2.99738C4.95699 1.36694 7.10376 0.451169 9.34203 0.451172H88.9326C91.1682 0.45536 93.311 1.37297 94.8916 3.00297C96.4721 4.63296 97.3616 6.84241 97.3649 9.14722V43.269H0.894287Z" fill="#D9DEFB"/>
<path d="M88.9323 0.900244C91.0535 0.900944 93.0877 1.77018 94.5873 3.31679C96.087 4.8634 96.9295 6.96075 96.9295 9.14764V42.8207H1.33693V9.14764C1.33693 8.06413 1.54402 6.99124 1.94636 5.99028C2.34871 4.98931 2.93842 4.07989 3.68181 3.31398C4.4252 2.54807 5.30769 1.94068 6.27885 1.52652C7.25002 1.11236 8.29083 0.899551 9.3418 0.900244H88.9323ZM88.9323 0.00292969H9.3418C6.98903 0.0036282 4.73275 0.967139 3.06861 2.6818C1.40447 4.39646 0.468588 6.72204 0.466553 9.14764V43.7207H97.7999V9.14764C97.7979 6.72341 96.863 4.39903 95.2006 2.6846C93.5381 0.970161 91.2838 0.00572489 88.9323 0.00292969Z" fill="#041C4C"/>
<path d="M49.8891 0.899904H9.34252C8.29155 0.899211 7.25074 1.11202 6.27958 1.52618C5.30841 1.94034 4.42592 2.54773 3.68253 3.31364C2.93914 4.07955 2.34943 4.98897 1.94708 5.98994C1.54474 6.9909 1.33765 8.06379 1.33765 9.14729V42.4958L49.8891 0.899904Z" fill="#BBCDFB"/>
<path d="M26.0938 19.9468H15.0196C12.8664 19.9468 11.1208 21.7463 11.1208 23.9662V29.7196C11.1208 31.9395 12.8664 33.7391 15.0196 33.7391H26.0938C28.2471 33.7391 29.9926 31.9395 29.9926 29.7196V23.9662C29.9926 21.7463 28.2471 19.9468 26.0938 19.9468Z" fill="#4A9CFF"/>
<path d="M26.0941 20.3954C26.5496 20.3943 27.0008 20.4859 27.4219 20.6649C27.843 20.8439 28.2257 21.1067 28.5482 21.4384C28.8706 21.7701 29.1264 22.1641 29.3009 22.5978C29.4755 23.0316 29.5653 23.4966 29.5653 23.9662V29.7195C29.5653 30.6666 29.2004 31.5748 28.5509 32.2445C27.9013 32.9141 27.0204 33.2903 26.1018 33.2903H15.0173C14.5626 33.2903 14.1123 33.1979 13.6922 33.0185C13.2722 32.839 12.8905 32.5759 12.5691 32.2443C12.2477 31.9127 11.9928 31.519 11.819 31.0858C11.6452 30.6526 11.5559 30.1883 11.5563 29.7195V23.9662C11.5559 23.4974 11.6452 23.0331 11.819 22.5999C11.9928 22.1667 12.2477 21.773 12.5691 21.4414C12.8905 21.1098 13.2722 20.8467 13.6922 20.6672C14.1123 20.4877 14.5626 20.3954 15.0173 20.3954H26.0941ZM26.0941 19.498H15.0173C13.8693 19.5029 12.7697 19.9752 11.9579 20.8121C11.1462 21.649 10.6881 22.7826 10.6833 23.9662V29.7195C10.6881 30.9031 11.1462 32.0367 11.9579 32.8736C12.7697 33.7105 13.8693 34.1828 15.0173 34.1876H26.0941C27.2421 34.1828 28.3417 33.7105 29.1534 32.8736C29.9652 32.0367 30.4233 30.9031 30.428 29.7195V23.9662C30.4273 22.7814 29.9705 21.6453 29.1579 20.8075C28.3453 19.9697 27.2433 19.4987 26.0941 19.498Z" fill="#041C4C"/>
<path d="M11.5564 51.2998H27.2385" stroke="#041C4C" stroke-width="0.964192" stroke-linecap="round" stroke-linejoin="round"/>
<path d="M31.3806 51.2998H47.0627" stroke="#041C4C" stroke-width="0.964192" stroke-linecap="round" stroke-linejoin="round"/>
<path d="M51.2048 51.2998H66.8895" stroke="#041C4C" stroke-width="0.964192" stroke-linecap="round" stroke-linejoin="round"/>
<path d="M71.0281 51.2998H86.7127" stroke="#041C4C" stroke-width="0.964192" stroke-linecap="round" stroke-linejoin="round"/>
<path fill-rule="evenodd" clip-rule="evenodd" d="M66.1393 9.4246C67.0148 9.65685 67.4756 10.3246 67.5089 11.3354C67.4596 11.7102 67.3903 12.082 67.3015 12.4491C66.9329 13.708 66.3979 14.8771 65.4353 15.785C64.8147 16.384 64.0086 16.7374 63.1596 16.7826C62.728 16.8266 62.2922 16.7781 61.8796 16.6401C61.564 16.5351 61.2855 16.3363 61.0792 16.0687C60.8728 15.801 60.7479 15.4764 60.72 15.1358C60.652 14.4142 60.7667 13.6867 61.0528 13.0244C61.511 11.7893 62.1919 10.7231 63.285 9.97882C63.9092 9.54692 64.6452 9.31885 65.3969 9.32431C65.6475 9.32596 65.8968 9.35964 66.1393 9.4246ZM65.1768 12.7843C65.3126 12.3549 65.4078 11.913 65.4609 11.4647H65.4507C65.4891 11.1849 65.3304 11.0239 65.0642 10.9685C64.8425 10.9179 64.611 10.94 64.4021 11.0318C64.1932 11.1236 64.0174 11.2805 63.8994 11.4805C63.6169 11.8955 63.3734 12.3374 63.1724 12.8001C62.946 13.2763 62.7989 13.7884 62.7372 14.315C62.7346 14.893 62.8421 15.1067 63.1289 15.1437C63.3289 15.1705 63.532 15.1589 63.7279 15.1094C63.8995 15.0567 64.0576 14.9652 64.1905 14.8414C64.3233 14.7177 64.4277 14.5649 64.4959 14.3941C64.7531 13.8717 64.9805 13.3341 65.1768 12.7843ZM79.1997 11.0267C79.1837 10.6572 79.0518 10.303 78.8237 10.0174C78.5956 9.73182 78.2838 9.53031 77.9351 9.4432C77.4871 9.32396 77.0205 9.29779 76.5625 9.36621C76.1046 9.43462 75.6644 9.59626 75.2676 9.84172C74.5035 10.3603 73.8565 11.0424 73.3706 11.8416C72.8847 12.6407 72.5713 13.5384 72.4517 14.4735C72.4517 15.793 72.9253 16.4766 73.8623 16.7009C74.2129 16.7709 74.5707 16.7948 74.9272 16.7722C75.6944 16.7432 76.43 16.4495 77.0161 15.9382C77.7774 15.2635 78.3619 14.4022 78.7159 13.4336C79.0231 12.6656 79.2739 11.8844 79.1997 11.0267ZM77.2055 11.6284C77.037 12.6641 76.6735 13.6557 76.1355 14.5474C76.0303 14.7578 75.8647 14.9295 75.6612 15.0391C75.4578 15.1487 75.2264 15.1908 74.9989 15.1596C74.6251 15.1121 74.4152 14.8957 74.469 14.513C74.6302 13.3254 74.9809 12.2143 75.7924 11.3065C75.8899 11.1944 76.008 11.1034 76.1398 11.0386C76.2716 10.9738 76.4146 10.9366 76.5604 10.9291C77.0391 10.9317 77.2772 11.1903 77.2055 11.6284ZM84.4037 9.60924C85.274 9.88635 85.484 10.4907 85.3304 11.2825C85.1153 12.3434 84.4472 13.0138 83.5103 13.4598L83.2261 13.5944C83.6347 14.3976 83.8507 15.2478 84.0711 16.115C84.1171 16.2964 84.1634 16.4785 84.2117 16.6611C84.1551 16.673 84.0978 16.6809 84.0402 16.6848H82.1228C81.9743 16.6875 81.9282 16.6241 81.8975 16.4869C81.7413 15.7875 81.5775 15.0881 81.4137 14.3914C81.3995 14.3112 81.363 14.237 81.3087 14.1776C81.2984 14.2018 81.2875 14.2259 81.2764 14.2501L81.2764 14.2501L81.2764 14.2502L81.2764 14.2502L81.2764 14.2502C81.2572 14.2923 81.2379 14.3347 81.2217 14.3782C80.9657 15.0776 80.7097 15.7822 80.4537 16.4895C80.4409 16.548 80.4078 16.5995 80.3606 16.6345C80.3135 16.6695 80.2555 16.6856 80.1977 16.6796H78.2471L78.2678 16.6105C78.2833 16.5583 78.2966 16.514 78.3111 16.4711C79.12 14.1926 79.9264 11.9097 80.7302 9.62244C80.7442 9.56245 80.7797 9.51011 80.8295 9.47587C80.8794 9.44164 80.9398 9.42801 80.999 9.4377C81.3618 9.44347 81.7247 9.44217 82.0876 9.44087C82.5541 9.4392 83.0207 9.43753 83.4872 9.45089C83.7983 9.45998 84.1067 9.51327 84.4037 9.60924ZM83.1902 12.0044C83.291 11.8294 83.3555 11.6349 83.3797 11.4329C83.3907 11.3846 83.3924 11.3344 83.3845 11.2854C83.3767 11.2364 83.3596 11.1895 83.3341 11.1473C83.3087 11.1051 83.2754 11.0686 83.2362 11.0397C83.1971 11.0108 83.1527 10.9902 83.1058 10.979C82.8473 10.9293 82.5853 10.9019 82.3225 10.8972C82.2764 10.8945 82.2021 10.9658 82.1842 11.0186C81.9845 11.5517 81.7925 12.0874 81.5929 12.6469C81.6171 12.6664 81.6438 12.6824 81.6722 12.6944C81.8655 12.7357 82.065 12.7353 82.2581 12.6931C82.4512 12.6509 82.6337 12.5679 82.7941 12.4494C82.9545 12.3309 83.0894 12.1794 83.1902 12.0044ZM58.8127 12.186C58.9777 12.2345 59.143 12.2831 59.3038 12.3436C59.7723 12.5204 60.1486 12.8186 60.2331 13.3597C60.2545 13.7008 60.2164 14.0432 60.1204 14.3705C59.7518 15.6742 58.8661 16.4 57.5861 16.5953C57.1823 16.6516 56.7751 16.6789 56.3676 16.6771H52.3485H52.0925C52.1014 16.6426 52.108 16.6128 52.1139 16.586L52.1139 16.586L52.1139 16.586L52.1139 16.586L52.1139 16.586C52.1234 16.5431 52.1311 16.508 52.1437 16.4739C52.197 16.3226 52.2511 16.1713 52.3052 16.02C52.42 15.6986 52.535 15.3769 52.6429 15.054C52.6554 14.9866 52.6928 14.9269 52.7473 14.8874C52.8018 14.848 52.869 14.832 52.9347 14.8429H56.9333C57.1367 14.8408 57.3393 14.816 57.5375 14.769C57.6477 14.7415 57.7459 14.6771 57.8168 14.5859C57.8877 14.4947 57.9272 14.3818 57.9292 14.2649C57.9317 14.0775 57.8165 13.9244 57.5605 13.8426C57.4558 13.8091 57.3511 13.7797 57.2464 13.7502L57.2463 13.7502L57.2463 13.7502L57.2463 13.7502L57.2463 13.7502C57.0951 13.7076 56.9438 13.665 56.7925 13.6104C56.3292 13.4467 55.9196 13.1828 55.7942 12.655C55.7587 12.4707 55.7631 12.2805 55.807 12.0981C55.9328 11.4598 56.1952 10.8584 56.575 10.3378C56.785 10.055 57.0567 9.82712 57.368 9.67261C57.6793 9.5181 58.0215 9.4413 58.3669 9.44841C59.3801 9.43962 60.4 9.44254 61.4223 9.44547C61.9343 9.44694 62.4468 9.44841 62.9594 9.44841H62.9927C62.7028 9.72553 62.4085 10.0205 62.1143 10.3154L62.1142 10.3154L62.1141 10.3156C62.0161 10.4138 61.9181 10.5121 61.8202 10.6096C61.7698 10.647 61.7265 10.6935 61.6922 10.7469C61.6276 10.8805 61.5222 10.9885 61.3923 11.0543C61.2623 11.1201 61.1149 11.1401 60.9729 11.1111C60.5344 11.097 60.0948 11.1017 59.6547 11.1064L59.6547 11.1064C59.4346 11.1087 59.2143 11.1111 58.9941 11.1111C58.7981 11.115 58.6039 11.1498 58.4181 11.214C58.3223 11.2434 58.2399 11.3072 58.1858 11.3939C58.1318 11.4806 58.1098 11.5844 58.1237 11.6864C58.1315 11.7815 58.1692 11.8714 58.2312 11.9424C58.2931 12.0134 58.3758 12.0616 58.4667 12.0797C58.5809 12.1178 58.6967 12.1519 58.8127 12.186L58.8127 12.186ZM71.0715 11.1083H72.9274C73.0245 11.1045 73.1163 11.0619 73.1834 10.9895C73.6046 10.43 74.1123 9.94589 74.6861 9.55645C74.7101 9.53945 74.7323 9.52154 74.7589 9.50008L74.759 9.50002C74.7778 9.48485 74.7989 9.4679 74.8243 9.44824H70.5083C70.4602 9.45091 70.4124 9.45619 70.3649 9.46408C69.3409 9.61979 68.7086 10.2373 68.3656 11.2086L66.4918 16.5001C66.4789 16.536 66.47 16.5732 66.4585 16.6214C66.4539 16.6406 66.4489 16.6615 66.4431 16.6848H66.6633H68.3144C68.3485 16.6925 68.3836 16.6928 68.4178 16.686C68.452 16.6791 68.4845 16.6651 68.5132 16.6448C68.542 16.6246 68.5664 16.5985 68.5851 16.5681C68.6037 16.5378 68.6161 16.5039 68.6216 16.4684C68.7598 16.0633 68.9032 15.6602 69.0465 15.2571C69.1899 14.8539 69.3333 14.4508 69.4715 14.0457C69.4869 13.9727 69.5291 13.9086 69.5892 13.8668C69.6492 13.825 69.7226 13.8088 69.7941 13.8213H71.2839C71.3367 13.8299 71.3907 13.8171 71.4346 13.7857C71.4785 13.7542 71.5089 13.7065 71.5194 13.6524C71.5969 13.4207 71.6791 13.191 71.7614 12.9608L71.7615 12.9607C71.8151 12.8107 71.8688 12.6606 71.9213 12.5097C71.9382 12.4516 71.9519 12.3925 71.9623 12.3328H70.0884L70.1482 12.1619C70.214 11.9736 70.2716 11.8091 70.3291 11.6414C70.4852 11.1848 70.5876 11.1083 71.0715 11.1083ZM85.871 10.2194C85.7683 9.92568 85.5967 9.66264 85.3716 9.45373L92.3167 9.43262L92.0786 10.1188C92.0479 10.2068 92.0163 10.2948 91.9847 10.3828C91.9216 10.5587 91.8584 10.7346 91.8021 10.9106C91.7902 10.9779 91.7534 11.0379 91.6994 11.0777C91.6454 11.1176 91.5785 11.1343 91.5129 11.1243H89.4342C89.3621 11.1135 89.2887 11.132 89.2295 11.1758C89.1703 11.2196 89.1299 11.2853 89.1168 11.3592C88.9425 11.8499 88.7675 12.3401 88.5926 12.8302C88.1664 14.0246 87.7405 15.2182 87.3248 16.4158C87.3087 16.5022 87.26 16.5784 87.1895 16.6279C87.119 16.6774 87.0323 16.696 86.9485 16.6798H85.3025C85.4046 16.392 85.5065 16.1048 85.6083 15.8179C86.1599 14.263 86.7084 12.7172 87.2659 11.1375H85.9604C86.0044 10.8286 85.9737 10.5132 85.871 10.2194Z" fill="#FF8931"/>
<path fill-rule="evenodd" clip-rule="evenodd" d="M77.6732 18.4241L77.6732 18.4241C77.6196 18.4129 77.566 18.4017 77.5127 18.3897C77.1578 18.3802 76.8098 18.4924 76.5235 18.7088C76.2372 18.9252 76.0286 19.2335 75.9306 19.5853C75.881 19.731 75.8825 19.89 75.9349 20.0347C75.9873 20.1793 76.0872 20.3005 76.2173 20.377C76.3014 20.4359 76.3909 20.4869 76.4809 20.5381C76.528 20.5649 76.5752 20.5917 76.6218 20.6198C76.9776 20.8309 77.0007 21.1133 76.6756 21.3799C76.594 21.443 76.5021 21.4904 76.4042 21.5198C76.2529 21.5622 76.0943 21.569 75.9402 21.5398C75.786 21.5105 75.6401 21.446 75.5134 21.3509C75.4567 21.3129 75.3914 21.2911 75.3239 21.2875C75.231 21.4374 75.161 21.6012 75.1166 21.7731C75.1038 21.8365 75.2215 21.9605 75.3035 22.0027C75.6292 22.1517 75.9933 22.1869 76.3402 22.103C76.6666 22.0484 76.9701 21.8954 77.2124 21.6635C77.4547 21.4315 77.6251 21.1308 77.7021 20.7993C77.7348 20.6725 77.7276 20.5382 77.6816 20.4159C77.6356 20.2935 77.5532 20.1894 77.4461 20.1184C77.3449 20.0453 77.2358 19.9826 77.1264 19.9196C77.0697 19.887 77.013 19.8543 76.9572 19.8201L76.9287 19.8028C76.7783 19.7114 76.6626 19.6412 76.7012 19.4797C76.7439 19.3162 76.8385 19.1722 76.97 19.0706C77.0975 18.9959 77.2432 18.9604 77.3898 18.9683C77.5363 18.9763 77.6776 19.0274 77.7968 19.1155C78.0247 19.2527 78.0528 19.2448 78.145 18.9941L78.1573 18.9609C78.1704 18.9254 78.1831 18.8911 78.1987 18.8569C78.2177 18.8246 78.2286 18.7881 78.2306 18.7504C78.2325 18.7128 78.2255 18.6752 78.2101 18.641C78.1946 18.6069 78.1713 18.5772 78.1421 18.5545C78.1129 18.5318 78.0787 18.5169 78.0426 18.5111C77.9211 18.4761 77.7971 18.4501 77.6732 18.4241ZM89.5493 18.5481C89.2002 18.4033 88.8179 18.3658 88.4485 18.4399C87.8641 18.5393 87.3262 18.8298 86.9141 19.2684C86.5021 19.707 86.2377 20.2705 86.1599 20.8759C86.129 21.0186 86.1283 21.1666 86.158 21.3097C86.1876 21.4527 86.2469 21.5875 86.3317 21.7048C86.4166 21.822 86.5249 21.9191 86.6495 21.9892C86.774 22.0593 86.9118 22.1008 87.0533 22.111C87.5536 22.1852 88.0638 22.1299 88.5381 21.95C88.6518 21.8971 88.7428 21.8033 88.7941 21.6861C88.9157 21.3789 89.0269 21.0683 89.1386 20.7564L89.1387 20.7562C89.1939 20.6018 89.2493 20.4472 89.3061 20.2926C89.3726 20.0947 89.3291 20.0287 89.1294 20.0287H88.2309C87.9058 20.0287 87.7522 20.224 87.8136 20.5855H88.4946C88.4128 20.7842 88.3427 20.9878 88.2847 21.1952C88.2672 21.2885 88.2183 21.3726 88.1467 21.4324C88.0751 21.4923 87.9852 21.5242 87.893 21.5225C87.7916 21.5304 87.6898 21.5304 87.5884 21.5225C87.4916 21.5271 87.3952 21.5085 87.3066 21.4683C87.218 21.428 87.1396 21.3672 87.0776 21.2905C87.0156 21.2138 86.9717 21.1233 86.9493 21.0262C86.9269 20.9291 86.9266 20.828 86.9484 20.7307C86.998 20.4426 87.0922 20.1646 87.2274 19.9073C87.7189 19.0126 88.7634 18.7355 89.4725 19.2818C89.5083 19.3082 89.6081 19.3108 89.6158 19.2818C89.703 19.121 89.766 18.9475 89.8027 18.7672C89.8053 18.7091 89.6517 18.593 89.5493 18.5481ZM70.9973 18.5268C70.6108 18.379 70.3752 18.4608 70.1909 18.7907C69.8453 19.3845 69.5023 19.981 69.167 20.5748C69.0612 20.7579 68.9523 20.9426 68.844 21.1263L68.7522 21.2821C68.7212 21.198 68.7115 21.1072 68.7241 21.0182C68.7465 20.8199 68.7692 20.6219 68.7919 20.4239C68.8575 19.8523 68.923 19.2813 68.9801 18.7089C68.9858 18.6763 68.9848 18.6428 68.9774 18.6105C68.9699 18.5783 68.956 18.548 68.9366 18.5215C68.7804 18.3922 68.2556 18.5215 68.1481 18.6957L66.9987 20.6513C66.9441 20.7451 66.8875 20.8389 66.8309 20.9327L66.8308 20.9328C66.76 21.0501 66.6892 21.1674 66.6224 21.2847H66.5763C66.5763 21.2155 66.585 21.1462 66.5936 21.0769C66.5965 21.0538 66.5994 21.0307 66.6019 21.0076C66.6324 20.7738 66.6636 20.5403 66.6947 20.3069L66.6947 20.3066C66.7549 19.8551 66.815 19.404 66.8707 18.9517C66.9264 18.4924 66.922 18.4924 66.4664 18.5001L66.4509 18.5004C66.4121 18.4925 66.3721 18.494 66.334 18.5048C66.2959 18.5155 66.2607 18.5352 66.2312 18.5623C66.2017 18.5894 66.1786 18.6231 66.1639 18.6609C66.1492 18.6987 66.1431 18.7395 66.1462 18.7802C66.1074 19.1788 66.0671 19.5775 66.0268 19.9764L66.0268 19.9764L66.0268 19.9764L66.0268 19.9765L66.0268 19.9765L66.0268 19.9765L66.0268 19.9765V19.9765V19.9765L66.0267 19.9774C65.9716 20.5235 65.9164 21.0699 65.8647 21.6173C65.8129 22.1459 65.8181 22.1459 66.3169 22.1451L66.3766 22.1451C66.4945 22.1515 66.6116 22.1218 66.7131 22.0598C66.8147 21.9978 66.8962 21.9063 66.9475 21.7967C67.2263 21.2948 67.5194 20.801 67.8131 20.3065C67.8915 20.1743 67.97 20.0421 68.0483 19.9097C68.0739 19.8663 68.1008 19.8243 68.1281 19.7816L68.1282 19.7816L68.1609 19.7303C68.1353 20.332 68.0816 20.9152 68.0073 21.4959C67.9254 22.1477 67.951 22.1847 68.6012 22.1372C68.6823 22.1361 68.7617 22.1138 68.8321 22.0722C68.9024 22.0306 68.9613 21.9712 69.0031 21.8997C69.4014 21.242 69.8017 20.5876 70.2021 19.933L70.2021 19.9329L70.2022 19.9329L70.2022 19.9328L70.2022 19.9328L70.2023 19.9327L70.203 19.9315L70.2033 19.931L70.2035 19.9308L70.2036 19.9306L70.2036 19.9305L70.2037 19.9304L70.2039 19.9301L70.2042 19.9295L70.2043 19.9293C70.4363 19.5501 70.6684 19.1707 70.9 18.7907C70.9375 18.7048 70.9699 18.6167 70.9973 18.5268ZM85.8827 18.4639C85.5039 18.4639 85.4706 18.4639 85.34 18.8439C85.084 19.5565 84.828 20.2717 84.572 21.0291C84.5284 20.7506 84.4853 20.4807 84.4429 20.2158C84.3833 19.8433 84.3253 19.4809 84.27 19.1184L84.269 19.1119C84.2193 18.7809 84.1947 18.6169 84.0996 18.538C84.0062 18.4606 83.8449 18.4652 83.5253 18.4742L83.5174 18.4744C83.4286 18.4677 83.3402 18.4926 83.2671 18.545C83.1939 18.5973 83.1404 18.674 83.1154 18.7621C83.05 18.9537 82.9828 19.1416 82.9153 19.3304L82.8723 19.4509C82.5872 20.2497 82.3048 21.0502 82.0249 21.8526C82.0044 21.9159 82.0019 22.0373 82.0403 22.0663C82.0947 22.0944 82.154 22.1112 82.2148 22.1157C82.2755 22.1202 82.3365 22.1122 82.3943 22.0924C82.4521 22.0725 82.5055 22.0411 82.5515 22C82.5975 21.9588 82.6351 21.9087 82.6623 21.8526C82.9371 21.0714 83.2102 20.2893 83.4815 19.5063C83.4913 19.481 83.5043 19.4568 83.5171 19.4329C83.5243 19.4195 83.5314 19.4062 83.5378 19.3929L83.6153 19.8791L83.6153 19.8793L83.6154 19.8795C83.7059 20.4489 83.7954 21.0116 83.8911 21.5728C83.9756 22.0822 83.9833 22.0822 84.485 22.0795C84.7845 22.0795 84.8536 22.0267 84.9611 21.7285L85.3938 20.5092C85.4413 20.3741 85.4887 20.2389 85.536 20.1036L85.5361 20.1035L85.5361 20.1034L85.5361 20.1033C85.7007 19.6335 85.8654 19.1632 86.0363 18.6961C86.0926 18.5272 86.0491 18.4691 85.8827 18.4639ZM57.3712 18.4786C57.6867 18.4796 58.0025 18.4806 58.3154 18.5083C58.8351 18.5532 59.0245 18.891 58.8453 19.3898C58.7861 19.5541 58.694 19.7037 58.5749 19.8287C58.4557 19.9538 58.3124 20.0515 58.1541 20.1156C58.5842 20.4085 58.6508 20.6619 58.4281 21.1343C58.2987 21.4065 58.0992 21.6368 57.8512 21.7997C57.6033 21.9627 57.3166 22.052 57.0227 22.058C56.7158 22.088 56.406 22.0846 56.0966 22.0813C55.9982 22.0802 55.8998 22.0791 55.8016 22.0791C55.6301 22.0791 55.5865 22.0026 55.6454 21.8389C56.0158 20.7974 56.3852 19.7549 56.7539 18.7115C56.7712 18.643 56.8104 18.5825 56.8652 18.5399C56.9201 18.4972 56.9873 18.475 57.0559 18.4767C57.1609 18.478 57.266 18.4783 57.3712 18.4786ZM57.4997 21.3571C57.6177 21.2628 57.705 21.1334 57.7497 20.9865C57.829 20.7305 57.7241 20.5484 57.4758 20.4956C57.2866 20.4811 57.0966 20.4811 56.9075 20.4956C56.8827 20.499 56.8591 20.5084 56.8386 20.5231C56.8181 20.5378 56.8014 20.5573 56.7897 20.5801C56.7033 20.8088 56.6229 21.0391 56.537 21.2853L56.537 21.2854L56.537 21.2854L56.5369 21.2856C56.5109 21.3602 56.4843 21.4364 56.4569 21.5143H57.0892C57.2384 21.5063 57.3816 21.4515 57.4997 21.3571ZM57.8402 19.8387C57.9246 19.7796 57.9945 19.7009 58.0441 19.6089C58.1695 19.3977 58.1721 19.2103 58.0569 19.1074C57.8349 19.0054 57.5864 18.9822 57.3503 19.0414C57.3355 19.0562 57.3241 19.0742 57.317 19.0942C57.2762 19.2085 57.2359 19.3229 57.1944 19.4404C57.1343 19.6106 57.0718 19.7875 57.0022 19.981C57.0835 19.9761 57.1578 19.9734 57.2276 19.9708C57.3468 19.9665 57.4527 19.9626 57.5577 19.9493C57.6589 19.9357 57.7557 19.8979 57.8402 19.8387ZM63.9733 18.4811C64.2032 18.4823 64.4334 18.4835 64.6618 18.5035C65.2224 18.5536 65.4272 18.9125 65.2455 19.472C65.1827 19.6617 65.0818 19.8357 64.9495 19.9826C64.8172 20.1294 64.6564 20.2459 64.4775 20.3245L64.3188 20.3957C64.3884 20.5777 64.4449 20.7647 64.4877 20.9553C64.5157 21.1532 64.5257 21.3535 64.5358 21.5538L64.5358 21.5539L64.5358 21.5539L64.5358 21.554L64.5358 21.554L64.5358 21.5541L64.5358 21.5541C64.5405 21.6475 64.5452 21.741 64.5517 21.8341C64.5517 22.003 64.4749 22.098 64.2958 22.098C63.7761 22.1297 63.7658 22.1297 63.7454 21.6018C63.7407 21.3715 63.7245 21.1416 63.6967 20.913C63.6851 20.8549 63.6615 20.7999 63.6275 20.752C63.5934 20.7041 63.5498 20.6643 63.4996 20.6352C63.4493 20.6062 63.3936 20.5886 63.3362 20.5837C63.2788 20.5789 63.221 20.5867 63.1668 20.6069C63.1192 20.6423 63.0849 20.6936 63.0696 20.752C62.9441 21.0925 62.8084 21.4699 62.7035 21.7734C62.5985 22.0769 62.5627 22.1033 62.2478 22.1033C62.1327 22.0966 62.0182 22.0826 61.9048 22.0611L61.9066 22.0549C61.9338 21.9604 61.9539 21.8907 61.9765 21.8235C62.0883 21.5059 62.2006 21.1883 62.3129 20.8706C62.5581 20.1772 62.8034 19.4835 63.0439 18.7885C63.066 18.6892 63.123 18.6019 63.2038 18.5435C63.2847 18.485 63.3837 18.4594 63.4817 18.4718C63.6449 18.4795 63.809 18.4803 63.9733 18.4811ZM64.2546 19.866C64.3714 19.763 64.4546 19.6255 64.4929 19.472C64.5313 19.3374 64.5389 19.1633 64.4135 19.1184C64.1859 19.0706 63.9546 19.0441 63.7223 19.0392C63.7018 19.0392 63.6609 19.0841 63.6609 19.1131C63.5779 19.3419 63.4964 19.5721 63.412 19.8107L63.4119 19.8109L63.4119 19.811L63.4119 19.811L63.3281 20.0474C63.4985 20.0601 63.6696 20.0601 63.8401 20.0474C63.9931 20.0323 64.1378 19.969 64.2546 19.866ZM55.7353 18.498C55.6132 18.4398 55.4748 18.4298 55.346 18.4696C55.2173 18.5095 55.1071 18.5966 55.0364 18.7144C54.9509 18.9537 54.8661 19.1932 54.7813 19.4329L54.7812 19.4329C54.6246 19.8754 54.4679 20.3181 54.3068 20.7597C54.2466 20.9778 54.1221 21.1712 53.9506 21.313C53.7791 21.4549 53.5689 21.5382 53.3494 21.5515C52.9321 21.5832 52.7094 21.3245 52.8221 20.9128C52.8918 20.6572 52.9801 20.4071 53.0688 20.1556L53.0688 20.1556L53.0688 20.1556L53.0688 20.1556L53.0688 20.1556L53.0688 20.1556L53.0688 20.1556C53.1037 20.0565 53.1388 19.9571 53.1728 19.8572C53.2399 19.6656 53.3076 19.4741 53.3776 19.2757L53.3776 19.2757L53.3777 19.2756L53.3777 19.2755C53.4678 19.0202 53.562 18.7536 53.6643 18.461H53.1958C53.1215 18.4532 53.0471 18.4736 52.9863 18.5183C52.9255 18.5629 52.8826 18.6289 52.8656 18.7038C52.7278 19.1139 52.5817 19.522 52.4356 19.93L52.4356 19.93L52.4356 19.93C52.34 20.1968 52.2445 20.4636 52.1514 20.7307C52.0963 20.8883 52.056 21.0509 52.031 21.2163C52.0102 21.3128 52.0086 21.4127 52.0264 21.5099C52.0441 21.6071 52.0807 21.6995 52.1341 21.7817C52.1874 21.8638 52.2564 21.934 52.3368 21.9879C52.4172 22.0417 52.5074 22.0782 52.6019 22.0952C53.0487 22.2209 53.5241 22.181 53.9451 21.9822C54.3662 21.7835 54.7062 21.4386 54.9058 21.0078C55.1438 20.4525 55.3419 19.8754 55.5393 19.2999C55.6159 19.0767 55.6924 18.8538 55.7711 18.6326C55.7755 18.6088 55.7745 18.5843 55.7683 18.561C55.7621 18.5377 55.7508 18.5161 55.7353 18.498ZM81.1601 19.4092C81.2323 19.203 81.3045 18.9966 81.3775 18.7908C81.5004 18.453 81.8178 18.3421 82.1839 18.548C82.0925 18.7992 82.0044 19.0507 81.9167 19.3014L81.9166 19.3017L81.9165 19.3017L81.9165 19.3018L81.9165 19.3018L81.9165 19.3019C81.7167 19.8726 81.5183 20.4392 81.2853 20.9892C81.09 21.4248 80.7517 21.7751 80.3301 21.9784C79.9085 22.1817 79.4309 22.2249 78.9814 22.1003C78.8829 22.0856 78.7887 22.0492 78.7051 21.9937C78.6215 21.9381 78.5504 21.8647 78.4968 21.7783C78.4431 21.6919 78.4081 21.5947 78.3941 21.4932C78.3801 21.3916 78.3875 21.2882 78.4156 21.1898C78.4995 20.8356 78.6177 20.4943 78.7349 20.1558C78.7679 20.0604 78.8009 19.9653 78.8329 19.8702C78.8863 19.7136 78.9426 19.5582 78.9988 19.4031L78.9988 19.403L78.9988 19.403L78.9988 19.4029C79.0827 19.1713 79.1664 18.9403 79.2399 18.7064C79.2537 18.6303 79.2949 18.5625 79.3552 18.5164C79.4155 18.4704 79.4905 18.4496 79.5651 18.4583L80.0284 18.482L79.9813 18.618C79.8861 18.8931 79.802 19.1359 79.7161 19.3767C79.6269 19.6349 79.5357 19.8912 79.4444 20.1479L79.4444 20.1479L79.4444 20.148L79.4443 20.1482L79.4442 20.1485L79.4438 20.1496L79.4435 20.1506C79.3858 20.3127 79.328 20.4751 79.2707 20.6382C79.24 20.728 79.2143 20.8151 79.1913 20.9021C79.0915 21.327 79.3116 21.5857 79.7366 21.5487C79.9535 21.5327 80.1604 21.4481 80.329 21.3064C80.4976 21.1647 80.6197 20.9728 80.6786 20.757C80.8439 20.3129 81.0019 19.8614 81.1601 19.4092ZM72.4255 19.0547H73.301C73.5928 19.0547 73.7822 18.8594 73.7438 18.4873H71.9135C71.829 18.4873 71.7087 18.614 71.6729 18.7064C71.2966 19.7383 70.9305 20.7755 70.567 21.8127C70.4953 22.0211 70.5363 22.0766 70.7564 22.0766H72.2028C72.5637 22.0766 72.6943 21.9367 72.6917 21.5065H71.3862C71.4159 21.4214 71.4442 21.3389 71.4719 21.2585L71.4719 21.2583C71.5515 21.0271 71.6252 20.8127 71.7087 20.6013C71.7288 20.5699 71.7552 20.5433 71.7861 20.5232C71.817 20.5032 71.8517 20.4902 71.8879 20.4852C72.0416 20.4764 72.1964 20.4793 72.3509 20.4822C72.428 20.4837 72.5049 20.4852 72.5816 20.4852C72.9144 20.4852 72.9554 20.4456 73.0399 20.1209C73.0783 19.9758 73.0399 19.9309 72.8991 19.9362H71.9442L71.9977 19.7882C72.0724 19.5818 72.1422 19.3891 72.2002 19.1946C72.2129 19.1458 72.2435 19.1039 72.2855 19.0778C72.3275 19.0517 72.3777 19.0434 72.4255 19.0547ZM61.7561 19.0548H60.8781C60.829 19.0471 60.7789 19.0592 60.7383 19.0888C60.6977 19.1183 60.6698 19.1629 60.6605 19.2132C60.6096 19.3703 60.5544 19.5252 60.4961 19.6884L60.496 19.6887L60.496 19.6887C60.4662 19.7721 60.4356 19.8576 60.4045 19.9468H61.5052C61.5206 20.3427 61.3849 20.4932 61.0393 20.4932H60.3456C60.3117 20.4961 60.2789 20.5068 60.2497 20.5247C60.2204 20.5425 60.1954 20.5669 60.1766 20.5961C60.1109 20.7554 60.0538 20.9199 59.9968 21.0841C59.9716 21.1565 59.9465 21.2289 59.9206 21.3007C59.9097 21.3318 59.9002 21.3637 59.889 21.4011C59.8793 21.4336 59.8684 21.4704 59.8541 21.5145H61.1341C61.175 21.9104 61.0291 22.0846 60.6912 22.0846H59.2218C58.9914 22.0819 58.9556 22.0318 59.0349 21.8022C59.395 20.787 59.7543 19.77 60.1126 18.7513C60.1314 18.6737 60.1755 18.6051 60.2375 18.5571C60.2995 18.509 60.3756 18.4844 60.4531 18.4874H62.1068C62.1387 18.4901 62.1704 18.4954 62.2015 18.5032C62.2374 18.8727 62.0863 19.0548 61.7561 19.0548ZM75.0241 18.4635H75.1879C75.3594 18.4609 75.3876 18.5268 75.3364 18.7037C75.0087 19.6467 74.6742 20.5907 74.3329 21.5355L74.2663 21.7097C74.1255 22.1135 73.8696 22.219 73.4446 22.029C73.5188 21.8205 73.5924 21.6114 73.666 21.4022C73.7396 21.1931 73.8132 20.9839 73.8875 20.7754C73.9415 20.6239 73.9959 20.4725 74.0503 20.3211C74.2358 19.8053 74.4213 19.2893 74.5914 18.767C74.6004 18.7177 74.6186 18.6707 74.6452 18.6287C74.6718 18.5867 74.7062 18.5506 74.7465 18.5224C74.7867 18.4942 74.8319 18.4744 74.8796 18.4643C74.9272 18.4542 74.9763 18.4539 75.0241 18.4635Z" fill="#041C4C"/>
<path d="M53.8849 18.1863L53.9105 18.1547C53.9642 18.1547 54.018 18.1547 54.0692 18.1336C54.1793 18.0923 54.2732 18.015 54.3365 17.9135C54.3999 17.8119 54.4292 17.6918 54.4199 17.5714C54.3789 17.4606 54.1101 17.4236 53.9079 17.5028L53.8721 17.5186C53.7415 17.5899 53.5828 17.8934 53.6442 18.0174C53.6852 18.094 53.8004 18.1309 53.8849 18.1863Z" fill="#455A64"/>
<path d="M55.0435 18.1626C55.1562 18.1468 55.2099 18.1415 55.2637 18.1283C55.3718 18.0882 55.4637 18.0117 55.5245 17.9111C55.5854 17.8106 55.6116 17.6919 55.5991 17.5741C55.5607 17.4606 55.2867 17.421 55.0871 17.5028H55.0691C54.9258 17.5715 54.762 17.8855 54.8285 18.0307C54.8772 18.1019 54.9975 18.1336 55.0435 18.1626Z" fill="#455A64"/>
<path d="M0.894287 40.6963H96.8913" stroke="#041C4C" stroke-width="0.964192" stroke-linecap="round" stroke-linejoin="round" stroke-dasharray="3.32 3.32"/>
</svg>
