<svg width="98" height="65" viewBox="0 0 98 65" fill="none" xmlns="http://www.w3.org/2000/svg">
<path d="M88.9301 0.451172H9.33401C4.67706 0.451172 0.901855 4.34335 0.901855 9.14458V55.8578C0.901855 60.659 4.67706 64.5512 9.33401 64.5512H88.9301C93.5871 64.5512 97.3623 60.659 97.3623 55.8578V9.14458C97.3623 4.34335 93.5871 0.451172 88.9301 0.451172Z" fill="#FC5454"/>
<path d="M88.9325 0.899956C91.0537 0.900656 93.0878 1.76989 94.5874 3.3165C96.0871 4.86311 96.9295 6.96046 96.9295 9.14735V55.8606C96.9288 58.0468 96.086 60.1432 94.5863 61.6888C93.0867 63.2344 91.053 64.1027 88.9325 64.1027H9.33389C7.21296 64.1027 5.17889 63.234 3.67917 61.6879C2.17944 60.1417 1.33691 58.0446 1.33691 55.8579V9.14471C1.33691 6.95783 2.17936 4.86047 3.67901 3.31386C5.17866 1.76725 7.21272 0.898022 9.33389 0.897323H88.9325M88.9325 0H9.33389C6.98252 0.0027952 4.72826 0.967239 3.06583 2.68167C1.40339 4.39611 0.468585 6.72049 0.466553 9.14471V55.8579C0.469263 58.2817 1.40437 60.6054 3.06673 62.3193C4.72909 64.0331 6.98296 64.9972 9.33389 65H88.9325C91.2835 64.9972 93.5374 64.0331 95.1997 62.3193C96.8621 60.6054 97.7972 58.2817 97.7999 55.8579V9.14471C97.7972 6.72094 96.8621 4.39724 95.1997 2.68337C93.5374 0.969509 91.2835 0.00543572 88.9325 0.00264174V0Z" fill="#041C4C"/>
<path d="M96.9277 46.9612H1.33765V9.15783C1.33765 8.07512 1.54449 7.00301 1.94638 6.00271C2.34826 5.00241 2.93731 4.09351 3.6799 3.32791C4.42249 2.56232 5.30408 1.95501 6.27432 1.54068C7.24456 1.12634 8.28445 0.913086 9.33463 0.913086H88.9333C89.9835 0.913086 91.0234 1.12634 91.9936 1.54068C92.9638 1.95501 93.8454 2.56232 94.588 3.32791C95.3306 4.09351 95.9196 5.00241 96.3215 6.00271C96.7234 7.00301 96.9303 8.07512 96.9303 9.15783L96.9277 46.9612Z" fill="#E13C36"/>
<path d="M0.901855 43.2797V9.15796C0.905239 6.85316 1.79464 4.64371 3.37517 3.01372C4.9557 1.38372 7.09847 0.466102 9.33401 0.461914H88.9327C91.1682 0.466102 93.311 1.38372 94.8915 3.01372C96.472 4.64371 97.3614 6.85316 97.3648 9.15796V43.2797H0.901855Z" fill="#D9DEFB"/>
<path d="M88.9325 0.913384C89.9827 0.913384 91.0226 1.12664 91.9929 1.54098C92.9631 1.95531 93.8447 2.56261 94.5873 3.32821C95.3298 4.09381 95.9189 5.00271 96.3208 6.00301C96.7227 7.00331 96.9295 8.07542 96.9295 9.15813V42.8312H1.33691V9.15813C1.33691 8.07542 1.54375 7.00331 1.94564 6.00301C2.34753 5.00271 2.93658 4.09381 3.67917 3.32821C4.42175 2.56261 5.30334 1.95531 6.27358 1.54098C7.24382 1.12664 8.28371 0.913384 9.33389 0.913384H88.9325ZM88.9325 0.0134277H9.33389C6.98252 0.0162229 4.72826 0.980659 3.06583 2.69509C1.40339 4.40953 0.468585 6.73391 0.466553 9.15813V43.7312H97.7973V9.15813C97.7953 6.73436 96.8608 4.41039 95.199 2.69603C93.5371 0.981669 91.2835 0.0169213 88.9325 0.0134277Z" fill="#041C4C"/>
<path d="M49.8878 0.913086H9.33463C8.28445 0.913086 7.24456 1.12634 6.27432 1.54068C5.30408 1.95501 4.42249 2.56232 3.6799 3.32791C2.93731 4.09351 2.34826 5.00241 1.94638 6.00271C1.54449 7.00301 1.33765 8.07512 1.33765 9.15784V42.5063L49.8878 0.913086Z" fill="#BBCDFB"/>
<path d="M26.0907 19.9573H15.0168C12.8636 19.9573 11.1182 21.7568 11.1182 23.9767V29.7301C11.1182 31.95 12.8636 33.7495 15.0168 33.7495H26.0907C28.2439 33.7495 29.9894 31.95 29.9894 29.7301V23.9767C29.9894 21.7568 28.2439 19.9573 26.0907 19.9573Z" fill="#F44D4D"/>
<path d="M26.0927 20.4057C27.0113 20.4057 27.8922 20.7819 28.5417 21.4516C29.1913 22.1212 29.5562 23.0295 29.5562 23.9765V29.7299C29.5528 30.6763 29.187 31.5831 28.5383 32.2529C27.8897 32.9226 27.0107 33.3011 26.0927 33.306H15.0162C14.0976 33.306 13.2167 32.9297 12.5672 32.2601C11.9176 31.5904 11.5527 30.6822 11.5527 29.7352V23.9818C11.5527 23.0348 11.9176 22.1265 12.5672 21.4569C13.2167 20.7872 14.0976 20.411 15.0162 20.411H26.0927M26.0927 19.5137H15.0162C13.8683 19.5185 12.7687 19.9908 11.9569 20.8277C11.1452 21.6646 10.6871 22.7983 10.6824 23.9818V29.7352C10.6871 30.9187 11.1452 32.0523 11.9569 32.8892C12.7687 33.7261 13.8683 34.1984 15.0162 34.2033H26.0927C27.2406 34.1984 28.3402 33.7261 29.152 32.8892C29.9637 32.0523 30.4218 30.9187 30.4265 29.7352V23.9818C30.4218 22.7983 29.9637 21.6646 29.152 20.8277C28.3402 19.9908 27.2406 19.5185 26.0927 19.5137Z" fill="#041C4C"/>
<path d="M11.5535 51.3H27.2377" stroke="#041C4C" stroke-width="0.964192" stroke-linecap="round" stroke-linejoin="round"/>
<path d="M31.3767 51.2998H47.0609" stroke="#041C4C" stroke-width="0.964192" stroke-linecap="round" stroke-linejoin="round"/>
<path d="M51.2039 51.2998H66.8855" stroke="#041C4C" stroke-width="0.964192" stroke-linecap="round" stroke-linejoin="round"/>
<path d="M71.0261 51.3003H86.7078" stroke="#041C4C" stroke-width="0.964192" stroke-linecap="round" stroke-linejoin="round"/>
<path d="M85.5327 16.2967C85.42 16.2782 85.3048 16.2624 85.1922 16.2413C84.6397 16.1316 84.1324 15.8516 83.7375 15.4383C83.3426 15.0251 83.0786 14.498 82.9805 13.9268C82.8934 13.456 82.9249 12.9701 83.0719 12.5154C83.2189 12.0608 83.4765 11.6526 83.8201 11.3298C84.2752 10.8756 84.8724 10.6033 85.5045 10.5618C86.1209 10.5067 86.7372 10.6686 87.2529 11.021L87.2913 11.0448V10.707H88.8707V16.1516H87.2964V15.8138L87.2529 15.8375C86.8713 16.1008 86.4306 16.2589 85.9729 16.2967L85.9192 16.3099L85.5327 16.2967ZM84.4243 13.3118C84.4108 13.5888 84.4757 13.8639 84.6111 14.1036C84.7262 14.2895 84.8789 14.4476 85.0588 14.567C85.2388 14.6863 85.4416 14.7641 85.6535 14.7949C85.8653 14.8257 86.0811 14.8089 86.2861 14.7456C86.491 14.6823 86.6802 14.574 86.8407 14.4282C86.9769 14.3067 87.0871 14.1573 87.1644 13.9896C87.2416 13.8219 87.2843 13.6395 87.2896 13.4539C87.2949 13.2683 87.2627 13.0836 87.1951 12.9115C87.1276 12.7394 87.0261 12.5836 86.8971 12.4541C86.6747 12.2302 86.3896 12.0843 86.0822 12.0369C85.7748 11.9895 85.4607 12.0431 85.1845 12.1902C84.9716 12.2893 84.7886 12.4458 84.6548 12.6432C84.521 12.8406 84.4413 13.0716 84.4243 13.3118Z" fill="#041C4C"/>
<path d="M68.8581 16.2965C68.7147 16.2728 68.5663 16.2569 68.4229 16.2226C67.8231 16.0866 67.2837 15.7498 66.889 15.2648C66.4942 14.7797 66.2662 14.1736 66.2405 13.5409C66.2148 12.9083 66.3928 12.2846 66.7468 11.7672C67.1008 11.2498 67.6109 10.8677 68.1976 10.6804C68.5864 10.5475 68.9992 10.507 69.4052 10.5618C69.8113 10.6167 70.2001 10.7655 70.5425 10.9971L70.609 11.0393V10.6989H72.1859V16.1514H70.6116V15.8109L70.5041 15.8822C70.1357 16.1162 69.7193 16.2581 69.2881 16.2965L69.2267 16.3097L68.8581 16.2965ZM69.0962 14.8186C69.3618 14.8286 69.6256 14.7706 69.8641 14.6497C70.0576 14.5538 70.2254 14.4106 70.3529 14.2325C70.4804 14.0544 70.5637 13.8469 70.5955 13.628C70.6273 13.4091 70.6067 13.1855 70.5354 12.9767C70.4642 12.7679 70.3444 12.5803 70.1867 12.4302C69.925 12.1843 69.5872 12.0419 69.2334 12.0284C68.8796 12.0149 68.5326 12.131 68.254 12.3563C67.9875 12.5665 67.8105 12.875 67.7599 13.217C67.7093 13.559 67.7891 13.9079 67.9826 14.1905C68.1057 14.3806 68.2709 14.538 68.4644 14.6494C68.658 14.7609 68.8746 14.8234 69.0962 14.8318V14.8186Z" fill="#041C4C"/>
<path d="M82.3799 16.1515H80.803V16.0592C80.803 15.146 80.803 14.2329 80.803 13.3197C80.8027 13.1473 80.7829 12.9755 80.7441 12.8077C80.6986 12.6047 80.5898 12.4226 80.4345 12.2892C80.2793 12.1558 80.0859 12.0784 79.884 12.0688C79.6917 12.0463 79.497 12.0624 79.3106 12.1163C79.1009 12.1772 78.9145 12.3035 78.777 12.4778C78.6395 12.6521 78.5577 12.866 78.5427 13.0901C78.5427 13.1825 78.5298 13.2775 78.5298 13.3699V16.1515H76.9402V10.7069H78.5094V11.2955L78.535 11.277C78.6777 11.0866 78.8558 10.9274 79.0588 10.8087C79.2619 10.69 79.4858 10.6141 79.7176 10.5855C80.2576 10.4854 80.8146 10.5717 81.3022 10.831C81.6308 10.9934 81.9075 11.2494 82.0995 11.5689C82.2914 11.8884 82.3905 12.2578 82.385 12.6335C82.4004 13.7869 82.385 14.9402 82.385 16.0961C82.3824 16.112 82.3799 16.1278 82.3799 16.1515Z" fill="#041C4C"/>
<path d="M62.8225 8.27637C62.8246 9.1062 62.6674 9.92826 62.3598 10.6951C62.0523 11.462 61.6005 12.1585 61.0306 12.7445L63.4369 16.1516H63.3677H61.3352C61.3163 16.1535 61.2973 16.1501 61.2802 16.1417C61.2631 16.1334 61.2485 16.1204 61.2379 16.1041C60.3847 14.8989 59.5314 13.6946 58.6781 12.4911L58.655 12.4594L58.6934 12.4225C58.9904 12.1876 59.3001 11.9686 59.5817 11.7152C60.3626 11.0276 60.877 10.0728 61.0306 9.02589C61.0639 8.80684 61.0715 8.58515 61.092 8.36346C61.092 8.33443 61.092 8.30804 61.092 8.27637H62.8225Z" fill="#041C4C"/>
<path d="M58.4192 16.1518H56.6785V8.28711H58.4243L58.4192 16.1518Z" fill="#041C4C"/>
<path d="M63.9509 8.27637H65.5995V16.1516H63.9509V8.27637Z" fill="#041C4C"/>
<path d="M74.6384 11.4013C74.8317 11.1789 75.0685 11.0014 75.3332 10.8804C75.598 10.7594 75.8847 10.6976 76.1743 10.6992V12.2827C76.0488 12.3012 75.9183 12.3118 75.8056 12.3408C75.4943 12.4079 75.2076 12.5643 74.9788 12.7921C74.868 12.9024 74.7804 13.035 74.7214 13.1816C74.6624 13.3282 74.6333 13.4858 74.6358 13.6446C74.6358 14.4363 74.6358 15.2544 74.6358 16.0594V16.1518H73.0154V10.7072H74.6281L74.6384 11.4013Z" fill="#041C4C"/>
<path d="M91.5568 15.2413C91.5568 15.4438 91.4985 15.6418 91.3894 15.8102C91.2802 15.9786 91.1251 16.1098 90.9436 16.1873C90.7621 16.2648 90.5624 16.2851 90.3698 16.2456C90.1771 16.2061 90.0001 16.1086 89.8612 15.9654C89.7223 15.8221 89.6277 15.6397 89.5894 15.441C89.5511 15.2424 89.5707 15.0365 89.6459 14.8494C89.7211 14.6623 89.8484 14.5024 90.0117 14.3899C90.175 14.2773 90.3671 14.2173 90.5635 14.2173C90.8265 14.2187 91.0784 14.327 91.2644 14.5187C91.4503 14.7105 91.5554 14.9701 91.5568 15.2413Z" fill="#041C4C"/>
<path d="M1.38574 40.6958H97.3803" stroke="#041C4C" stroke-width="0.964192" stroke-linecap="round" stroke-linejoin="round" stroke-dasharray="3.32 3.32"/>
</svg>
