<svg width="98" height="65" viewBox="0 0 98 65" fill="none" xmlns="http://www.w3.org/2000/svg">
<path d="M88.9348 0.451172H9.33447C4.67728 0.451172 0.901855 4.34319 0.901855 9.14423V55.8556C0.901855 60.6566 4.67728 64.5486 9.33447 64.5486H88.9348C93.5919 64.5486 97.3674 60.6566 97.3674 55.8556V9.14423C97.3674 4.34319 93.5919 0.451172 88.9348 0.451172Z" fill="#4A9CFF"/>
<path d="M88.9346 0.89992C91.0559 0.90062 93.0901 1.76982 94.5898 3.31636C96.0895 4.86291 96.932 6.96018 96.932 9.14698V55.8583C96.932 58.0449 96.0895 60.1419 94.5897 61.688C93.0898 63.2341 91.0557 64.1027 88.9346 64.1027H9.33689C8.28644 64.1031 7.24624 63.8901 6.27565 63.4759C5.30507 63.0618 4.42313 62.4545 3.68023 61.6889C2.93733 60.9233 2.34802 60.0144 1.94595 59.0139C1.54389 58.0135 1.33692 56.9412 1.33692 55.8583V9.14698C1.33692 6.95972 2.17979 4.86205 3.68007 3.31543C5.18036 1.76881 7.21517 0.89992 9.33689 0.89992H88.9346ZM88.9346 0.00264164H9.33689C6.98495 0.00473812 4.72993 0.968832 3.06685 2.68327C1.40378 4.39772 0.468586 6.72239 0.466553 9.14698V55.8583C0.469264 58.2824 1.40476 60.6064 3.06776 62.3203C4.73076 64.0342 6.98539 64.9979 9.33689 65H88.9346C91.2857 64.9965 93.5394 64.0318 95.2014 62.3175C96.8634 60.6032 97.7979 58.2793 97.7999 55.8557V9.14434C97.7979 6.72021 96.863 4.39593 95.2005 2.68157C93.538 0.9672 91.2836 0.00279509 88.9321 0L88.9346 0.00264164Z" fill="#041C4C"/>
<path d="M9.33761 0.899903H88.9354C91.0564 0.899903 93.0906 1.76851 94.5904 3.31464C96.0902 4.86077 96.9328 6.95777 96.9328 9.14433V46.9488H1.33765V9.14696C1.33731 8.06384 1.54401 6.99128 1.94593 5.99054C2.34784 4.98981 2.93711 4.08052 3.68004 3.31464C4.42298 2.54876 5.30503 1.9413 6.27578 1.52697C7.24653 1.11264 8.28695 0.899556 9.33761 0.899903Z" fill="#2E79FB"/>
<path d="M0.901855 43.2672V9.14686C0.905247 6.83941 1.79679 4.62766 3.38072 2.99728C4.96465 1.3669 7.1115 0.451169 9.34982 0.451172H88.9476C91.1832 0.45536 93.3261 1.37293 94.9067 3.00286C96.4873 4.63279 97.3768 6.84215 97.3801 9.14686V43.2672H0.901855Z" fill="#D9DEFB"/>
<path d="M88.9346 0.899964C91.0559 0.900663 93.0901 1.76986 94.5898 3.31641C96.0895 4.86296 96.932 6.96022 96.932 9.14702V42.8188H1.33692V9.14702C1.33692 6.95976 2.17979 4.8621 3.68007 3.31547C5.18036 1.76885 7.21517 0.899964 9.33689 0.899964H88.9346ZM88.9346 0.00268555H9.33689C6.98495 0.00478203 4.72993 0.968876 3.06685 2.68332C1.40378 4.39776 0.468586 6.72243 0.466553 9.14702V43.7187H97.7999V9.14702C97.7979 6.72289 96.863 4.39861 95.2005 2.68424C93.538 0.969878 91.2836 0.00548064 88.9321 0.00268555H88.9346Z" fill="#041C4C"/>
<path d="M49.8904 0.899902H9.33761C7.21589 0.899902 5.18108 1.76879 3.68079 3.31541C2.18051 4.86204 1.33765 6.9597 1.33765 9.14696V42.4941L49.8904 0.899902Z" fill="#BBCDFB"/>
<path d="M26.0942 19.9463H15.0197C12.8664 19.9463 11.1208 21.7458 11.1208 23.9656V29.7187C11.1208 31.9385 12.8664 33.738 15.0197 33.738H26.0942C28.2475 33.738 29.9931 31.9385 29.9931 29.7187V23.9656C29.9931 21.7458 28.2475 19.9463 26.0942 19.9463Z" fill="#4A9CFF"/>
<path d="M26.0958 20.3943C27.0145 20.3943 27.8955 20.7705 28.545 21.4402C29.1946 22.1098 29.5595 23.018 29.5595 23.965V29.7181C29.5595 30.6651 29.1946 31.5733 28.545 32.243C27.8955 32.9126 27.0145 33.2888 26.0958 33.2888H15.0213C14.1027 33.2888 13.2217 32.9126 12.5722 32.243C11.9226 31.5733 11.5577 30.6651 11.5577 29.7181V23.965C11.5573 23.496 11.6467 23.0315 11.8206 22.5982C11.9946 22.1648 12.2497 21.771 12.5714 21.4394C12.8931 21.1078 13.275 20.8448 13.6954 20.6654C14.1158 20.4861 14.5664 20.394 15.0213 20.3943H26.0958ZM26.0958 19.4971H15.0213C13.8721 19.4978 12.7701 19.9687 11.9574 20.8065C11.1448 21.6442 10.6879 22.7802 10.6873 23.965V29.7181C10.692 30.9016 11.1501 32.0352 11.9619 32.8721C12.7737 33.7089 13.8733 34.1812 15.0213 34.1861H26.0958C27.2439 34.1812 28.3435 33.7089 29.1553 32.8721C29.967 32.0352 30.4252 30.9016 30.4299 29.7181V23.965C30.4292 22.7802 29.9724 21.6442 29.1597 20.8065C28.3471 19.9687 27.2451 19.4978 26.0958 19.4971Z" fill="#041C4C"/>
<path d="M11.5564 51.2981H27.2389" stroke="#041C4C" stroke-width="0.964192" stroke-linecap="round" stroke-linejoin="round"/>
<path d="M31.3806 51.2979H47.0656" stroke="#041C4C" stroke-width="0.964192" stroke-linecap="round" stroke-linejoin="round"/>
<path d="M51.2048 51.2979H66.8899" stroke="#041C4C" stroke-width="0.964192" stroke-linecap="round" stroke-linejoin="round"/>
<path d="M71.031 51.2979H86.716" stroke="#041C4C" stroke-width="0.964192" stroke-linecap="round" stroke-linejoin="round"/>
<path d="M52.0309 17.4258C51.4319 17.4258 50.8329 17.4258 50.2389 17.4258C49.9829 17.4258 49.8652 17.2806 49.9062 17.0088C50.0111 16.3358 50.111 15.6629 50.2159 14.9899C50.3004 14.4463 50.3874 13.9026 50.4719 13.359C50.5564 12.8153 50.6178 12.3509 50.6972 11.8468C50.7868 11.2504 50.8841 10.6539 50.9762 10.0575C51.0428 9.62999 51.1068 9.20246 51.1733 8.77493C51.1899 8.67359 51.241 8.58168 51.3175 8.51585C51.3941 8.45001 51.491 8.4146 51.5906 8.41602C52.7221 8.41602 53.8562 8.40283 54.9877 8.41602C55.5733 8.39481 56.1521 8.55176 56.6517 8.8673C56.8895 9.0224 57.0865 9.23549 57.2253 9.48773C57.3642 9.73996 57.4406 10.0236 57.4479 10.3135C57.4479 10.5405 57.43 10.7621 57.4197 10.9865L57.3941 11.0102C57.3737 10.9627 57.3301 10.9495 57.2892 10.931C56.8839 10.7558 56.4487 10.6661 56.0092 10.6671C55.1567 10.6539 54.3042 10.6671 53.4492 10.6671C53.3484 10.661 53.2491 10.6947 53.1716 10.7614C53.0941 10.8281 53.0441 10.9227 53.0319 11.026C52.9909 11.29 52.95 11.5539 52.9116 11.8019C52.799 12.5329 52.6863 13.2613 52.5788 13.995C52.5788 14.0768 52.5097 14.1665 52.5788 14.2589C52.5183 14.4526 52.4788 14.6526 52.461 14.8553C52.4047 15.201 52.3561 15.5468 52.3023 15.8925C52.2588 16.1828 52.2204 16.4731 52.1692 16.7607C52.1396 16.9857 52.0934 17.208 52.0309 17.4258Z" fill="#003087"/>
<path d="M64.4304 14.9237H63.88C63.7979 14.9208 63.7179 14.9507 63.6568 15.0073C63.5957 15.0639 63.5582 15.1427 63.5523 15.2272C63.4755 15.755 63.3962 16.2731 63.3143 16.7816C63.3036 16.8574 63.2659 16.9263 63.2087 16.9751C63.1514 17.0238 63.0787 17.0489 63.0045 17.0455H61.96C61.9292 17.0493 61.898 17.0451 61.8692 17.0332C61.8404 17.0212 61.8151 17.002 61.7954 16.9773C61.7757 16.9525 61.7625 16.9231 61.7568 16.8916C61.7511 16.8602 61.7532 16.8278 61.7629 16.7974C61.8576 16.1773 61.9498 15.5571 62.0445 14.9501C62.1392 14.3431 62.2237 13.7836 62.3133 13.203C62.4029 12.6224 62.5002 11.9891 62.5923 11.3821C62.6128 11.2528 62.6333 11.1182 62.6512 10.9915C62.6519 10.9458 62.662 10.9008 62.6808 10.8595C62.6996 10.8181 62.7267 10.7814 62.7604 10.7517C62.7941 10.722 62.8335 10.7 62.876 10.6872C62.9185 10.6744 62.9632 10.6711 63.0071 10.6775C63.7392 10.6775 64.4714 10.6775 65.2035 10.6775C65.6025 10.6663 65.9987 10.7475 66.3632 10.915C66.5912 11.0208 66.7849 11.1921 66.921 11.4082C67.0572 11.6244 67.1302 11.8765 67.1312 12.1342C67.1713 12.7705 67.0144 13.4035 66.6832 13.942C66.5312 14.1785 66.3346 14.381 66.105 14.5375C65.8754 14.6939 65.6175 14.801 65.3469 14.8524C65.0455 14.9155 64.7376 14.9395 64.4304 14.9237ZM64.1232 13.6543C64.2831 13.6604 64.4433 13.6524 64.6019 13.6306C64.7436 13.6302 64.8831 13.5935 65.0077 13.524C65.1323 13.4545 65.2383 13.3542 65.3162 13.2321C65.417 13.0498 65.4683 12.8428 65.4646 12.633C65.4839 12.4881 65.4476 12.3412 65.3635 12.2234C65.2794 12.1057 65.154 12.0263 65.0141 12.0023C64.7473 11.9531 64.4756 11.938 64.2051 11.9574C64.1626 11.9564 64.1211 11.9718 64.089 12.0006C64.0568 12.0294 64.0361 12.0695 64.0311 12.1131L63.8006 13.5936C63.8006 13.6464 63.816 13.6543 63.8596 13.6543C63.9031 13.6543 64.008 13.6543 64.1232 13.6543Z" fill="#003087"/>
<path d="M80.3052 14.9268H79.7932C79.7474 14.9205 79.7008 14.9241 79.6564 14.9376C79.6121 14.951 79.571 14.9739 79.5357 15.0047C79.5005 15.0356 79.4719 15.0737 79.4519 15.1166C79.4319 15.1596 79.4208 15.2064 79.4194 15.254C79.3401 15.7818 79.2607 16.3096 79.1788 16.8374C79.1779 16.8674 79.171 16.8968 79.1586 16.9239C79.1462 16.9511 79.1285 16.9753 79.1067 16.9951C79.0849 17.0148 79.0593 17.0298 79.0316 17.039C79.004 17.0482 78.9748 17.0515 78.9458 17.0486H77.8322C77.6838 17.0486 77.6121 16.9509 77.6377 16.7847C77.793 15.7589 77.9483 14.7323 78.1036 13.7049C78.2453 12.79 78.3877 11.8742 78.5311 10.9576C78.5326 10.9148 78.5427 10.8727 78.5607 10.8341C78.5787 10.7955 78.6042 10.7611 78.6357 10.7331C78.6671 10.7051 78.7039 10.6841 78.7436 10.6714C78.7833 10.6587 78.8252 10.6546 78.8665 10.6594C79.7215 10.6594 80.5791 10.6277 81.4265 10.6831C81.7509 10.6971 82.0672 10.7922 82.3481 10.9602C82.5344 11.0702 82.6909 11.2267 82.8031 11.4153C82.9154 11.6039 82.9799 11.8186 82.9906 12.0396C83.0436 12.6585 82.9114 13.2793 82.6117 13.8184C82.4706 14.0722 82.2791 14.2926 82.0497 14.4649C81.8203 14.6373 81.5582 14.7578 81.2805 14.8186C80.9616 14.8994 80.6335 14.9358 80.3052 14.9268ZM79.9749 13.6336C80.1362 13.6336 80.2949 13.6336 80.4537 13.6336C80.6259 13.6284 80.7941 13.5785 80.9426 13.4885C81.0892 13.374 81.2031 13.221 81.2725 13.0454C81.3418 12.8699 81.3641 12.6784 81.3368 12.4909C81.324 12.3758 81.2768 12.2676 81.2015 12.1815C81.1262 12.0954 81.0268 12.0357 80.917 12.0106C80.6394 11.9509 80.3548 11.9331 80.0722 11.9578C80.0293 11.9591 79.9885 11.9768 79.9577 12.0076C79.9269 12.0384 79.9084 12.0799 79.9058 12.1241C79.8418 12.5331 79.7753 12.9422 79.7189 13.3512C79.7036 13.4462 79.637 13.565 79.6985 13.631C79.7599 13.697 79.8802 13.6415 79.9749 13.6336Z" fill="#009CDD"/>
<path d="M57.3843 11.0154L57.4099 10.9917C58.0704 11.3664 58.2521 11.984 58.2112 12.7044C58.1861 13.2353 58.0536 13.7549 57.822 14.2298C57.6428 14.5992 57.3811 14.9196 57.0585 15.1646C56.7358 15.4095 56.3615 15.5722 55.9661 15.6391C55.6201 15.7055 55.2682 15.7338 54.9165 15.7235C54.599 15.7235 54.4761 15.8291 54.4249 16.1484C54.32 16.8055 54.215 17.4679 54.1203 18.1224C54.1178 18.1817 54.1036 18.2397 54.0787 18.2931C54.0538 18.3466 54.0185 18.3942 53.9752 18.4332C53.9319 18.4722 53.8814 18.5017 53.8267 18.5199C53.772 18.5382 53.7142 18.5448 53.6569 18.5394C53.1654 18.5236 52.6714 18.5394 52.1799 18.5394C51.9648 18.5394 51.8778 18.4286 51.9239 18.2095C51.9648 17.9456 52.0032 17.6817 52.0416 17.431C52.0974 17.211 52.1367 16.9869 52.1594 16.7607C52.2106 16.473 52.249 16.1827 52.2925 15.8924C52.3462 15.5467 52.3949 15.201 52.4512 14.8553C52.4689 14.6526 52.5084 14.4526 52.5689 14.2588C52.6021 14.2054 52.646 14.1598 52.6977 14.1252C52.7493 14.0906 52.8076 14.0678 52.8685 14.0583C53.2185 14.0297 53.5699 14.0235 53.9206 14.0398C54.2905 14.043 54.6593 13.9996 55.0189 13.9105C55.5779 13.7842 56.0898 13.4947 56.4934 13.0766C56.7838 12.7648 57.0087 12.3947 57.1539 11.9893C57.2727 11.6768 57.3502 11.3492 57.3843 11.0154Z" fill="#009CDD"/>
<path d="M70.5481 13.2641C70.5635 13.1532 70.5762 13.082 70.5865 13.0002C70.5856 12.9701 70.591 12.9403 70.6022 12.9125C70.6134 12.8848 70.6302 12.8598 70.6516 12.8394C70.6729 12.8189 70.6982 12.8033 70.7258 12.7937C70.7535 12.7842 70.7827 12.7807 70.8117 12.7838H71.8204C71.8515 12.7801 71.883 12.7843 71.9122 12.796C71.9414 12.8078 71.9674 12.8267 71.9878 12.8512C72.0083 12.8757 72.0226 12.9049 72.0296 12.9364C72.0365 12.9679 72.0359 13.0007 72.0277 13.0318C71.9817 13.3591 71.9279 13.6863 71.8793 14.0136C71.7999 14.5282 71.7231 15.0402 71.6437 15.5548C71.5797 15.9638 71.5183 16.3703 71.4517 16.7793C71.4417 16.8534 71.4057 16.9212 71.3506 16.9698C71.2954 17.0185 71.2248 17.0446 71.1522 17.0432H70.1922C70.1662 17.0471 70.1397 17.0446 70.1149 17.0357C70.09 17.0268 70.0676 17.0119 70.0496 16.9922C70.0315 16.9726 70.0183 16.9487 70.011 16.9227C70.0038 16.8966 70.0027 16.8692 70.0079 16.8426C70.0079 16.7476 70.0259 16.6553 70.0361 16.5418C69.8284 16.7595 69.5729 16.9225 69.2911 17.0168C68.6179 17.2332 67.9599 17.2332 67.3839 16.7529C67.2159 16.6036 67.0791 16.4206 66.9819 16.2151C66.8846 16.0096 66.8289 15.7858 66.8182 15.5574C66.7817 15.1957 66.8181 14.8301 66.9252 14.4836C67.0322 14.1371 67.2076 13.8172 67.4403 13.5438C67.809 13.0882 68.3311 12.7932 68.902 12.7178C69.1994 12.6768 69.5014 12.6875 69.7954 12.7495C69.9498 12.7731 70.0973 12.8315 70.2273 12.9204C70.3574 13.0094 70.4669 13.1267 70.5481 13.2641ZM69.1145 15.9876C69.4222 15.9981 69.7225 15.8884 69.9551 15.6804C70.1877 15.4724 70.3355 15.1815 70.3689 14.866C70.3993 14.6714 70.3634 14.472 70.2672 14.3017C70.1711 14.1314 70.0206 14.0006 69.8415 13.9318C69.548 13.8285 69.2271 13.8474 68.9469 13.9844C68.6667 14.1215 68.4495 14.3658 68.3414 14.6654C68.2813 14.8022 68.2502 14.9507 68.2502 15.1009C68.2502 15.251 68.2813 15.3995 68.3414 15.5363C68.4164 15.6815 68.5304 15.8013 68.6698 15.8813C68.8092 15.9614 68.9681 15.9983 69.1273 15.9876H69.1145Z" fill="#003087"/>
<path d="M86.4203 13.2478C86.4382 13.1554 86.4484 13.0947 86.4561 13.034C86.4868 12.8308 86.5329 12.7859 86.7274 12.7859H87.6619C87.8538 12.7859 87.9178 12.873 87.8999 13.063L87.5313 15.4619C87.4647 15.9 87.3982 16.3407 87.3265 16.7815C87.3199 16.8566 87.2853 16.9262 87.2299 16.9754C87.1745 17.0247 87.1026 17.0498 87.0295 17.0454C86.7095 17.0454 86.3895 17.0454 86.0695 17.0454C85.939 17.0454 85.8775 16.9688 85.8801 16.8316C85.8801 16.7867 85.8801 16.7419 85.898 16.6996C85.9159 16.6574 85.898 16.6099 85.9134 16.5466C85.5792 16.8747 85.1501 17.081 84.6915 17.1339C84.2329 17.1868 83.7701 17.0834 83.3739 16.8395C83.1937 16.7089 83.0419 16.541 82.9282 16.3465C82.8144 16.152 82.7413 15.9353 82.7134 15.71C82.6267 15.1663 82.7072 14.6084 82.9436 14.1143C83.18 13.6202 83.5605 13.2147 84.0318 12.9548C84.3264 12.7962 84.6504 12.7038 84.9822 12.6838C85.3141 12.6638 85.6463 12.7166 85.9569 12.8387C86.1531 12.9148 86.3171 13.0596 86.4203 13.2478ZM85.0302 15.9792C85.3001 15.9842 85.5638 15.8945 85.7777 15.7247C85.9917 15.555 86.1434 15.3153 86.2078 15.045C86.2623 14.8847 86.272 14.7119 86.2358 14.5462C86.1996 14.3805 86.1189 14.2287 86.003 14.1081C85.8726 13.9852 85.7121 13.9013 85.5389 13.8654C85.3657 13.8296 85.1862 13.8433 85.0199 13.9049C84.7241 13.9883 84.4704 14.1849 84.3105 14.4547C84.1507 14.7245 84.0967 15.047 84.1598 15.3564C84.2097 15.5503 84.3243 15.7198 84.4835 15.8352C84.6427 15.9506 84.8363 16.0044 85.0302 15.9871V15.9792Z" fill="#009CDD"/>
<path d="M74.7317 15.1535C74.8802 14.9265 75.0261 14.7075 75.172 14.4885L76.196 12.9525C76.2251 12.9033 76.2661 12.8628 76.3151 12.835C76.364 12.8072 76.4192 12.7932 76.4751 12.7942C76.8181 12.7942 77.1637 12.7942 77.4991 12.7942C77.537 12.79 77.5752 12.7976 77.609 12.8159C77.6427 12.8342 77.6704 12.8625 77.6885 12.8971C77.7056 12.9344 77.7123 12.976 77.7078 13.017C77.7033 13.058 77.6877 13.0969 77.6629 13.1293C77.2328 13.7645 76.8062 14.4014 76.3829 15.04L74.1557 18.3626C74.1224 18.4185 74.0751 18.4641 74.0188 18.4948C73.9625 18.5254 73.8993 18.5399 73.8357 18.5368C73.5004 18.5368 73.1624 18.5368 72.8271 18.5368C72.7876 18.5432 72.7471 18.5365 72.7117 18.5175C72.6762 18.4985 72.6476 18.4682 72.63 18.4312C72.6135 18.3937 72.6078 18.3521 72.6137 18.3114C72.6196 18.2706 72.6368 18.2325 72.6633 18.2016C73.0037 17.7107 73.3391 17.2172 73.6873 16.729C73.7138 16.6966 73.7309 16.6571 73.7368 16.6152C73.7427 16.5732 73.737 16.5303 73.7205 16.4915C73.3467 15.3752 72.9807 14.2562 72.6044 13.1373C72.5199 12.8865 72.6479 12.781 72.8424 12.7915C73.1445 12.8047 73.4491 12.7915 73.7538 12.7915C73.8441 12.7817 73.9346 12.8084 74.0063 12.866C74.0779 12.9236 74.125 13.0076 74.1378 13.1003C74.3272 13.7733 74.5243 14.4489 74.7189 15.1218C74.7035 15.1298 74.7112 15.135 74.7317 15.1535Z" fill="#003087"/>
<path d="M89.6817 10.6699H90.1476C90.3217 10.6699 90.4036 10.7675 90.3704 10.9338C90.2475 11.7255 90.1144 12.533 89.9992 13.3327C89.8507 14.3038 89.7031 15.2715 89.5563 16.2356C89.5307 16.4072 89.5077 16.5787 89.4795 16.7476C89.4766 16.789 89.4657 16.8294 89.4475 16.8665C89.4292 16.9035 89.4039 16.9363 89.3731 16.9632C89.3424 16.99 89.3067 17.0101 89.2683 17.0225C89.2298 17.0349 89.1893 17.0392 89.1492 17.0353C88.8574 17.0353 88.5656 17.0353 88.2737 17.0353C88.1176 17.0353 88.0433 16.9508 88.0664 16.7898C88.1304 16.3386 88.2021 15.8899 88.2712 15.4386L88.5477 13.5913L88.8702 11.4985C88.9009 11.3006 88.9291 11.1027 88.9572 10.9021C88.9854 10.7015 89.0468 10.6382 89.2491 10.6382L89.6817 10.6699Z" fill="#009CDD"/>
<path d="M57.3848 11.0155C57.3421 11.3487 57.2559 11.6745 57.1288 11.984C56.9835 12.3894 56.7587 12.7596 56.4683 13.0713C56.0647 13.4895 55.5528 13.779 54.9938 13.9052C54.6342 13.9944 54.2653 14.0378 53.8955 14.0346C53.5448 14.0183 53.1934 14.0245 52.8434 14.053C52.7825 14.0626 52.7242 14.0854 52.6726 14.12C52.6209 14.1546 52.577 14.2001 52.5438 14.2536C52.4798 14.1665 52.5438 14.0768 52.5438 13.9897C52.6513 13.256 52.764 12.5277 52.8766 11.7966C52.915 11.5327 52.956 11.2688 52.9969 11.0208C53.0091 10.9174 53.0591 10.8228 53.1366 10.7561C53.2142 10.6894 53.3134 10.6557 53.4142 10.6618C54.2667 10.6618 55.1192 10.6618 55.9742 10.6618C56.4137 10.6608 56.8489 10.7505 57.2542 10.9258C57.3208 10.9548 57.3643 10.968 57.3848 11.0155Z" fill="#012169"/>
<path d="M1.28882 40.6943H97.2884" stroke="#041C4C" stroke-width="0.964192" stroke-linecap="round" stroke-linejoin="round" stroke-dasharray="3.32 3.32"/>
</svg>
