<svg width="98" height="65" viewBox="0 0 98 65" fill="none" xmlns="http://www.w3.org/2000/svg">
<path d="M88.933 0.451172H9.33473C4.67766 0.451172 0.902344 4.34335 0.902344 9.14458V55.8578C0.902344 60.659 4.67766 64.5512 9.33473 64.5512H88.933C93.59 64.5512 97.3653 60.659 97.3653 55.8578V9.14458C97.3653 4.34335 93.59 0.451172 88.933 0.451172Z" fill="#FFCC4D"/>
<path d="M88.9249 0.899956C91.0466 0.899956 93.0813 1.76888 94.5816 3.31556C96.0818 4.86225 96.9246 6.96 96.9246 9.14735V55.8606C96.9243 56.9433 96.7171 58.0153 96.3149 59.0155C95.9127 60.0157 95.3234 60.9244 94.5805 61.6897C93.8377 62.4551 92.9559 63.0621 91.9855 63.4761C91.0151 63.8901 89.9751 64.103 88.9249 64.1027H9.33437C7.21338 64.1027 5.17925 63.234 3.67949 61.6879C2.17972 60.1417 1.33717 58.0446 1.33717 55.8579V9.14471C1.33717 6.95783 2.17965 4.86047 3.67934 3.31386C5.17903 1.76725 7.21315 0.898022 9.33437 0.897323H88.9249M88.9249 0H9.33437C6.98293 0.0027952 4.72861 0.967239 3.06613 2.68167C1.40365 4.39611 0.468829 6.72049 0.466797 9.14471V55.8579C0.469507 58.2817 1.40463 60.6054 3.06704 62.3193C4.72944 64.0331 6.98338 64.9972 9.33437 65H88.9249C91.2763 64.9979 93.5309 64.0341 95.1939 62.3202C96.8568 60.6063 97.7923 58.2822 97.795 55.8579V9.14471C97.7923 6.72049 96.8568 4.39639 95.1939 2.68245C93.5309 0.968507 91.2763 0.00473721 88.9249 0.00264174V0Z" fill="#041C4C"/>
<path d="M96.9305 46.9507H1.33789V9.14729C1.33789 6.96041 2.18037 4.86305 3.68006 3.31644C5.17975 1.76983 7.21387 0.900602 9.33509 0.899902H88.9256C91.0473 0.899902 93.0821 1.76882 94.5823 3.31551C96.0826 4.8622 96.9254 6.95995 96.9254 9.14729L96.9305 46.9507Z" fill="#F2AC20"/>
<path d="M0.902344 43.269V9.14722C0.905727 6.84241 1.79514 4.63296 3.37571 3.00297C4.95629 1.37297 7.09913 0.45536 9.33474 0.451172H88.9253C91.1635 0.451169 93.3103 1.36694 94.8942 2.99738C96.4781 4.62783 97.3696 6.83967 97.373 9.14722V43.269H0.902344Z" fill="#D9DEFB"/>
<path d="M88.9249 0.9C91.0466 0.9 93.0813 1.76892 94.5816 3.31561C96.0818 4.86229 96.9246 6.96005 96.9246 9.14739V42.8205H1.33717V9.14739C1.33717 6.9605 2.17965 4.86315 3.67934 3.31654C5.17903 1.76993 7.21315 0.9007 9.33437 0.9H88.9249ZM88.9249 0.00268555H9.33437C6.98293 0.00548075 4.72861 0.969917 3.06613 2.68435C1.40365 4.39879 0.468829 6.72316 0.466797 9.14739V43.7205H97.8001V9.14739C97.7981 6.72179 96.8622 4.39622 95.1981 2.68156C93.5339 0.966895 91.2777 0.00338406 88.9249 0.00268555Z" fill="#041C4C"/>
<path d="M49.8868 0.899902H9.33509C7.21387 0.900602 5.17975 1.76983 3.68006 3.31644C2.18037 4.86305 1.33789 6.96041 1.33789 9.14729V42.4958L49.8868 0.899902Z" fill="#BBCDFB"/>
<path d="M26.0921 19.9468H15.0179C12.8647 19.9468 11.1191 21.7463 11.1191 23.9662V29.7196C11.1191 31.9395 12.8647 33.7391 15.0179 33.7391H26.0921C28.2453 33.7391 29.9909 31.9395 29.9909 29.7196V23.9662C29.9909 21.7463 28.2453 19.9468 26.0921 19.9468Z" fill="#FFCC4D"/>
<path d="M26.0943 20.3954C27.0129 20.3954 27.8939 20.7716 28.5434 21.4412C29.193 22.1109 29.5579 23.0191 29.5579 23.9662V29.7195C29.5579 30.6666 29.193 31.5748 28.5434 32.2445C27.8939 32.9141 27.0129 33.2903 26.0943 33.2903H15.0175C14.0989 33.2903 13.218 32.9141 12.5684 32.2445C11.9189 31.5748 11.554 30.6666 11.554 29.7195V23.9662C11.554 23.0191 11.9189 22.1109 12.5684 21.4412C13.218 20.7716 14.0989 20.3954 15.0175 20.3954H26.0943ZM26.0943 19.498H15.0175C13.8696 19.5029 12.7699 19.9752 11.9582 20.8121C11.1464 21.649 10.6883 22.7826 10.6836 23.9662V29.7195C10.6883 30.9031 11.1464 32.0367 11.9582 32.8736C12.7699 33.7105 13.8696 34.1828 15.0175 34.1876H26.0943C27.2423 34.1828 28.3419 33.7105 29.1537 32.8736C29.9654 32.0367 30.4236 30.9031 30.4283 29.7195V23.9662C30.4236 22.7826 29.9654 21.649 29.1537 20.8121C28.3419 19.9752 27.2423 19.5029 26.0943 19.498Z" fill="#041C4C"/>
<path d="M11.5527 51.2998H27.2374" stroke="#041C4C" stroke-width="0.964192" stroke-linecap="round" stroke-linejoin="round"/>
<path d="M31.377 51.3003H47.0616" stroke="#041C4C" stroke-width="0.964192" stroke-linecap="round" stroke-linejoin="round"/>
<path d="M51.2012 51.2998H66.8858" stroke="#041C4C" stroke-width="0.964192" stroke-linecap="round" stroke-linejoin="round"/>
<path d="M71.0293 51.2998H86.7114" stroke="#041C4C" stroke-width="0.964192" stroke-linecap="round" stroke-linejoin="round"/>
<path d="M0.863281 40.6958H96.8603" stroke="#041C4C" stroke-width="0.964192" stroke-linecap="round" stroke-linejoin="round" stroke-dasharray="3.32 3.32"/>
<path d="M89.2364 7.70654H74.8294C74.2732 7.70654 73.8223 8.17142 73.8223 8.74487V27.0069C73.8223 27.5804 74.2732 28.0453 74.8294 28.0453H89.2364C89.7926 28.0453 90.2436 27.5804 90.2436 27.0069V8.74487C90.2436 8.17142 89.7926 7.70654 89.2364 7.70654Z" fill="#D9DEFB" stroke="#2E79FB" stroke-width="0.604038" stroke-miterlimit="10"/>
<path d="M82.3787 22.5726H76.9756C76.6453 22.5649 76.3286 22.4359 76.0825 22.2088C75.8364 21.9816 75.6772 21.6713 75.6334 21.3337C75.6176 21.1902 75.6104 21.0459 75.6118 20.9014C75.6118 17.5785 75.6118 14.2571 75.6118 10.9371C75.6033 10.6069 75.7048 10.2836 75.8995 10.0213C76.0942 9.75893 76.3703 9.57334 76.6817 9.49546C76.7727 9.47032 76.8662 9.45612 76.9605 9.45312H82.3312H82.3939C82.3266 9.48902 82.2532 9.51098 82.1777 9.51774C81.8864 9.61277 81.6322 9.80132 81.4522 10.0559C81.2721 10.3104 81.1758 10.6176 81.1771 10.9326C81.1771 12.958 81.1771 14.9857 81.1771 17.0133C81.1771 17.069 81.1771 17.1247 81.1771 17.1782H78.8991C78.8083 17.1782 78.7759 17.1938 78.7759 17.2985C78.7759 17.967 78.7759 18.6354 78.7759 19.3039C78.7719 19.4406 78.8144 19.5746 78.8961 19.6824C78.9778 19.7903 79.0936 19.8652 79.2233 19.8943C79.3782 19.9125 79.5343 19.9185 79.6901 19.9121C79.7939 19.9121 79.8198 19.8899 79.8198 19.7829C79.8198 19.2125 79.8198 18.6421 79.8198 18.0739C79.8198 18.0137 79.8198 17.958 79.9019 17.9603H81.1771C81.1771 18.0048 81.1771 18.0516 81.1771 18.0984C81.1771 19.0877 81.1771 20.077 81.1771 21.0663C81.1788 21.4494 81.3217 21.8174 81.5769 22.0957C81.7943 22.3306 82.0727 22.4962 82.3787 22.5726ZM79.8285 13.3702C79.8285 12.9848 79.8285 12.5971 79.8285 12.2116C79.8285 12.1358 79.8155 12.1046 79.7355 12.1091C79.6037 12.1091 79.4718 12.1091 79.34 12.1091C79.193 12.1131 79.0532 12.1757 78.9501 12.2838C78.8469 12.3918 78.7883 12.5368 78.7867 12.6884C78.7867 13.2923 78.7867 13.8961 78.7867 14.4977C78.7867 14.5824 78.8019 14.6158 78.8926 14.6136C79.1693 14.6136 79.4459 14.6136 79.7226 14.6136C79.8068 14.6136 79.8328 14.5935 79.8306 14.5022C79.8263 14.1256 79.8285 13.749 79.8285 13.3702Z" fill="#2E79FB"/>
<path d="M83.0731 9.4624H83.4557C85.0853 9.4624 86.7149 9.4624 88.3444 9.4624C88.4612 9.4624 88.4828 9.49805 88.4828 9.60946C88.4828 11.2345 88.4828 12.8589 88.4828 14.4825C88.4828 14.5894 88.4655 14.6251 88.3509 14.6228C87.4028 14.6228 86.4541 14.6228 85.5045 14.6228C85.403 14.6228 85.3727 14.5961 85.3727 14.4891C85.3727 13.736 85.3727 12.9829 85.3727 12.2298C85.3727 12.1273 85.3403 12.0961 85.2495 12.0939C85.0236 12.068 84.7957 12.1197 84.6011 12.2409C84.5287 12.2886 84.4693 12.3546 84.4284 12.4326C84.3876 12.5105 84.3667 12.598 84.3677 12.6866C84.3677 14.9058 84.3677 17.1258 84.3677 19.3466C84.3707 19.4719 84.4123 19.593 84.4865 19.6924C84.5607 19.7917 84.6637 19.8642 84.7805 19.8991C84.9421 19.9496 85.1122 19.9648 85.2798 19.9437C85.3662 19.9437 85.4008 19.9058 85.3986 19.8056C85.3986 19.2396 85.3986 18.6736 85.3986 18.1077C85.3986 17.8403 85.3986 17.5729 85.3986 17.3055C85.3986 17.2231 85.4202 17.1964 85.5024 17.1964C86.4649 17.1964 87.4266 17.1964 88.3877 17.1964C88.4763 17.1964 88.4936 17.2253 88.4936 17.31C88.4936 19.0324 88.4936 20.7548 88.4936 22.4771C88.4936 22.5417 88.4936 22.5863 88.4071 22.5863C86.6378 22.5863 84.8684 22.5863 83.0991 22.5863H83.0861V20.2668C83.0861 19.5359 83.0861 18.8073 83.0861 18.0765C83.0861 18.0074 83.0861 17.9584 82.9975 17.9606C82.8181 17.9606 82.6365 17.9606 82.4572 17.9606C82.0444 17.9606 81.6316 17.9762 81.2188 17.9606V17.1964H81.3679C81.8952 17.1964 82.4226 17.1964 82.9499 17.1964C83.0666 17.1964 83.1034 17.1607 83.0861 17.0493C83.085 17.0322 83.085 17.0151 83.0861 16.9981L83.0731 9.4624Z" fill="#E13C36"/>
<path d="M83.0721 9.46221V16.9956C83.0711 17.0127 83.0711 17.0298 83.0721 17.0469C83.0894 17.1583 83.0527 17.1962 82.936 17.194C82.4086 17.194 81.8813 17.194 81.3539 17.194H81.2048C81.2021 17.1953 81.1992 17.196 81.1962 17.196C81.1932 17.196 81.1902 17.1953 81.1875 17.194C81.1875 17.1405 81.1875 17.0848 81.1875 17.0291C81.1875 15.0014 81.1875 12.9738 81.1875 10.9484C81.1862 10.6334 81.2826 10.3262 81.4626 10.0716C81.6426 9.81709 81.8969 9.62854 82.1882 9.53351C82.2636 9.52675 82.3371 9.50479 82.4043 9.4689C82.6257 9.4366 82.8502 9.43435 83.0721 9.46221Z" fill="#041C4C"/>
<path d="M81.2061 17.958C81.6189 17.9803 82.0317 17.958 82.4445 17.958C82.6239 17.958 82.8055 17.958 82.9848 17.958C83.0691 17.958 83.0735 18.0048 83.0735 18.0739C83.0735 18.8047 83.0735 19.5333 83.0735 20.2642V22.5703H82.3797C82.0817 22.4958 81.81 22.3368 81.5951 22.1113C81.3399 21.833 81.197 21.4649 81.1953 21.0819C81.1953 20.0926 81.1953 19.1033 81.1953 18.114C81.1953 18.0672 81.1953 18.0204 81.1953 17.9758L81.2061 17.958Z" fill="#041C4C"/>
<path d="M87.9269 24.672C88.0544 24.4491 88.1949 24.3756 88.3418 24.4781C88.3916 24.5167 88.4313 24.5675 88.4573 24.6258C88.4833 24.6842 88.4949 24.7482 88.491 24.8123C88.491 25.3315 88.491 25.8484 88.491 26.372C88.491 26.4211 88.4758 26.4433 88.4261 26.4367C88.4182 26.4355 88.4102 26.4355 88.4023 26.4367C88.1862 26.4367 88.1862 26.4367 88.1862 26.2138C88.1862 25.8373 88.1862 25.4585 88.1862 25.0797C88.187 25.0121 88.179 24.9446 88.1624 24.8792C88.1452 24.819 88.1106 24.7745 88.0522 24.7767C88.0254 24.7789 88 24.7905 87.9804 24.8095C87.9608 24.8286 87.948 24.8539 87.9442 24.8814C87.9252 24.9465 87.915 25.014 87.9139 25.0819C87.9139 25.4941 87.9139 25.9064 87.9139 26.3186C87.9139 26.4032 87.9009 26.4344 87.808 26.4322C87.6113 26.4322 87.6113 26.4322 87.6113 26.225C87.6113 25.4719 87.6113 24.7187 87.6113 23.9679C87.6113 23.8631 87.6416 23.8319 87.7345 23.8475C87.7668 23.852 87.7995 23.852 87.8318 23.8475C87.8966 23.8475 87.9161 23.8609 87.9139 23.9277C87.9247 24.1684 87.9269 24.4068 87.9269 24.672Z" fill="#041C4C"/>
<path d="M86.4804 26.4321C86.4344 26.4287 86.3882 26.4287 86.3421 26.4321C86.2167 26.4521 86.1541 26.412 86.193 26.2717C86.1584 26.2717 86.1541 26.285 86.1433 26.3028C86.0763 26.4098 85.9985 26.5034 85.8558 26.4789C85.7903 26.4678 85.73 26.4351 85.684 26.3857C85.638 26.3363 85.6088 26.2728 85.6008 26.2048C85.5575 26.0226 85.5575 25.8322 85.6008 25.65C85.6299 25.5574 85.6777 25.4723 85.7411 25.4001C85.8044 25.3279 85.8818 25.2703 85.9682 25.2311C86.0303 25.2072 86.0832 25.1633 86.119 25.1059C86.1548 25.0484 86.1717 24.9806 86.167 24.9125C86.1685 24.8829 86.1601 24.8537 86.1432 24.8298C86.1262 24.8058 86.1019 24.7886 86.0741 24.781C86.0446 24.7715 86.013 24.7713 85.9833 24.7805C85.9537 24.7896 85.9273 24.8076 85.9077 24.8323C85.8932 24.8504 85.8826 24.8715 85.8766 24.8941C85.8706 24.9168 85.8695 24.9405 85.8731 24.9637C85.8861 25.0484 85.8472 25.0595 85.7737 25.0595C85.5749 25.0595 85.5749 25.0595 85.5965 24.8545C85.5977 24.7769 85.6185 24.701 85.6569 24.6342C85.6954 24.5675 85.75 24.5122 85.8156 24.4739C85.8811 24.4357 85.9551 24.4157 86.0304 24.416C86.1057 24.4163 86.1796 24.4369 86.2448 24.4758C86.3198 24.5194 86.3804 24.5851 86.419 24.6645C86.4575 24.7439 86.4721 24.8334 86.461 24.9214C86.461 25.3336 86.461 25.7458 86.461 26.158C86.457 26.2498 86.4635 26.3418 86.4804 26.4321ZM86.1584 25.4227C85.9704 25.5631 85.8256 25.7124 85.8709 25.9686C85.8839 26.0511 85.9098 26.1335 86.0049 26.1357C86.1 26.138 86.126 26.06 86.1389 25.982C86.1618 25.7966 86.1683 25.6094 86.1584 25.4227Z" fill="#041C4C"/>
<path d="M77.2486 25.4026C77.2373 25.1947 77.2481 24.9863 77.281 24.7809C77.2967 24.7098 77.3291 24.6438 77.3753 24.5886C77.4215 24.5334 77.4801 24.4907 77.5461 24.4643C77.612 24.4379 77.6832 24.4286 77.7534 24.4372C77.8236 24.4458 77.8907 24.472 77.9489 24.5135C78.0019 24.557 78.0448 24.6122 78.0744 24.6751C78.1039 24.7379 78.1194 24.8069 78.1196 24.8767C78.1401 25.0713 78.1488 25.267 78.1455 25.4627C78.1455 25.5429 78.1196 25.5585 78.0461 25.5541C77.9056 25.5541 77.763 25.5541 77.6139 25.5541C77.5642 25.5541 77.5339 25.5541 77.5382 25.6254C77.5382 25.739 77.5382 25.8482 77.5382 25.9685C77.5382 26.0888 77.5836 26.1423 77.683 26.1379C77.7824 26.1334 77.7997 26.0487 77.8062 25.9618C77.8214 25.7546 77.8473 25.739 78.0569 25.7658C78.1023 25.7658 78.111 25.788 78.111 25.8281C78.1164 25.9506 78.1033 26.0731 78.0721 26.1913C78.0514 26.2761 78.0033 26.351 77.9357 26.4037C77.8681 26.4564 77.785 26.4836 77.7003 26.481C77.6093 26.4845 77.5197 26.4572 77.4452 26.4033C77.3707 26.3494 77.3153 26.2718 77.2875 26.1824C77.2398 25.9935 77.2208 25.798 77.2313 25.6031C77.2464 25.5452 77.2486 25.4895 77.2486 25.4026ZM77.5534 25.2043C77.8689 25.2043 77.8667 25.2043 77.8278 24.9257C77.8149 24.8299 77.7738 24.7742 77.6809 24.7765C77.5879 24.7787 77.5577 24.85 77.5534 24.9324C77.549 25.0149 77.5534 25.1085 77.5534 25.2043Z" fill="#041C4C"/>
<path d="M75.6156 25.4185C75.6092 25.2169 75.6179 25.015 75.6415 24.8147C75.651 24.7477 75.6752 24.6838 75.7123 24.6279C75.7494 24.572 75.7983 24.5255 75.8554 24.492C75.9125 24.4585 75.9762 24.4388 76.0418 24.4345C76.1073 24.4302 76.173 24.4413 76.2337 24.4671C76.3098 24.5015 76.3742 24.5584 76.4188 24.6306C76.4635 24.7028 76.4863 24.7871 76.4844 24.8726C76.5061 25.0701 76.5147 25.2689 76.5104 25.4676C76.5104 25.5344 76.4909 25.5545 76.4261 25.5522C76.2878 25.5522 76.1516 25.5522 76.0133 25.5522C75.9441 25.5522 75.9052 25.5522 75.9117 25.648C75.9182 25.7439 75.9117 25.8508 75.9117 25.9533C75.9117 26.0558 75.9463 26.1382 76.0543 26.1427C76.1624 26.1472 76.1797 26.0558 76.1862 25.9667C76.185 25.9586 76.185 25.9503 76.1862 25.9422C76.2078 25.8909 76.1711 25.804 76.2143 25.7884C76.2896 25.7726 76.3668 25.7681 76.4434 25.7751C76.4866 25.7751 76.4866 25.8062 76.4866 25.8374C76.4954 25.9853 76.471 26.1332 76.4153 26.2697C76.3852 26.3425 76.3333 26.4034 76.2671 26.4435C76.201 26.4836 76.1242 26.5008 76.0479 26.4925C75.9609 26.4908 75.8766 26.4608 75.8071 26.4068C75.7376 26.3528 75.6865 26.2775 75.661 26.1917C75.6114 25.9374 75.5961 25.6772 75.6156 25.4185ZM75.9117 25.0509C75.9117 25.1512 75.9117 25.1868 75.9117 25.2247C76.2272 25.2581 76.2143 25.2113 76.1991 24.9573C76.1991 24.9328 76.1991 24.9083 76.184 24.8838C76.1783 24.8523 76.1619 24.824 76.1377 24.804C76.1135 24.784 76.0832 24.7735 76.0522 24.7746C76.0212 24.7734 75.9908 24.7834 75.9663 24.8029C75.9418 24.8225 75.9248 24.8503 75.9182 24.8816C75.9118 24.9355 75.9097 24.9899 75.9117 25.0442V25.0509Z" fill="#2E79FB"/>
<path d="M80.5142 25.467C80.5001 25.2173 80.5197 24.9668 80.5726 24.7228C80.5986 24.6254 80.6594 24.5418 80.7428 24.4889C80.8263 24.4359 80.9261 24.4176 81.0221 24.4376C81.1069 24.4434 81.1871 24.4791 81.2493 24.5388C81.3115 24.5984 81.3519 24.6784 81.3636 24.7651C81.4404 25.2252 81.4404 25.6954 81.3636 26.1555C81.3555 26.2455 81.3146 26.329 81.2493 26.3893C81.184 26.4496 81.099 26.4823 81.0113 26.4808C80.7585 26.4942 80.6374 26.4162 80.5791 26.1978C80.5241 25.9586 80.5022 25.7125 80.5142 25.467ZM81.1194 25.467C81.1234 25.2833 81.1176 25.0996 81.1021 24.9166C81.087 24.8409 81.0524 24.7651 80.9594 24.7696C80.8665 24.774 80.8276 24.8453 80.8211 24.9345C80.7941 25.2845 80.7941 25.6361 80.8211 25.9861C80.8209 26.0051 80.8242 26.0238 80.831 26.0414C80.8379 26.059 80.848 26.0749 80.8609 26.0884C80.8737 26.1019 80.8891 26.1126 80.906 26.1199C80.9229 26.1272 80.9411 26.131 80.9594 26.131C80.9767 26.1328 80.9942 26.131 81.0107 26.1256C81.0273 26.1203 81.0426 26.1115 81.0558 26.0998C81.0689 26.0881 81.0796 26.0738 81.0872 26.0577C81.0948 26.0416 81.0991 26.0241 81.0999 26.0062C81.1158 25.8292 81.1223 25.6514 81.1194 25.4737V25.467Z" fill="#041C4C"/>
<path d="M81.9102 24.654L81.9426 24.5871C81.963 24.5405 81.9967 24.5012 82.0391 24.4746C82.0815 24.4479 82.1308 24.4351 82.1804 24.4379C82.2294 24.4405 82.2768 24.4571 82.3172 24.4858C82.3576 24.5145 82.3896 24.5542 82.4095 24.6005C82.4479 24.6854 82.4657 24.7787 82.4613 24.8724C82.4613 25.3744 82.4613 25.8758 82.4613 26.3764C82.4613 26.4187 82.4613 26.4365 82.4138 26.4321C82.1825 26.4477 82.1868 26.4477 82.1825 26.2093C82.1825 25.8037 82.202 25.396 82.1674 24.9882C82.1674 24.908 82.1523 24.8256 82.0528 24.8211C81.9534 24.8166 81.9275 24.9035 81.921 24.986C81.8778 25.4316 81.908 25.8929 81.9037 26.3474C81.9037 26.4209 81.8886 26.4343 81.8216 26.4343C81.6055 26.4343 81.6055 26.4343 81.6055 26.2249C81.6055 25.6678 81.6055 25.1108 81.6055 24.556C81.6055 24.498 81.6163 24.4824 81.666 24.4891H81.7416C81.8605 24.4691 81.9275 24.5047 81.9102 24.654Z" fill="#041C4C"/>
<path d="M86.7827 25.7906C86.8821 25.7594 86.9189 25.8085 86.9081 25.9288C86.9081 26.0001 86.8951 26.0847 86.9815 26.1248C87.0035 26.1369 87.0287 26.1412 87.0532 26.1372C87.0778 26.1332 87.1004 26.121 87.1177 26.1026C87.1825 26.0402 87.1674 25.9577 87.1566 25.8798C87.1406 25.8229 87.1082 25.7724 87.0637 25.7349C86.9003 25.5985 86.7664 25.4285 86.6703 25.2358C86.617 25.1027 86.5984 24.9575 86.6163 24.8147C86.6204 24.7607 86.6348 24.708 86.6588 24.6598C86.6829 24.6116 86.716 24.5689 86.7562 24.534C86.7965 24.4992 86.843 24.4729 86.8932 24.4568C86.9434 24.4408 86.9962 24.4352 87.0485 24.4404C87.1507 24.4361 87.2503 24.4734 87.3259 24.5443C87.4016 24.6152 87.4471 24.7139 87.4527 24.8191C87.4538 24.8355 87.4538 24.8518 87.4527 24.8682C87.4721 25.091 87.4397 25.1199 87.2193 25.091C87.1825 25.091 87.1696 25.0732 87.1696 25.0375C87.1696 25.0019 87.1696 24.9707 87.1566 24.9372C87.1566 24.8437 87.1047 24.7768 87.0096 24.7924C86.9145 24.808 86.8994 24.8904 86.9059 24.9796C86.9159 25.047 86.9488 25.1086 86.9988 25.1534C87.1335 25.2722 87.2559 25.4051 87.3641 25.55C87.4293 25.6557 87.4674 25.7768 87.475 25.9019C87.4826 26.0269 87.4593 26.1519 87.4073 26.2652C87.3759 26.3369 87.3237 26.3968 87.2579 26.4367C87.1921 26.4766 87.1159 26.4946 87.0399 26.488C86.965 26.4925 86.8905 26.4737 86.8261 26.4339C86.7618 26.3942 86.7105 26.3354 86.679 26.2652C86.6316 26.1716 86.6064 26.0678 86.6055 25.9622C86.6076 25.7906 86.6055 25.7906 86.7827 25.7906Z" fill="#041C4C"/>
<path d="M83.1937 25.4561C83.1815 25.2196 83.1975 24.9823 83.2413 24.7498C83.2533 24.6654 83.2936 24.588 83.3552 24.531C83.4168 24.4741 83.4958 24.4411 83.5784 24.4378C83.6647 24.4304 83.7507 24.4547 83.8212 24.5065C83.8916 24.5584 83.9419 24.6343 83.9631 24.7208C83.9853 24.7889 84.0013 24.8591 84.0107 24.9303C84.0345 25.1531 84.0323 25.1531 83.8054 25.1531C83.7254 25.1531 83.706 25.1308 83.7103 25.0528C83.7242 24.9781 83.7174 24.9009 83.6908 24.83C83.6735 24.7921 83.6519 24.7609 83.613 24.7587C83.5923 24.76 83.5726 24.768 83.5567 24.7816C83.5407 24.7952 83.5294 24.8138 83.5244 24.8345C83.5121 24.8696 83.5048 24.9064 83.5028 24.9436C83.4833 25.2911 83.4877 25.6396 83.5158 25.9864C83.5158 26.051 83.546 26.1112 83.613 26.1112C83.68 26.1112 83.6822 26.0466 83.6951 25.9909C83.7071 25.9375 83.7136 25.883 83.7146 25.8282C83.7146 25.7703 83.6908 25.6745 83.7297 25.6611C83.813 25.6442 83.8981 25.6397 83.9826 25.6477C84.0107 25.6477 84.0128 25.6723 84.0128 25.6945C84.0231 25.8595 84.0071 26.0251 83.9653 26.1847C83.9458 26.27 83.8969 26.345 83.8277 26.3959C83.7585 26.4467 83.6738 26.4698 83.5892 26.461C83.5066 26.4582 83.4274 26.4268 83.3642 26.3718C83.3011 26.3168 83.2578 26.2415 83.2413 26.158C83.1969 25.927 83.1809 25.6912 83.1937 25.4561Z" fill="#041C4C"/>
<path d="M78.598 25.4895C78.5933 25.6502 78.5998 25.811 78.6174 25.9708C78.6213 26.0042 78.6285 26.037 78.639 26.0688C78.6435 26.0877 78.6541 26.1044 78.669 26.1161C78.684 26.1279 78.7024 26.134 78.7212 26.1334C78.7579 26.1334 78.7774 26.1 78.7903 26.0599C78.8147 25.961 78.822 25.8584 78.8119 25.7569C78.8119 25.6856 78.8314 25.6655 78.9027 25.6655C79.1188 25.6655 79.1188 25.6655 79.1188 25.8883C79.1235 26.0236 79.0991 26.1583 79.0475 26.2827C79.0213 26.3453 78.9773 26.3981 78.9214 26.4343C78.8654 26.4705 78.8001 26.4884 78.7341 26.4855C78.6661 26.4921 78.5977 26.4773 78.5379 26.4431C78.4781 26.4089 78.4298 26.3569 78.3991 26.2939C78.34 26.1684 78.3118 26.0299 78.317 25.8906V24.9458C78.3186 24.8619 78.3347 24.7789 78.3645 24.7007C78.383 24.6287 78.4235 24.5647 78.4799 24.5182C78.5363 24.4717 78.6057 24.445 78.6779 24.4423C78.7556 24.4324 78.8342 24.4488 78.9021 24.4889C78.9699 24.5291 79.0232 24.5909 79.054 24.6651C79.1051 24.8074 79.1251 24.9595 79.1124 25.1107C79.1124 25.1508 79.0951 25.1642 79.0583 25.1575H79.0216C78.8184 25.1575 78.8184 25.1575 78.8055 24.9525C78.8065 24.9354 78.8065 24.9183 78.8055 24.9013C78.8055 24.8366 78.773 24.7765 78.7082 24.7765C78.6434 24.7765 78.6153 24.8411 78.6109 24.9035C78.6109 25.055 78.598 25.2065 78.5915 25.3603L78.598 25.4895Z" fill="#041C4C"/>
<path d="M84.9381 25.4897C84.9327 25.6621 84.9371 25.8347 84.9511 26.0066C84.964 26.0757 84.9878 26.1403 85.057 26.1426C85.1261 26.1448 85.1391 26.0668 85.1434 26.0089C85.151 25.9289 85.151 25.8483 85.1434 25.7682C85.1434 25.6858 85.1672 25.6702 85.2407 25.6724C85.4438 25.6724 85.4417 25.6724 85.4438 25.8752C85.4476 25.9937 85.4315 26.1121 85.3963 26.225C85.3752 26.3028 85.3295 26.3711 85.2665 26.4192C85.2034 26.4672 85.1267 26.4922 85.0483 26.4902C84.9701 26.4947 84.8928 26.4715 84.8291 26.4245C84.7654 26.3775 84.7193 26.3095 84.6982 26.2317C84.6628 26.1279 84.6452 26.0186 84.6463 25.9086C84.6243 25.5319 84.6337 25.154 84.6744 24.7789C84.6826 24.6917 84.721 24.6104 84.7825 24.5498C84.8439 24.4893 84.9245 24.4536 85.0094 24.4492C85.0979 24.44 85.1865 24.4641 85.2592 24.5169C85.3318 24.5697 85.3835 24.6477 85.4049 24.7366C85.4384 24.8582 85.4516 24.9848 85.4438 25.1109C85.4438 25.151 85.4438 25.18 85.3877 25.1689C85.3719 25.1666 85.3559 25.1666 85.3401 25.1689C85.1477 25.1689 85.1478 25.1689 85.1456 24.975C85.1467 24.9579 85.1467 24.9408 85.1456 24.9238C85.1456 24.8547 85.111 24.7878 85.044 24.7878C84.977 24.7878 84.9576 24.8525 84.9467 24.9171C84.9341 25.1077 84.9312 25.2988 84.9381 25.4897Z" fill="#E13C36"/>
<path d="M79.7131 24.4892C79.7131 24.5628 79.7131 24.6207 79.7131 24.6809C79.7131 24.741 79.7498 24.8413 79.6202 24.8212C79.5726 24.8212 79.5877 24.8613 79.5877 24.8858C79.5877 25.2513 79.5877 25.6167 79.5877 25.9821C79.586 26.0056 79.5918 26.0291 79.6043 26.0488C79.6168 26.0686 79.6353 26.0835 79.6569 26.0913C79.6807 26.0913 79.7304 26.069 79.7196 26.1336C79.7023 26.2339 79.7606 26.3564 79.6936 26.4322C79.6266 26.508 79.3587 26.4322 79.3198 26.2874C79.3017 26.2146 79.293 26.1397 79.2938 26.0645C79.2938 25.6813 79.2938 25.2981 79.2938 24.917C79.2938 24.868 79.3176 24.7989 79.2225 24.819C79.1879 24.819 79.1836 24.7945 79.1836 24.7678C79.1836 24.692 79.1836 24.6162 79.1836 24.5449C79.1836 24.5316 79.1944 24.5026 79.1987 24.5026C79.3414 24.5026 79.2765 24.3979 79.2873 24.3333C79.2981 24.2686 79.2873 24.2152 79.2873 24.155C79.2873 24.0948 79.2592 23.9946 79.3003 23.9768C79.384 23.9576 79.4702 23.9531 79.5553 23.9634C79.605 23.9634 79.5856 24.0057 79.5856 24.0302C79.5921 24.1408 79.5921 24.2517 79.5856 24.3622C79.5726 24.458 79.5964 24.516 79.7131 24.4892Z" fill="#041C4C"/>
<path d="M76.7344 25.1286C76.7344 24.7453 76.7344 24.3643 76.7344 23.9811C76.7344 23.8808 76.7473 23.8407 76.8576 23.8474C77.0348 23.8474 77.037 23.8474 77.037 24.0368V26.265C77.037 26.4276 77.037 26.4276 76.8727 26.4276C76.8561 26.4265 76.8395 26.4265 76.823 26.4276C76.7517 26.4276 76.7344 26.4076 76.7344 26.3363C76.7365 25.9352 76.7344 25.5341 76.7344 25.1286Z" fill="#041C4C"/>
<path d="M80.1283 24.7944C80.1606 24.6833 80.2193 24.5822 80.2991 24.5003C80.3124 24.4844 80.3299 24.4728 80.3494 24.4668C80.369 24.4609 80.3898 24.4609 80.4093 24.4669C80.4482 24.4825 80.4288 24.527 80.4288 24.5582C80.4288 24.6384 80.4288 24.7187 80.4288 24.7989C80.4288 24.8791 80.4417 24.986 80.2969 24.9972C80.1975 24.9972 80.1564 25.1019 80.1478 25.2044C80.111 25.5876 80.1478 25.9753 80.1348 26.3608C80.1348 26.4254 80.1175 26.4321 80.0657 26.4321C79.8301 26.4321 79.8301 26.4321 79.8301 26.2093C79.8301 25.6835 79.8301 25.1576 79.8301 24.6318C79.8301 24.527 79.8517 24.4914 79.9554 24.4981C80.1262 24.4981 80.1283 24.4981 80.1283 24.6808V24.7944Z" fill="#041C4C"/>
<path d="M82.9998 25.4607C82.9998 25.7503 82.9998 26.04 82.9998 26.3296C82.9998 26.4121 82.9804 26.4366 82.8983 26.4344C82.6994 26.4344 82.6973 26.4344 82.6973 26.2316C82.6973 25.6857 82.6973 25.142 82.6973 24.5984C82.6973 24.5092 82.7167 24.4847 82.8053 24.487C82.9998 24.487 82.9998 24.487 82.9998 24.6964V25.4607Z" fill="#041C4C"/>
<path d="M82.9994 24.0502C82.9994 24.2552 82.9346 24.3042 82.7422 24.2574C82.7033 24.2574 82.7012 24.2262 82.7012 24.1973C82.7012 24.1683 82.7012 24.0859 82.7012 24.0302C82.7012 23.8497 82.7012 23.863 82.8719 23.8452C83.0729 23.8274 82.9778 23.9767 82.9994 24.0502Z" fill="#041C4C"/>
</svg>
