<svg width="90" height="74" viewBox="0 0 90 74" fill="none" xmlns="http://www.w3.org/2000/svg">
<path d="M82.7433 0.809082H7.38708C3.96531 0.809082 1.19141 3.58298 1.19141 7.00476V63.0602C1.19141 66.4819 3.96531 69.2559 7.38708 69.2559H82.7433C86.1651 69.2559 88.939 66.4819 88.939 63.0602V7.00476C88.939 3.58298 86.1651 0.809082 82.7433 0.809082Z" fill="#84C242" stroke="#041C4C" stroke-width="1.25935" stroke-linejoin="round"/>
<path d="M73.0589 66.2974H21.271C20.5195 66.2967 19.7925 66.026 19.2192 65.5334C18.646 65.0408 18.2637 64.3583 18.1403 63.6071C18.1109 63.4264 18.0725 63.2473 18.0252 63.0705C17.5582 61.6898 16.7686 60.4441 15.7237 59.4395C14.6789 58.4349 13.4097 57.7012 12.0246 57.3011H11.9171C11.1833 57.167 10.5186 56.7774 10.0381 56.1996C9.55752 55.6218 9.29121 54.892 9.28516 54.1364V20.3204C9.28705 19.5522 9.5593 18.8099 10.053 18.2269C10.5467 17.644 11.2295 17.2587 11.9785 17.1402C12.113 17.1227 12.2462 17.0967 12.3775 17.0625C13.7794 16.5944 15.0446 15.781 16.0598 14.6953C17.075 13.6097 17.8083 12.2857 18.194 10.842V10.7797C18.3309 10.0401 18.7205 9.37288 19.2944 8.89516C19.8682 8.41744 20.5898 8.15972 21.3324 8.16715H73.0666C73.7843 8.18512 74.4757 8.44479 75.0315 8.90522C75.5873 9.36565 75.9759 10.0006 76.136 10.7098C76.5254 12.2469 77.3079 13.6528 78.4045 14.7859C79.5011 15.9189 80.8731 16.739 82.3822 17.1635H82.5049C83.2244 17.296 83.8754 17.6797 84.345 18.2478C84.8145 18.8159 85.073 19.5327 85.0755 20.2737V54.0975C85.0734 54.8526 84.8106 55.5833 84.3327 56.1627C83.8548 56.7421 83.1919 57.1338 82.4589 57.27L82.2441 57.3166C80.7849 57.7537 79.4604 58.562 78.3966 59.6644C77.3328 60.7669 76.5652 62.1268 76.1667 63.6149C76.1667 63.6149 76.1667 63.6848 76.1667 63.7314C76.0226 64.4579 75.6338 65.1111 75.0669 65.5792C74.5 66.0472 73.7902 66.3011 73.0589 66.2974Z" fill="#68A725"/>
<path d="M70.8517 64.0909H19.0638C18.3122 64.0902 17.5852 63.8195 17.012 63.3269C16.4388 62.8343 16.0564 62.1518 15.933 61.4005C15.9037 61.2198 15.8653 61.0407 15.8179 60.864C15.3509 59.4833 14.5613 58.2376 13.5165 57.2329C12.4716 56.2283 11.2025 55.4947 9.8173 55.0946H9.70986C8.97597 54.9605 8.31136 54.5709 7.8308 53.9931C7.35024 53.4152 7.08393 52.6855 7.07788 51.9298V18.1138C7.07977 17.3457 7.35203 16.6033 7.84574 16.0204C8.33945 15.4374 9.02223 15.0521 9.77126 14.9337C9.90573 14.9161 10.039 14.8902 10.1702 14.8559C11.5721 14.3879 12.8374 13.5745 13.8525 12.4888C14.8677 11.4031 15.601 10.0791 15.9867 8.63546V8.57319C16.1237 7.83353 16.5132 7.16633 17.0871 6.68862C17.661 6.2109 18.3825 5.95318 19.1252 5.96061H70.8594C71.577 5.97858 72.2684 6.23825 72.8242 6.69868C73.38 7.15911 73.7686 7.79408 73.9287 8.50324C74.3182 10.0404 75.1006 11.4463 76.1972 12.5793C77.2938 13.7124 78.6658 14.5324 80.1749 14.9569H80.2977C81.0172 15.0895 81.6682 15.4731 82.1377 16.0412C82.6072 16.6094 82.8657 17.3261 82.8682 18.0671V51.8909C82.8661 52.6461 82.6033 53.3767 82.1254 53.9561C81.6475 54.5355 80.9846 54.9273 80.2516 55.0634L80.0368 55.11C78.5776 55.5472 77.2531 56.3555 76.1893 57.4579C75.1256 58.5603 74.3579 59.9203 73.9594 61.4083C73.9594 61.4083 73.9594 61.4782 73.9594 61.5249C73.8153 62.2514 73.4265 62.9046 72.8596 63.3726C72.2927 63.8407 71.5829 64.0946 70.8517 64.0909Z" fill="#E9EBF6" stroke="#041C4C" stroke-width="1.25935" stroke-linejoin="round"/>
<path d="M68.8439 61.1476H21.0784C19.2719 61.146 18.506 59.78 18.0846 58.2475C17.6539 57.0066 16.9256 55.887 15.9619 54.9842C14.9982 54.0813 13.8277 53.4219 12.5501 53.0623H12.451C11.0769 52.8177 10.0349 51.6068 10.0234 50.2181V19.8265C10.027 18.4128 11.1036 17.1847 12.5076 16.9683C13.6967 16.8175 15.1728 15.9742 16.3294 14.8524C17.4294 13.7855 18.2403 12.4667 18.2403 11.252C18.4988 9.8917 19.7437 8.89039 21.135 8.90395H68.851C70.1922 8.93668 71.3808 9.88876 71.682 11.1891C72.0412 12.5706 72.7629 13.8341 73.7743 14.8524C74.7857 15.8707 76.0511 16.6078 77.443 16.9892C78.8324 16.9892 79.9227 18.5176 79.9272 19.7845V50.1831C79.9227 51.7276 78.747 52.7737 77.3156 53.0762C75.9698 53.4691 74.7482 54.1955 73.767 55.1863C72.7859 56.1771 72.0778 57.3994 71.7103 58.7367C71.7103 60.1134 70.0915 61.1538 68.8439 61.1476Z" fill="#E9EBF6" stroke="#041C4C" stroke-width="0.944512" stroke-linecap="round" stroke-linejoin="round" stroke-dasharray="0.18 2.63"/>
<path d="M74.0933 60.1392H65.131L62.1876 71.9124C62.1468 72.0696 62.1516 72.2353 62.2015 72.3898C62.2515 72.5444 62.3445 72.6815 62.4697 72.785C62.5949 72.8886 62.747 72.9542 62.9082 72.9743C63.0694 72.9944 63.2329 72.9681 63.3797 72.8984L66.7203 71.3458C66.8511 71.2822 66.9977 71.2587 67.1418 71.2784C67.2858 71.298 67.4209 71.3599 67.5298 71.4562L69.5165 73.1118C69.6424 73.2181 69.7934 73.2904 69.9552 73.3216C70.117 73.3529 70.2841 73.3422 70.4405 73.2906C70.597 73.2389 70.7376 73.1481 70.8489 73.0266C70.9603 72.9051 71.0386 72.7571 71.0765 72.5968L74.0933 60.1392Z" fill="#4A9CFF" stroke="#041C4C" stroke-width="1.25935" stroke-linejoin="round"/>
<path d="M69.0312 60.1392H77.9936L80.937 71.9124C80.9778 72.0696 80.973 72.2353 80.9231 72.3898C80.8731 72.5444 80.7801 72.6815 80.6549 72.785C80.5297 72.8886 80.3776 72.9542 80.2164 72.9743C80.0552 72.9944 79.8917 72.9681 79.7449 72.8984L76.4043 71.3458C76.2735 71.2822 76.1269 71.2587 75.9828 71.2784C75.8388 71.298 75.7037 71.3599 75.5948 71.4562L73.6081 73.1118C73.4822 73.2181 73.3312 73.2904 73.1694 73.3216C73.0076 73.3529 72.8405 73.3422 72.6841 73.2906C72.5276 73.2389 72.387 73.1481 72.2757 73.0266C72.1643 72.9051 72.086 72.7571 72.0482 72.5968L69.0312 60.1392Z" fill="#4A9CFF" stroke="#041C4C" stroke-width="1.25935" stroke-linejoin="round"/>
<path d="M71.4649 67.7697C76.9512 67.7697 81.3986 63.3223 81.3986 57.836C81.3986 52.3498 76.9512 47.9023 71.4649 47.9023C65.9787 47.9023 61.5312 52.3498 61.5312 57.836C61.5312 63.3223 65.9787 67.7697 71.4649 67.7697Z" fill="#FC5454" stroke="#041C4C" stroke-width="1.25935" stroke-linejoin="round"/>
<path d="M71.5803 63.7953C74.9858 63.7953 77.7466 61.0346 77.7466 57.6291C77.7466 54.2236 74.9858 51.4628 71.5803 51.4628C68.1748 51.4628 65.4141 54.2236 65.4141 57.6291C65.4141 61.0346 68.1748 63.7953 71.5803 63.7953Z" fill="#FFCC4D" stroke="#041C4C" stroke-width="1.25935" stroke-linejoin="round"/>
<path d="M45.5853 51.5505C55.127 51.5505 62.8621 43.8155 62.8621 34.2738C62.8621 24.7321 55.127 16.9971 45.5853 16.9971C36.0436 16.9971 28.3086 24.7321 28.3086 34.2738C28.3086 43.8155 36.0436 51.5505 45.5853 51.5505Z" fill="#4A9CFF" stroke="#041C4C" stroke-width="1.25935" stroke-linejoin="round"/>
<path d="M36.2678 35.0644C35.9165 33.7072 34.4235 34.3619 32.7949 33.1803C31.6771 32.3819 30.6632 29.1086 29.4417 28.1825C28.0997 31.6914 27.9453 35.5437 29.0023 39.1488C30.0593 42.754 32.2694 45.913 35.2938 48.1417C36.164 44.094 34.0802 42.7208 34.0962 41.3236C34.1281 38.9604 36.6271 36.4216 36.2678 35.0644Z" fill="#68A725" stroke="#041C4C" stroke-width="1.25935" stroke-linejoin="round"/>
<path d="M50.8064 17.8042L50.7106 18.0516C50.7106 18.0516 50.7905 20.1673 46.3515 22.2511C41.9126 24.3348 38.6792 27.5363 40.4436 31.6239C42.208 35.7116 47.9722 31.2966 49.2257 32.8135C50.4791 34.3304 47.6289 47.6632 53.944 44.0865C60.2591 40.5098 55.1895 36.2864 57.9358 32.5181C59.0674 31.1956 60.6114 30.2928 62.3189 29.9554C61.5855 27.121 60.1444 24.5192 58.1309 22.3939C56.1173 20.2687 53.5971 18.6894 50.8064 17.8042Z" fill="#68A725" stroke="#041C4C" stroke-width="1.25935" stroke-linejoin="round"/>
<path d="M53.6873 52.7398C55.795 46.1452 49.6955 34.2495 37.8716 36.8362C36.0034 41.834 40.3066 55.063 53.6873 52.7398Z" fill="#84C242" stroke="#041C4C" stroke-width="1.25935" stroke-linejoin="round"/>
<path d="M53.6909 52.74L37.8672 36.8364" stroke="#041C4C" stroke-width="1.25935" stroke-linejoin="round"/>
<path d="M50.0088 52.7969C47.9091 46.2024 54.0406 34.3066 65.8325 36.8933C67.6767 41.8831 63.3974 55.1122 50.0088 52.7969Z" fill="#84C242" stroke="#041C4C" stroke-width="1.25935" stroke-linejoin="round"/>
<path d="M50.0078 52.7888L65.8315 36.8853" stroke="#041C4C" stroke-width="1.25935" stroke-linejoin="round"/>
<path d="M53.4258 40.5894V49.2996" stroke="#041C4C" stroke-width="1.25935" stroke-linejoin="round"/>
<path d="M58.7891 37.2202L58.8529 43.9345" stroke="#041C4C" stroke-width="1.25935" stroke-linejoin="round"/>
<path d="M56.3867 46.3687L64.3385 46.4325" stroke="#041C4C" stroke-width="1.25935" stroke-linejoin="round"/>
</svg>
