<svg width="82" height="90" viewBox="0 0 82 90" fill="none" xmlns="http://www.w3.org/2000/svg">
<path d="M41.8144 89.1807C46.9211 88.8495 55.0594 87.0983 66.8915 74.9203C79.9598 61.4841 80.4013 46.6645 80.4013 46.6645V22.7869C80.4032 21.7703 80.2049 20.7632 79.8177 19.8233C79.4305 18.8834 78.8619 18.029 78.1444 17.3088C77.427 16.5887 76.5748 16.0169 75.6363 15.6261C74.6979 15.2353 73.6916 15.0331 72.6751 15.0312H71.7774C68.0843 15.0293 64.4707 13.9584 61.3728 11.948C59.3429 10.615 57.4102 9.13965 55.5892 7.53306C51.5936 4.02315 48.0028 2.22039 44.9638 1.57286C42.5191 1.10891 40.013 1.06666 37.554 1.44783C34.3899 2.04385 30.571 3.77297 26.2885 7.53306C24.466 9.13793 22.5334 10.6132 20.5049 11.948C17.4069 13.9584 13.7933 15.0293 10.1002 15.0312H9.20253C8.18598 15.0331 7.17973 15.2353 6.2413 15.6261C5.30287 16.0169 4.45062 16.5887 3.73318 17.3088C3.01573 18.029 2.44714 18.8834 2.05991 19.8233C1.67268 20.7632 1.4744 21.7703 1.47633 22.7869V46.6645C1.47633 46.6645 1.91782 61.4841 14.9861 74.9203C26.8035 87.0688 34.9124 88.8422 40.0043 89.1733L41.8144 89.1807Z" fill="#4A9CFF" stroke="#041C4C" stroke-width="1.25935" stroke-linecap="round" stroke-linejoin="round"/>
<path d="M41.8984 79.1811C45.8941 78.9274 52.2594 77.5587 61.5362 68.0936C71.7733 57.6366 72.114 46.1108 72.114 46.1108V27.5497C72.1171 26.7588 71.9629 25.975 71.6605 25.2433C71.358 24.5117 70.9132 23.8465 70.3514 23.2858C69.7896 22.7251 69.1219 22.28 68.3866 21.9759C67.6513 21.6718 66.8628 21.5148 66.0663 21.5138H65.3616C62.4701 21.5101 59.6413 20.6771 57.2153 19.1149C55.6242 18.0759 54.1102 16.9247 52.6853 15.6702C49.5878 12.9407 46.7459 11.5413 44.3609 11.0569C42.4476 10.6936 40.4857 10.6598 38.5609 10.9569C36.083 11.4259 33.0862 12.7638 29.7332 15.6856C28.3083 16.9401 26.7943 18.0913 25.2032 19.1303C22.7772 20.6925 19.9484 21.5255 17.0569 21.5292H16.3522C15.5557 21.5302 14.7672 21.6872 14.0319 21.9913C13.2966 22.2954 12.6289 22.7405 12.0671 23.3012C11.5053 23.8619 11.0605 24.5271 10.758 25.2587C10.4556 25.9904 10.3014 26.7741 10.3045 27.5651V46.1262C10.3045 46.1262 10.6452 57.6597 20.8822 68.109C30.1746 77.551 36.4856 78.9351 40.4891 79.1888L41.8984 79.1811Z" fill="#E9EBF6" stroke="#041C4C" stroke-width="1.25935" stroke-linecap="round" stroke-linejoin="round"/>
<path d="M74.3219 46.2104V26.0512C74.3354 22.5087 71.3568 19.5002 67.8422 19.4957C64.4606 19.4957 61.2249 18.7609 58.359 16.8902C52.9055 13.2803 48.5325 7.96174 41.5442 7.81637C34.3167 7.66603 29.6661 13.1963 24.0604 16.9069C21.1945 18.7776 17.9588 19.5124 14.5772 19.5124C11.0626 19.5169 8.08395 22.5254 8.09746 26.0679V46.2271C8.54214 61.4869 27.1621 82.1321 41.1931 82.1321C55.9263 82.1321 73.8726 61.6175 74.3219 46.2104Z" stroke="#041C4C" stroke-width="0.944512" stroke-linecap="round" stroke-linejoin="round" stroke-dasharray="0.18 2.63"/>
<path d="M61.6055 31.1015H24.1739C22.0973 31.1015 20.4138 32.7849 20.4138 34.8616V56.1711C20.4138 58.2478 22.0973 59.9312 24.1739 59.9312H61.6055C63.6821 59.9312 65.3656 58.2478 65.3656 56.1711V34.8616C65.3656 32.7849 63.6821 31.1015 61.6055 31.1015Z" fill="#BBCDFB"/>
<path d="M59.6133 28.6288H22.1817C20.1051 28.6288 18.4216 30.3122 18.4216 32.3889V53.6985C18.4216 55.7751 20.1051 57.4586 22.1817 57.4586H59.6133C61.69 57.4586 63.3734 55.7751 63.3734 53.6985V32.3889C63.3734 30.3122 61.69 28.6288 59.6133 28.6288Z" fill="#84C242" stroke="#041C4C" stroke-width="1.25935" stroke-linecap="round" stroke-linejoin="round"/>
<path d="M30.0661 43.4036H24.8564C24.6423 43.4036 24.4302 43.3613 24.2324 43.2791C24.0346 43.1969 23.855 43.0765 23.7039 42.9247C23.5528 42.7729 23.4332 42.5928 23.3519 42.3946C23.2706 42.1965 23.2293 41.9843 23.2302 41.7701V39.1505C23.2302 38.7185 23.4013 38.3042 23.7061 37.9981C24.0108 37.6919 24.4245 37.5189 24.8564 37.517H30.0661C30.4981 37.5189 30.9117 37.6919 31.2164 37.9981C31.5212 38.3042 31.6923 38.7185 31.6923 39.1505V41.748C31.6942 41.9635 31.6537 42.1773 31.573 42.3771C31.4924 42.5769 31.3731 42.7589 31.2221 42.9126C31.0711 43.0664 30.8913 43.1889 30.6929 43.2731C30.4946 43.3573 30.2816 43.4017 30.0661 43.4036Z" fill="#68A725" stroke="#041C4C" stroke-width="1.25935" stroke-linecap="round" stroke-linejoin="round"/>
<path d="M18.4021 46.8119L63.3759 46.834" stroke="#041C4C" stroke-width="1.25935" stroke-linecap="round" stroke-linejoin="round"/>
<path d="M60.6046 50.8812H46.3074C45.6003 50.8812 45.0271 51.4545 45.0271 52.1616V53.9791C45.0271 54.6862 45.6003 55.2594 46.3074 55.2594H60.6046C61.3117 55.2594 61.8849 54.6862 61.8849 53.9791V52.1616C61.8849 51.4545 61.3117 50.8812 60.6046 50.8812Z" fill="#FFCC4D" stroke="#041C4C" stroke-width="1.25935" stroke-linecap="round" stroke-linejoin="round"/>
<path d="M62.3351 55.2592H48.0379C47.3308 55.2592 46.7576 55.8324 46.7576 56.5395V58.357C46.7576 59.0641 47.3308 59.6373 48.0379 59.6373H62.3351C63.0422 59.6373 63.6154 59.0641 63.6154 58.357V56.5395C63.6154 55.8324 63.0422 55.2592 62.3351 55.2592Z" fill="#FFCC4D" stroke="#041C4C" stroke-width="1.25935" stroke-linecap="round" stroke-linejoin="round"/>
<path d="M59.5577 59.6293H45.2606C44.5535 59.6293 43.9802 60.2025 43.9802 60.9096V62.7271C43.9802 63.4342 44.5535 64.0075 45.2606 64.0075H59.5577C60.2648 64.0075 60.8381 63.4342 60.8381 62.7271V60.9096C60.8381 60.2025 60.2648 59.6293 59.5577 59.6293Z" fill="#FFCC4D" stroke="#041C4C" stroke-width="1.25935" stroke-linecap="round" stroke-linejoin="round"/>
</svg>
