<svg width="100" height="76" viewBox="0 0 100 76" fill="none" xmlns="http://www.w3.org/2000/svg">
<path d="M80.5052 19.6238H71.3071C70.9424 19.6233 70.582 19.7025 70.2511 19.8559C69.9202 20.0093 69.6269 20.2332 69.3916 20.5118C69.1563 20.7905 68.9847 21.1171 68.8889 21.469C68.7931 21.8209 68.7754 22.1895 68.8369 22.549L80.5052 19.6238ZM80.5052 19.6238C80.7209 19.6206 80.9329 19.567 81.1242 19.4674C81.3156 19.3677 81.481 19.2248 81.6073 19.0498C81.7336 18.8749 81.8172 18.6729 81.8516 18.46C81.886 18.247 81.8701 18.0289 81.8053 17.8232M80.5052 19.6238L81.8053 17.8232M81.8053 17.8232C81.4402 16.6786 80.7208 15.6796 79.7511 14.9704C78.7813 14.2612 77.6113 13.8785 76.4099 13.8774M81.8053 17.8232L76.4099 13.8774M76.4099 13.8774H64.1883H76.4099ZM88.0804 34.051C88.0729 34.0403 88.0651 34.0299 88.0569 34.0196C87.7441 33.6273 87.3468 33.3106 86.8947 33.0928L86.6215 33.6602L86.8947 33.0928C86.4426 32.8751 85.9473 32.7621 85.4455 32.762H73.3163C72.7289 32.7615 72.1607 32.5528 71.7126 32.1731C71.2645 31.7933 70.9654 31.267 70.8686 30.6877L70.8682 30.6853L69.4576 22.4428L69.4576 22.4427C69.4115 22.1737 69.4248 21.8978 69.4965 21.6344C69.5682 21.3711 69.6965 21.1266 69.8726 20.9181C70.0488 20.7095 70.2683 20.5419 70.5159 20.4272C70.7635 20.3124 71.0333 20.2531 71.3062 20.2535H71.3071H80.5052V20.2535L80.5145 20.2534C80.8284 20.2488 81.1367 20.1708 81.4151 20.0259C81.6934 19.8809 81.9341 19.6729 82.1178 19.4184C82.3015 19.164 82.4232 18.8702 82.4733 18.5603C82.5233 18.2504 82.5002 17.9332 82.4058 17.6339L82.4052 17.6318C81.9995 16.3601 81.2003 15.2501 80.1228 14.4622C79.0453 13.6742 77.7454 13.2489 76.4105 13.2478H76.4099H63.5586C63.2108 13.2478 62.9289 13.5297 62.9289 13.8774V55.6621C62.9289 56.0094 63.2102 56.2912 63.5576 56.2918L95.6502 56.3438C95.8317 56.3441 96.0046 56.266 96.1244 56.1295C96.2442 55.9931 96.2992 55.8115 96.2754 55.6315L95.0601 46.4482C95.06 46.4479 95.06 46.4476 95.0599 46.4473C94.8012 44.4493 94.0533 42.5461 92.8825 40.9066C92.882 40.9058 92.8814 40.905 92.8808 40.9042L88.0804 34.051Z" fill="#FFCC4D" stroke="#041C4C" stroke-width="1.25935" stroke-linecap="round" stroke-linejoin="round"/>
<path d="M66.4513 13.8911H63.5586V55.6758H66.4513V13.8911Z" fill="#F2AC20"/>
<path d="M11.5033 0.85791H59.7819C60.7836 0.85791 61.7442 1.25582 62.4525 1.9641C63.1608 2.67238 63.5587 3.633 63.5587 4.63465V55.7605H11.5033C10.5016 55.7605 9.54102 55.3626 8.83274 54.6543C8.12447 53.946 7.72656 52.9854 7.72656 51.9837V4.63465C7.72656 3.633 8.12447 2.67238 8.83274 1.9641C9.54102 1.25582 10.5016 0.85791 11.5033 0.85791Z" fill="#E13C36" stroke="#041C4C" stroke-width="1.25935" stroke-linecap="round" stroke-linejoin="round"/>
<path d="M57.3096 4.28418H13.9713C12.5352 4.28418 11.3711 5.44831 11.3711 6.88435V49.7351C11.3711 51.1712 12.5352 52.3353 13.9713 52.3353H57.3096C58.7456 52.3353 59.9097 51.1712 59.9097 49.7351V6.88435C59.9097 5.44831 58.7456 4.28418 57.3096 4.28418Z" fill="#FC5454" stroke="#041C4C" stroke-width="0.944512" stroke-linecap="round" stroke-linejoin="round" stroke-dasharray="0.18 2.63"/>
<path d="M93.7501 41.4327H90.0904C89.3436 41.4327 88.7383 42.0381 88.7383 42.7848V45.697C88.7383 46.4438 89.3436 47.0491 90.0904 47.0491H93.7501C94.4968 47.0491 95.1022 46.4438 95.1022 45.697V42.7848C95.1022 42.0381 94.4968 41.4327 93.7501 41.4327Z" fill="white" stroke="#041C4C" stroke-width="1.25935" stroke-linecap="round" stroke-linejoin="round"/>
<path d="M84.6072 32.7624L72.0192 32.7624L72.0186 32.7624M84.6072 32.7624H72.0186M84.6072 32.7624L80.6326 20.2539H70.01H70.0091C69.7362 20.2535 69.4664 20.3128 69.2188 20.4276C68.9712 20.5423 68.7517 20.7099 68.5755 20.9185C68.3994 21.127 68.2711 21.3715 68.1994 21.6348C68.1277 21.8982 68.1144 22.1741 68.1605 22.4431L68.1605 22.4432L69.5711 30.6857L69.5715 30.6881C69.6683 31.2674 69.9674 31.7937 70.4155 32.1735L70.0084 32.6538L70.4155 32.1735C70.8635 32.5531 71.4314 32.7618 72.0186 32.7624M84.6072 32.7624H72.0186" fill="#E9EBF6" stroke="#041C4C" stroke-width="1.25935" stroke-linecap="round" stroke-linejoin="round"/>
<path d="M33.062 38.1043C32.8205 38.1075 32.581 38.0619 32.3576 37.9703C32.1342 37.8787 31.9316 37.743 31.7619 37.5712L22.0893 27.9051C21.7445 27.5603 21.5508 27.0926 21.5508 26.605C21.5508 26.1174 21.7445 25.6497 22.0893 25.3049C22.4341 24.9601 22.9018 24.7664 23.3894 24.7664C23.877 24.7664 24.3447 24.9601 24.6895 25.3049L33.062 33.6775L48.429 18.3235C48.7738 17.9787 49.2414 17.785 49.7291 17.785C50.2167 17.785 50.6843 17.9787 51.0291 18.3235C51.3739 18.6683 51.5677 19.1359 51.5677 19.6236C51.5677 20.1112 51.3739 20.5788 51.0291 20.9236L34.3686 37.5842C34.1961 37.7532 33.9918 37.8862 33.7675 37.9755C33.5432 38.0648 33.3034 38.1086 33.062 38.1043Z" fill="#FFCC4D" stroke="#041C4C" stroke-width="1.25935" stroke-linecap="round" stroke-linejoin="round"/>
<path d="M95.7162 55.1307H88.9862C86.1506 50.9793 81.9703 48.2468 76.514 48.2468C71.0564 48.2468 66.8517 51.0117 64.0159 55.1632H43.2492C40.4148 51.0121 36.2344 48.2468 30.7446 48.2468C25.2544 48.2468 21.0804 51.0124 18.2464 55.1632H10.4308C9.54659 55.1632 8.69859 55.5144 8.07336 56.1397C7.44813 56.7649 7.09689 57.6129 7.09689 58.4971V61.3833C7.09689 62.2675 7.44814 63.1154 8.07336 63.7406C8.69856 64.3658 9.54654 64.7171 10.4308 64.7171H95.7162C96.6005 64.7171 97.4484 64.3658 98.0736 63.7406C98.6989 63.1154 99.0501 62.2675 99.0501 61.3833V58.5007C99.0549 58.0609 98.9726 57.6244 98.8079 57.2165C98.6427 56.8074 98.398 56.4351 98.0879 56.1213C97.7778 55.8075 97.4085 55.5583 97.0014 55.3883C96.5943 55.2183 96.1574 55.1307 95.7162 55.1307Z" fill="#4A9CFF" stroke="#041C4C" stroke-width="1.25935" stroke-linecap="round" stroke-linejoin="round"/>
<path d="M30.5933 51.1902C27.1901 51.1902 23.9263 52.5421 21.5198 54.9485C19.1134 57.3549 17.7615 60.6188 17.7615 64.022H43.4187C43.4187 60.62 42.0676 57.3571 39.6626 54.9508C37.2576 52.5446 33.9954 51.1919 30.5933 51.1902Z" fill="#2E79FB"/>
<path d="M89.1559 64.0551C89.0804 60.7045 87.6964 57.5165 85.3 55.1735C82.9036 52.8304 79.6853 51.5186 76.3338 51.5186C72.9823 51.5186 69.764 52.8304 67.3676 55.1735C64.9712 57.5165 63.5872 60.7045 63.5117 64.0551H89.1559Z" fill="#2E79FB"/>
<path d="M30.5927 74.8854C36.5917 74.8854 41.4549 70.0222 41.4549 64.0232C41.4549 58.0242 36.5917 53.161 30.5927 53.161C24.5936 53.161 19.7305 58.0242 19.7305 64.0232C19.7305 70.0222 24.5936 74.8854 30.5927 74.8854Z" fill="#E9EBF6" stroke="#041C4C" stroke-width="1.25935" stroke-linecap="round" stroke-linejoin="round"/>
<path d="M30.593 68.7086C33.1815 68.7086 35.2799 66.6102 35.2799 64.0218C35.2799 61.4333 33.1815 59.335 30.593 59.335C28.0046 59.335 25.9062 61.4333 25.9062 64.0218C25.9062 66.6102 28.0046 68.7086 30.593 68.7086Z" fill="#BBCDFB" stroke="#041C4C" stroke-width="1.25935" stroke-linecap="round" stroke-linejoin="round"/>
<path d="M76.327 75.0794C82.3261 75.0794 87.1892 70.2162 87.1892 64.2172C87.1892 58.2181 82.3261 53.355 76.327 53.355C70.328 53.355 65.4648 58.2181 65.4648 64.2172C65.4648 70.2162 70.328 75.0794 76.327 75.0794Z" fill="#E9EBF6" stroke="#041C4C" stroke-width="1.25935" stroke-linecap="round" stroke-linejoin="round"/>
<path d="M76.3313 68.9039C78.9198 68.9039 81.0181 66.8055 81.0181 64.2171C81.0181 61.6286 78.9198 59.5303 76.3313 59.5303C73.7429 59.5303 71.6445 61.6286 71.6445 64.2171C71.6445 66.8055 73.7429 68.9039 76.3313 68.9039Z" fill="#BBCDFB" stroke="#041C4C" stroke-width="1.25935" stroke-linecap="round" stroke-linejoin="round"/>
<path d="M15.8047 48.7981H3.37591C2.8587 48.7981 2.36267 48.5927 1.99695 48.227C1.63123 47.8612 1.42578 47.3652 1.42578 46.848C1.42578 46.3308 1.63123 45.8348 1.99695 45.469C2.36267 45.1033 2.8587 44.8979 3.37591 44.8979H15.8047C16.3219 44.8979 16.8179 45.1033 17.1837 45.469C17.5494 45.8348 17.7548 46.3308 17.7548 46.848C17.7548 47.3652 17.5494 47.8612 17.1837 48.227C16.8179 48.5927 16.3219 48.7981 15.8047 48.7981Z" fill="#4A9CFF" stroke="#041C4C" stroke-width="1.25935"/>
<path d="M26.2653 42.2975H5.97747C5.46026 42.2975 4.96423 42.092 4.59851 41.7263C4.23279 41.3606 4.02734 40.8646 4.02734 40.3474C4.02734 39.8302 4.23279 39.3341 4.59851 38.9684C4.96423 38.6027 5.46026 38.3972 5.97747 38.3972H26.2653C26.7825 38.3972 27.2785 38.6027 27.6442 38.9684C28.0099 39.3341 28.2154 39.8302 28.2154 40.3474C28.2154 40.8646 28.0099 41.3606 27.6442 41.7263C27.2785 42.092 26.7825 42.2975 26.2653 42.2975Z" fill="#4A9CFF" stroke="#041C4C" stroke-width="1.25935"/>
</svg>
