<svg width="78" height="97" viewBox="0 0 78 97" fill="none" xmlns="http://www.w3.org/2000/svg">
<path d="M48.3157 50.0525C48.372 49.8683 48.3408 49.6683 48.2311 49.5097C48.1214 49.3511 47.9452 49.2514 47.7529 49.239L17.1316 47.2656C16.8425 47.247 16.5783 47.4281 16.4915 47.7045L3.91538 87.7639C3.91527 87.7642 3.91515 87.7646 3.91504 87.765C3.70953 88.4115 3.68918 89.1039 3.85646 89.7618C4.02384 90.4203 4.37246 91.0181 4.86304 91.4854C5.3537 91.9527 5.96606 92.2699 6.62915 92.399C7.29175 92.5279 7.97661 92.4635 8.6038 92.2136C8.60427 92.2134 8.60472 92.2132 8.60518 92.2131L20.3707 87.5797L20.3722 87.5791C20.7219 87.4403 21.1028 87.4059 21.4705 87.4793C21.8381 87.5526 22.1785 87.7312 22.4512 87.9949L22.4525 87.9962L28.8872 94.1828C29.3717 94.6492 29.9662 94.9832 30.6148 95.1525C31.2634 95.3217 31.9439 95.3204 32.5916 95.1487C33.2392 94.977 33.832 94.6409 34.3142 94.1732C34.7964 93.7054 35.1524 93.1215 35.3491 92.4768L48.3157 50.0525Z" fill="#4A9CFF" stroke="#041C4C" stroke-width="1.25935" stroke-linejoin="round"/>
<path d="M30.1951 49.9128C30.302 49.7523 30.4764 49.6494 30.6684 49.6336L61.2506 47.1127C61.5394 47.0889 61.8066 47.2652 61.8982 47.5399L75.1778 87.3698L75.1779 87.37C75.3922 88.0136 75.4224 88.7054 75.265 89.3658C75.1075 90.0263 74.7685 90.6293 74.286 91.1044C73.8035 91.5797 73.1972 91.9074 72.537 92.0487C71.8772 92.1899 71.1917 92.1387 70.5602 91.9016L30.1951 49.9128ZM30.1951 49.9128C30.0881 50.0734 30.0605 50.2739 30.12 50.4571L43.8225 92.6428C44.0305 93.2838 44.3965 93.8614 44.8868 94.3204L45.3175 93.8601L44.8868 94.3204C45.3771 94.7795 45.9756 95.1049 46.6261 95.2649C47.2767 95.425 47.9571 95.4142 48.6026 95.2333C49.2482 95.0525 49.8368 94.7079 50.313 94.233L56.6466 87.9318L56.6482 87.9302C56.9163 87.6616 57.2535 87.4771 57.6198 87.3971C57.9861 87.3172 58.3676 87.3448 58.7196 87.4773L58.721 87.4778L70.559 91.9012L30.1951 49.9128Z" fill="#4A9CFF" stroke="#041C4C" stroke-width="1.25935" stroke-linejoin="round"/>
<path d="M16.3125 50.2614L13.0491 60.6547C14.1958 61.2441 15.1915 62.096 15.9575 63.143C18.02 66.4388 15.9949 73.4959 18.9577 75.9878C21.9205 78.4798 28.3677 75.1394 31.9572 76.5884C34.064 77.4358 35.7872 80.2986 37.6926 82.493L46.9328 52.2505L16.3125 50.2614Z" fill="#2E79FB"/>
<path d="M62.0822 50.1071L31.5 52.6279L41.949 84.8054C42.4126 84.9513 42.8991 85.0079 43.3832 84.9722C47.3311 84.6468 49.6373 77.6717 53.1028 76.1984C56.6976 74.6828 63.2 77.8837 66.0976 75.3647C67.8927 73.7996 67.7714 70.5319 67.8783 67.4828L62.0822 50.1071Z" fill="#2E79FB"/>
<path d="M38.9536 81.7234C34.9928 81.7234 32.1291 74.9606 28.5573 73.7769C24.8533 72.5617 18.6279 76.2863 15.5464 74.0136C12.4648 71.7409 13.99 64.5441 11.7489 61.3876C9.50781 58.2311 2.27867 57.584 1.07251 53.8278C-0.0869566 50.2057 5.32905 45.3605 5.32905 41.3439C5.32905 37.3272 -0.118083 32.4898 1.07251 28.8677C2.27867 25.1115 9.50781 24.4329 11.7489 21.308C13.99 18.183 12.4337 10.9783 15.5464 8.68194C18.659 6.38559 24.8844 10.1339 28.5573 8.91072C32.1291 7.73493 34.9928 0.972168 38.9536 0.972168C42.9145 0.972168 45.7703 7.73493 49.3421 8.91072C53.0462 10.1339 59.2715 6.40137 62.3609 8.68194C65.4502 10.9625 63.9172 18.1515 66.1505 21.308C68.3839 24.4645 75.6286 25.1115 76.8269 28.8677C77.9864 32.4898 72.5704 37.3272 72.5704 41.3439C72.5704 45.3605 78.0175 50.2057 76.8269 53.8278C75.6286 57.584 68.3994 58.2548 66.1505 61.3876C63.9016 64.5204 65.4735 71.7173 62.3609 74.0136C59.2482 76.31 53.0228 72.5617 49.3421 73.7769C45.747 74.9606 42.8911 81.7234 38.9536 81.7234Z" fill="#FFCC4D" stroke="#041C4C" stroke-width="1.25935" stroke-linejoin="round"/>
<path d="M39.0327 68.8361C54.0746 68.8361 66.2685 56.4705 66.2685 41.2167C66.2685 25.963 54.0746 13.5973 39.0327 13.5973C23.9908 13.5973 11.7969 25.963 11.7969 41.2167C11.7969 56.4705 23.9908 68.8361 39.0327 68.8361Z" fill="#FC5454" stroke="#041C4C" stroke-width="1.25935" stroke-linejoin="round"/>
<path d="M38.643 71.205C55.1891 71.205 68.6024 57.7795 68.6024 41.2182C68.6024 24.657 55.1891 11.2314 38.643 11.2314C22.0969 11.2314 8.68359 24.657 8.68359 41.2182C8.68359 57.7795 22.0969 71.205 38.643 71.205Z" stroke="#041C4C" stroke-width="0.944512" stroke-linecap="round" stroke-linejoin="round" stroke-dasharray="0.18 2.63"/>
<path d="M53.0018 41.1596C53.0018 39.6834 52.2121 38.57 50.742 38.5447C49.2719 38.5194 47.9362 38.5447 46.5417 38.5447C45.3405 38.5447 44.9204 37.9627 45.3321 36.8577C46.2631 34.441 46.6725 31.8534 46.5333 29.266C46.4808 28.5554 46.2986 27.8606 45.9957 27.2162C45.8474 26.8865 45.5975 26.6135 45.2829 26.4373C44.9683 26.2611 44.6056 26.1911 44.2484 26.2377C43.894 26.2638 43.5612 26.4187 43.3123 26.6733C43.0634 26.9279 42.9154 27.2648 42.8959 27.621C42.6355 30.7083 41.4006 31.7543 40.1405 33.0196C37.7548 35.3983 36.8643 36.6383 34.5206 39.0592C34.3054 39.2671 34.1713 39.5453 34.1425 39.8437C34.1005 39.1435 33.7981 38.9158 32.9832 38.9158H27.7077C26.8677 38.9158 26.582 39.1942 26.582 39.9702C26.582 45.2844 26.582 50.6014 26.582 55.9212C26.582 56.6888 26.8929 56.9587 27.7245 56.9587H32.8573C33.7729 56.9587 34.0753 56.7732 34.1425 56.1152C34.1929 56.2164 34.8398 56.5538 36.4275 56.7141C40.4405 57.1401 44.4895 57.0891 48.4907 56.5623C49.7423 56.3683 51.0864 56.0309 51.4644 54.7909C52.6722 50.3536 53.1908 45.7557 53.0018 41.1596Z" fill="#E13C36"/>
<path d="M32.0076 45.5442C32.0076 48.1633 32.0076 50.7851 32.0076 53.4099C32.0076 54.3942 31.7832 54.6233 30.8159 54.6318H26.0798C25.3059 54.6318 25.0273 54.3603 25.0273 53.5882C25.0273 48.2425 25.0273 42.8939 25.0273 37.5426C25.0273 36.7619 25.3059 36.4819 26.0643 36.4819H30.9551C31.7754 36.4819 32.0308 36.7534 32.0308 37.6274C32.0076 40.2578 32.0076 42.9053 32.0076 45.5442Z" fill="white" stroke="#041C4C" stroke-width="1.25935" stroke-linejoin="round"/>
<path d="M49.091 52.3667C48.7018 53.6395 47.3181 53.9859 46.0296 54.185C41.9105 54.7258 37.7422 54.7782 33.6109 54.3409C31.8813 54.1677 31.25 53.7953 31.25 53.7087C31.25 48.1615 31.25 42.6084 31.25 37.0496C31.2758 36.7422 31.4144 36.4554 31.6392 36.2444C34.052 33.7594 34.9687 32.4865 37.4247 30.0448C38.7219 28.746 40.0191 27.6723 40.2613 24.5033C40.2813 24.1376 40.4337 23.7918 40.69 23.5304C40.9462 23.2691 41.2888 23.1101 41.6536 23.0832C42.0214 23.0355 42.3947 23.1073 42.7186 23.2882C43.0425 23.469 43.2997 23.7493 43.4524 24.0877C43.7641 24.7491 43.9518 25.4624 44.0059 26.1918C44.1492 28.8477 43.7277 31.5038 42.7692 33.9845C42.3455 35.1534 42.7692 35.7162 44.0145 35.7162C45.4588 35.7162 46.903 35.7162 48.3386 35.7162C49.7742 35.7162 50.6217 36.8851 50.6649 38.4004C50.8596 43.1091 50.3288 47.8198 49.091 52.3667Z" fill="white" stroke="#041C4C" stroke-width="1.25935" stroke-linejoin="round"/>
</svg>
