<svg width="51" height="24" viewBox="0 0 51 24" fill="none" xmlns="http://www.w3.org/2000/svg">
<g clip-path="url(#clip0_1362_16955)">
<path d="M5.42407 1.84049V8.64521C5.42407 8.64521 7.8218 8.64521 9.10505 8.5478C10.1142 8.37112 10.3 8.27371 10.4857 7.26456L10.8572 5.7865H11.9547L11.7689 9.01671L11.8664 12.3262H10.7598L10.4857 11.0339C10.2116 10.1142 9.84011 9.92732 9.10505 9.83898C8.18537 9.74158 5.42407 9.74158 5.42407 9.74158V15.4488C5.42407 16.5463 5.98131 17.0152 7.26456 17.0152H11.1313C12.3262 17.0152 13.52 16.9178 14.2641 15.1747L15.2642 12.9627H16.1929C16.0955 13.4226 15.6357 17.475 15.5473 18.3868C15.5473 18.3868 12.0521 18.2984 10.5831 18.2984H3.95507L0 18.3868V17.3867L1.28325 17.1035C2.21199 16.9178 2.48608 16.6437 2.48608 15.9086C2.48608 15.9086 2.58348 13.4226 2.58348 9.2806C2.58348 5.14884 2.48608 2.66163 2.48608 2.66163C2.48608 1.83823 2.21199 1.65248 1.28325 1.46673L0 1.1949V0.185748L3.86673 0.265031H11.2287C12.6977 0.265031 15.1747 0 15.1747 0C15.1747 0 15.0864 1.55734 14.989 5.23832H13.9798L13.6083 3.94601C13.2459 2.29127 12.6966 1.46786 11.6795 1.46786H5.89297C5.42407 1.46899 5.42407 1.55734 5.42407 1.84049ZM20.3247 2.56649H21.4312V6.43322L25.2096 6.24747L25.0239 7.99962L21.3429 7.71647V14.5302C21.3429 16.4591 21.9885 17.2021 23.095 17.2021C24.0951 17.2021 24.8381 16.6448 25.1122 16.185L25.6604 16.8306C25.1122 18.1138 23.5549 18.7594 22.0768 18.7594C20.2454 18.7594 18.7583 17.6619 18.7583 15.5473V7.81274H16.5633V6.89306C18.4049 6.70731 19.7765 5.60075 20.3247 2.56649ZM28.2439 14.4317L28.9778 16.1839C29.2519 16.9178 29.8975 17.6619 31.3665 17.6619C32.9329 17.6619 33.5785 16.8306 33.5785 15.8214C33.5785 12.6886 27.4114 13.6094 27.4114 9.37914C27.4114 6.99047 29.3403 5.87485 31.8263 5.87485C32.9329 5.87485 34.5876 6.06059 35.419 6.43209C35.2332 7.35177 35.1358 8.54667 35.1358 9.46748L34.2241 9.55583L33.5785 7.71534C33.3927 7.26456 32.6497 6.89193 31.738 6.89193C30.6314 6.89193 29.526 7.35177 29.526 8.54667C29.526 11.3963 35.8788 10.7587 35.8788 14.989C35.8788 17.3867 33.7642 18.6699 31.1807 18.6699C29.2519 18.6699 27.314 17.9269 27.314 17.9269C27.4998 16.8294 27.4114 15.6357 27.314 14.4317H28.2439ZM35.4201 23.2627C35.6942 22.2535 35.8799 20.9714 36.0657 19.7674L37.0748 19.6791L37.4463 21.6079C37.5347 22.0678 37.8088 22.4393 38.5438 22.4393C39.7387 22.4393 41.3051 21.7053 42.7821 19.1298C42.1274 17.5634 40.1986 12.5108 38.4464 8.64408C37.9866 7.62699 37.8983 7.53752 37.2606 7.35177L36.7917 7.17508V6.24634L39.5609 6.34375L42.9588 6.158V7.07881L42.1274 7.26456C41.4818 7.3529 41.2157 7.71534 41.2157 8.08797C41.2157 8.18537 41.2157 8.27371 41.304 8.45946C41.4807 9.0167 42.9588 13.1496 44.0653 15.9098C44.9771 13.9809 46.7292 9.65436 47.0033 8.9193C47.1007 8.5478 47.1891 8.45946 47.1891 8.18537C47.1891 7.71647 46.915 7.44238 46.2773 7.26569L45.6227 7.07881V6.15913L48.2061 6.24747L50.5948 6.15913V7.07881L50.135 7.44124C49.2153 7.81274 49.1179 7.90108 48.7543 8.64408L44.7109 18.1116C42.3132 23.5447 39.8271 24.0045 38.0829 24.0045C36.9774 24.0057 36.1461 23.7225 35.4201 23.2627Z" fill="#E06D35"/>
</g>
<defs>
<clipPath id="clip0_1362_16955">
<rect width="51" height="24" fill="white"/>
</clipPath>
</defs>
</svg>
