<svg width="72" height="24" viewBox="0 0 72 24" fill="none" xmlns="http://www.w3.org/2000/svg">
<g clip-path="url(#clip0_1362_16932)">
<path d="M17.5848 8.29731H9.23809V10.774H15.1581C14.8648 14.2406 11.9761 15.7286 9.24809 15.7286C8.38387 15.7324 7.52756 15.564 6.72914 15.2333C5.93071 14.9025 5.20619 14.416 4.59785 13.8021C3.98952 13.1883 3.50957 12.4594 3.18602 11.658C2.86248 10.8566 2.70182 9.9988 2.71343 9.13465C2.71343 5.38531 5.61609 2.49865 9.25609 2.49865C12.0641 2.49865 13.7188 4.28865 13.7188 4.28865L15.4521 2.49265C15.4521 2.49265 13.2254 0.0146484 9.16543 0.0146484C3.99543 0.0146484 -0.00390625 4.37798 -0.00390625 9.09065C-0.00390625 13.7086 3.75809 18.212 9.29609 18.212C14.1674 18.212 17.7334 14.8746 17.7334 9.93998C17.7334 8.89865 17.5821 8.29731 17.5821 8.29731H17.5848Z" fill="#4885ED"/>
<path d="M24.423 6.50323C20.9976 6.50323 18.543 9.18123 18.543 12.3032C18.543 15.4726 20.923 18.1999 24.463 18.1999C27.667 18.1999 30.2916 15.7512 30.2916 12.3712C30.2916 8.50456 27.2383 6.50256 24.423 6.50256V6.50323ZM24.4563 8.80056C26.1403 8.80056 27.7363 10.1626 27.7363 12.3566C27.7363 14.5032 26.147 15.9046 24.4483 15.9046C22.5816 15.9046 21.115 14.4099 21.115 12.3392C21.115 10.3126 22.5683 8.80056 24.4616 8.80056H24.4563Z" fill="#DB3236"/>
<path d="M37.2101 6.50327C33.7847 6.50327 31.3301 9.18127 31.3301 12.3033C31.3301 15.4726 33.7101 18.1999 37.2501 18.1999C40.4541 18.1999 43.0787 15.7513 43.0787 12.3713C43.0787 8.50461 40.0254 6.50261 37.2101 6.50261V6.50327ZM37.2434 8.80061C38.9274 8.80061 40.5234 10.1626 40.5234 12.3566C40.5234 14.5033 38.9341 15.9046 37.2354 15.9046C35.3687 15.9046 33.9021 14.4099 33.9021 12.3393C33.9021 10.3126 35.3554 8.80061 37.2487 8.80061H37.2434Z" fill="#F4C20D"/>
<path d="M49.7514 6.51025C46.6074 6.51025 44.1367 9.26359 44.1367 12.3543C44.1367 15.8743 47.0014 18.2089 49.6967 18.2089C51.3634 18.2089 52.2501 17.5469 52.8967 16.7876V17.9409C52.8967 19.9589 51.6714 21.1676 49.8221 21.1676C48.0354 21.1676 47.1394 19.8389 46.8221 19.0856L44.5741 20.0189C45.3714 21.7056 46.9767 23.4636 49.8407 23.4636C52.9741 23.4636 55.3487 21.4949 55.3487 17.3656V6.86159H52.9061V7.85225C52.1527 7.03892 51.1207 6.51025 49.7527 6.51025H49.7514ZM49.9781 8.80359C51.5194 8.80359 53.1021 10.1196 53.1021 12.3669C53.1021 14.6516 51.5221 15.9103 49.9441 15.9103C48.2681 15.9103 46.7087 14.5503 46.7087 12.3883C46.7087 10.1429 48.3287 8.80292 49.9781 8.80292V8.80359Z" fill="#4885ED"/>
<path d="M66.2659 6.49609C63.3005 6.49609 60.8105 8.8561 60.8105 12.3361C60.8105 16.0201 63.5859 18.2048 66.5439 18.2048C69.0185 18.2048 70.5439 16.8514 71.4439 15.6381L69.4219 14.2928C68.8972 15.1061 68.0199 15.9028 66.5565 15.9028C64.9125 15.9028 64.1565 15.0028 63.6879 14.1294L71.5299 10.8761L71.1299 9.92276C70.3725 8.05609 68.6052 6.49609 66.2665 6.49609H66.2659ZM66.3679 8.74543C67.4365 8.74543 68.2052 9.31343 68.5319 9.99476L63.2945 12.1834C63.0679 10.4888 64.6745 8.74543 66.3612 8.74543H66.3679Z" fill="#DB3236"/>
<path d="M57.0664 17.8581H59.6424V0.620117H57.0664V17.8581Z" fill="#3CBA54"/>
</g>
<defs>
<clipPath id="clip0_1362_16932">
<rect width="72" height="24" fill="white"/>
</clipPath>
</defs>
</svg>
