<svg width="60" height="24" viewBox="0 0 60 24" fill="none" xmlns="http://www.w3.org/2000/svg">
<g clip-path="url(#clip0_1069_16916)">
<path d="M7.77282 5.24756C3.54368 5.24756 0.0195312 7.03694 0.0195312 12.4354C0.0195312 16.7122 2.38926 19.4055 7.88202 19.4055C14.3473 19.4055 14.7617 15.1581 14.7617 15.1581H11.629C11.629 15.1581 10.9573 17.4452 7.69092 17.4452C5.03053 17.4452 3.11708 15.6528 3.11708 13.1406H15.0893V11.5642C15.0893 9.07881 13.5073 5.24756 7.77282 5.24756ZM7.66362 7.26234C10.196 7.26234 11.9225 8.80957 11.9225 11.1285H3.18637C3.18637 8.66667 5.43981 7.26234 7.66362 7.26234Z" fill="#E53238"/>
<path d="M15.0873 0.0200195V16.6944C15.0873 17.6409 15.0195 18.9699 15.0195 18.9699H18.0075C18.0075 18.9699 18.1147 18.0154 18.1147 17.1431C18.1147 17.1431 19.591 19.4463 23.605 19.4463C27.8319 19.4463 30.703 16.5196 30.703 12.3265C30.703 8.42574 28.0658 5.2884 23.6118 5.2884C19.4409 5.2884 18.1449 7.53461 18.1449 7.53461V0.0200195H15.0873ZM22.8406 7.35083C25.711 7.35083 27.5362 9.47542 27.5362 12.3265C27.5362 15.3838 25.4281 17.3839 22.861 17.3839C19.7975 17.3839 18.1449 14.9983 18.1449 12.3538C18.1449 9.88953 19.6278 7.35083 22.8406 7.35083Z" fill="#0064D2"/>
<path d="M38.1293 5.24756C31.7668 5.24756 31.3588 8.72193 31.3588 9.27712H34.5256C34.5256 9.27712 34.6917 7.24873 37.9109 7.24873C40.0027 7.24873 41.6237 8.20363 41.6237 10.0395V10.6929H37.9109C32.9818 10.6929 30.376 12.131 30.376 15.0492C30.376 17.9211 32.7837 19.4838 36.0374 19.4838C40.4717 19.4838 41.9001 17.0402 41.9001 17.0402C41.9001 18.0121 41.9753 18.9699 41.9753 18.9699H44.7905C44.7905 18.9699 44.6813 17.7827 44.6813 17.0231V10.4581C44.6813 6.15347 41.1998 5.24756 38.1293 5.24756ZM41.6237 12.6532V13.5245C41.6237 14.6609 40.9206 17.486 36.7813 17.486C34.5147 17.486 33.5428 16.3578 33.5428 15.0492C33.5428 12.6686 36.8156 12.6532 41.6237 12.6532Z" fill="#F5AF02"/>
<path d="M42.9758 5.7926H46.5385L51.6515 16.0085L56.7527 5.7926H59.98L50.6882 23.9801H47.3029L49.9842 18.9101L42.9758 5.7926Z" fill="#86B817"/>
</g>
<defs>
<clipPath id="clip0_1069_16916">
<rect width="60" height="24" fill="white"/>
</clipPath>
</defs>
</svg>
